AnekTamil-CondensedBold.ufo
<glyph name="exclam" format="2">
  <advance width="419.9800000000001"/>
  <unicode hex="0021"/>
  <outline>
    <contour>
      <point x="316.60999999999996" y="415.0466666666666" type="line"/>
      <point x="352.15" y="1278.0" type="line"/>
      <point x="67.83" y="1278.0" type="line"/>
      <point x="103.37" y="415.0466666666666" type="line"/>
    </contour>
    <contour>
      <point x="213.38333333333335" y="-24.966666666666665" type="curve" smooth="yes"/>
      <point x="305.6433333333334" y="-24.966666666666665"/>
      <point x="353.6666666666667" y="34.05666666666667"/>
      <point x="353.6666666666667" y="138.53" type="curve" smooth="yes"/>
      <point x="353.6666666666667" y="155.53" type="line" smooth="yes"/>
      <point x="353.6666666666667" y="258.3066666666667"/>
      <point x="305.6433333333334" y="318.72333333333336"/>
      <point x="213.38333333333335" y="318.72333333333336" type="curve" smooth="yes"/>
      <point x="117.42666666666668" y="318.72333333333336"/>
      <point x="73.10000000000001" y="258.3066666666667"/>
      <point x="73.10000000000001" y="155.53" type="curve" smooth="yes"/>
      <point x="73.10000000000001" y="138.53" type="line" smooth="yes"/>
      <point x="73.10000000000001" y="34.05666666666667"/>
      <point x="117.42666666666668" y="-24.966666666666665"/>
    </contour>
  </outline>
</glyph>
<glyph name="numbersign" format="2">
  <advance width="897.8566666666666"/>
  <unicode hex="0023"/>
  <outline>
    <contour>
      <point x="105.43666666666665" y="0.0" type="line"/>
      <point x="313.49666666666667" y="0.0" type="line"/>
      <point x="442.8233333333334" y="1278.0" type="line"/>
      <point x="234.76333333333335" y="1278.0" type="line"/>
    </contour>
    <contour>
      <point x="35.03333333333333" y="294.50333333333333" type="line"/>
      <point x="820.0366666666667" y="294.50333333333333" type="line"/>
      <point x="820.0366666666667" y="493.4733333333333" type="line"/>
      <point x="35.03333333333333" y="493.4733333333333" type="line"/>
    </contour>
    <contour>
      <point x="456.03333333333336" y="0.0" type="line"/>
      <point x="664.79" y="0.0" type="line"/>
      <point x="792.42" y="1278.0" type="line"/>
      <point x="584.3599999999999" y="1278.0" type="line"/>
    </contour>
    <contour>
      <point x="79.82000000000001" y="787.0433333333333" type="line"/>
      <point x="862.8233333333333" y="787.0433333333333" type="line"/>
      <point x="862.8233333333333" y="985.3166666666667" type="line"/>
      <point x="79.82000000000001" y="985.3166666666667" type="line"/>
    </contour>
  </outline>
</glyph>
<glyph name="dollar" format="2">
  <advance width="689.5766666666667"/>
  <unicode hex="0024"/>
  <anchor x="332.1366666666667" y="0.0" name="bottom"/>
  <anchor x="332.1366666666667" y="1278.0" name="top"/>
  <outline>
    <contour>
      <point x="450.3633333333333" y="1154.02" type="line"/>
      <point x="450.3633333333333" y="1437.0333333333333" type="line"/>
      <point x="218.94333333333333" y="1437.0333333333333" type="line"/>
      <point x="218.94333333333333" y="1154.02" type="line"/>
    </contour>
    <contour>
      <point x="450.3633333333333" y="-168.03333333333333" type="line"/>
      <point x="450.3633333333333" y="135.07333333333332" type="line"/>
      <point x="218.94333333333333" y="135.07333333333332" type="line"/>
      <point x="218.94333333333333" y="-168.03333333333333" type="line"/>
    </contour>
    <component base="S"/>
  </outline>
</glyph>
<glyph name="percent" format="2">
  <advance width="1180.6766666666667"/>
  <unicode hex="0025"/>
  <outline>
    <contour>
      <point x="229.81999999999996" y="0.0" type="line"/>
      <point x="411.47333333333336" y="0.0" type="line"/>
      <point x="949.4633333333334" y="1278.0" type="line"/>
      <point x="771.2033333333333" y="1278.0" type="line"/>
    </contour>
    <contour>
      <point x="901.0133333333333" y="-23.39333333333333" type="curve" smooth="yes"/>
      <point x="1058.1599999999999" y="-23.39333333333333"/>
      <point x="1135.0366666666666" y="66.78666666666666"/>
      <point x="1135.0366666666666" y="229.45000000000002" type="curve" smooth="yes"/>
      <point x="1135.0366666666666" y="390.82" type="line" smooth="yes"/>
      <point x="1135.0366666666666" y="553.4833333333332"/>
      <point x="1058.1599999999999" y="643.6633333333333"/>
      <point x="901.0133333333333" y="643.6633333333333" type="curve" smooth="yes"/>
      <point x="743.8666666666666" y="643.6633333333333"/>
      <point x="667.2933333333333" y="553.4833333333333"/>
      <point x="667.2933333333333" y="390.82" type="curve" smooth="yes"/>
      <point x="667.2933333333333" y="229.45000000000002" type="line" smooth="yes"/>
      <point x="667.2933333333333" y="66.78666666666666"/>
      <point x="743.8666666666667" y="-23.39333333333333"/>
    </contour>
    <contour>
      <point x="901.0133333333333" y="124.29333333333334" type="curve" smooth="yes"/>
      <point x="860.3733333333333" y="124.29333333333334"/>
      <point x="845.25" y="154.41666666666666"/>
      <point x="845.25" y="220.05666666666667" type="curve" smooth="yes"/>
      <point x="845.25" y="399.2133333333333" type="line" smooth="yes"/>
      <point x="845.25" y="465.85333333333335"/>
      <point x="860.3733333333334" y="495.97666666666663"/>
      <point x="901.0133333333333" y="495.97666666666663" type="curve" smooth="yes"/>
      <point x="941.6533333333333" y="495.97666666666663"/>
      <point x="956.7766666666668" y="465.85333333333335"/>
      <point x="956.7766666666668" y="399.2133333333333" type="curve" smooth="yes"/>
      <point x="956.7766666666668" y="220.05666666666667" type="line" smooth="yes"/>
      <point x="956.7766666666668" y="154.41666666666666"/>
      <point x="941.6533333333334" y="124.29333333333334"/>
    </contour>
    <contour>
      <point x="279.66333333333336" y="631.64" type="curve" smooth="yes"/>
      <point x="436.80999999999995" y="631.64"/>
      <point x="513.3833333333333" y="721.82"/>
      <point x="513.3833333333333" y="883.4833333333333" type="curve" smooth="yes"/>
      <point x="513.3833333333333" y="1045.8533333333332" type="line" smooth="yes"/>
      <point x="513.3833333333333" y="1207.2133333333331"/>
      <point x="436.80999999999995" y="1297.3933333333332"/>
      <point x="279.66333333333336" y="1297.3933333333332" type="curve" smooth="yes"/>
      <point x="122.21333333333332" y="1297.3933333333332"/>
      <point x="45.64" y="1207.2133333333331"/>
      <point x="45.64" y="1045.8533333333332" type="curve" smooth="yes"/>
      <point x="45.64" y="883.4833333333333" type="line" smooth="yes"/>
      <point x="45.64" y="721.8199999999999"/>
      <point x="122.21333333333332" y="631.64"/>
    </contour>
    <contour>
      <point x="279.66333333333336" y="779.3266666666667" type="curve" smooth="yes"/>
      <point x="239.02333333333337" y="779.3266666666667"/>
      <point x="224.59666666666666" y="808.45"/>
      <point x="224.59666666666666" y="875.09" type="curve" smooth="yes"/>
      <point x="224.59666666666666" y="1054.2466666666667" type="line" smooth="yes"/>
      <point x="224.59666666666666" y="1120.5833333333333"/>
      <point x="239.02333333333334" y="1150.01"/>
      <point x="279.66333333333336" y="1150.01" type="curve" smooth="yes"/>
      <point x="320.0" y="1150.01"/>
      <point x="335.12333333333333" y="1120.5833333333333"/>
      <point x="335.12333333333333" y="1054.2466666666667" type="curve" smooth="yes"/>
      <point x="335.12333333333333" y="875.09" type="line" smooth="yes"/>
      <point x="335.12333333333333" y="808.45"/>
      <point x="320.0" y="779.3266666666667"/>
    </contour>
  </outline>
</glyph>
<glyph name="ampersand" format="2">
  <advance width="992.4233333333333"/>
  <unicode hex="0026"/>
  <outline>
    <contour>
      <point x="741.9466666666666" y="0.6966666666666667" type="curve"/>
      <point x="1010.4233333333334" y="0.6966666666666667" type="line"/>
      <point x="1010.4233333333334" y="17.27" type="line"/>
      <point x="912.9833333333333" y="164.37333333333333"/>
      <point x="830.8266666666667" y="287.08"/>
      <point x="741.96" y="407.76666666666665" type="curve"/>
      <point x="693.8466666666667" y="473.1833333333333" type="line"/>
      <point x="464.14" y="800.45" type="line" smooth="yes"/>
      <point x="415.80333333333334" y="869.4266666666666"/>
      <point x="395.7133333333333" y="911.8866666666667"/>
      <point x="395.7133333333333" y="960.0766666666666" type="curve" smooth="yes"/>
      <point x="395.7133333333333" y="963.9866666666667" type="line" smooth="yes"/>
      <point x="395.7133333333333" y="1024.3566666666668"/>
      <point x="434.62333333333333" y="1059.2433333333333"/>
      <point x="511.38666666666666" y="1059.2433333333333" type="curve" smooth="yes"/>
      <point x="583.1733333333334" y="1059.2433333333333"/>
      <point x="642.4433333333334" y="1038.7266666666667"/>
      <point x="685.7466666666667" y="1017.0866666666667" type="curve"/>
      <point x="673.6566666666666" y="1245.7866666666666" type="line"/>
      <point x="618.4200000000001" y="1275.09"/>
      <point x="535.7" y="1299.09"/>
      <point x="428.49666666666667" y="1299.09" type="curve" smooth="yes"/>
      <point x="233.98999999999998" y="1299.09"/>
      <point x="116.48333333333333" y="1184.2133333333331"/>
      <point x="116.48333333333333" y="1004.82" type="curve" smooth="yes"/>
      <point x="116.48333333333333" y="996.4266666666666" type="line" smooth="yes"/>
      <point x="116.48333333333333" y="880.1566666666668"/>
      <point x="156.66333333333336" y="805.1566666666668"/>
      <point x="234.5066666666667" y="699.1" type="curve"/>
      <point x="277.34999999999997" y="640.2566666666667" type="line"/>
      <point x="559.6866666666667" y="252.05666666666667" type="line"/>
      <point x="591.4066666666668" y="219.60666666666665" type="line"/>
      <point x="634.7333333333333" y="159.49333333333334"/>
      <point x="698.0133333333333" y="66.11333333333333"/>
    </contour>
    <contour>
      <point x="383.53000000000003" y="-21.09" type="curve" smooth="yes"/>
      <point x="552.8666666666667" y="-21.09"/>
      <point x="628.6199999999999" y="47.459999999999994"/>
      <point x="694.3166666666666" y="166.71666666666667" type="curve"/>
      <point x="798.3766666666667" y="274.45" type="line"/>
      <point x="895.7266666666667" y="420.53999999999996"/>
      <point x="933.6933333333334" y="619.3266666666666"/>
      <point x="940.9966666666668" y="831.6966666666667" type="curve"/>
      <point x="691.1500000000001" y="831.6966666666667" type="line"/>
      <point x="689.6333333333333" y="688.0133333333333"/>
      <point x="676.8466666666667" y="550.1933333333333"/>
      <point x="633.61" y="443.21666666666664" type="curve"/>
      <point x="554.3266666666667" y="317.2366666666667" type="line"/>
      <point x="529.8666666666667" y="253.03666666666666"/>
      <point x="493.01333333333326" y="212.33"/>
      <point x="415.8566666666666" y="212.33" type="curve" smooth="yes"/>
      <point x="337.21666666666664" y="212.33"/>
      <point x="299.3966666666667" y="264.36333333333334"/>
      <point x="299.3966666666667" y="359.1933333333334" type="curve" smooth="yes"/>
      <point x="299.3966666666667" y="424.28000000000003" type="line" smooth="yes"/>
      <point x="299.3966666666667" y="495.16666666666663"/>
      <point x="308.2166666666667" y="537.8066666666667"/>
      <point x="355.15999999999997" y="570.48" type="curve"/>
      <point x="221.7533333333333" y="763.8766666666667" type="line"/>
      <point x="92.42666666666668" y="680.27"/>
      <point x="42.67333333333334" y="575.91"/>
      <point x="42.67333333333334" y="415.9433333333333" type="curve" smooth="yes"/>
      <point x="42.67333333333334" y="344.92333333333335" type="line" smooth="yes"/>
      <point x="42.67333333333334" y="107.23666666666666"/>
      <point x="154.57333333333332" y="-21.09"/>
    </contour>
  </outline>
</glyph>
<glyph name="quotesingle" format="2">
  <advance width="337.6766666666667"/>
  <unicode hex="0027"/>
  <outline>
    <contour>
      <point x="268.6433333333333" y="838.56" type="line"/>
      <point x="293.00333333333333" y="1325.5166666666667" type="line"/>
      <point x="44.67333333333333" y="1325.5166666666667" type="line"/>
      <point x="69.33666666666666" y="838.56" type="line"/>
    </contour>
  </outline>
</glyph>
<glyph name="parenleft" format="2">
  <advance width="491.0033333333334"/>
  <unicode hex="0028"/>
  <outline>
    <contour>
      <point x="326.97" y="615.8966666666668" type="line" smooth="yes"/>
      <point x="326.97" y="924.6500000000001"/>
      <point x="381.59999999999997" y="1136.8533333333332"/>
      <point x="487.63333333333327" y="1352.0" type="curve"/>
      <point x="223.76333333333332" y="1352.0" type="line"/>
      <point x="126.03333333333333" y="1164.82"/>
      <point x="71.1" y="947.4366666666667"/>
      <point x="71.1" y="624.2900000000001" type="curve" smooth="yes"/>
      <point x="71.1" y="486.71" type="line" smooth="yes"/>
      <point x="71.1" y="163.17"/>
      <point x="126.03333333333332" y="-52.123333333333335"/>
      <point x="223.76333333333332" y="-239.3033333333333" type="curve"/>
      <point x="487.63333333333327" y="-239.3033333333333" type="line"/>
      <point x="381.59999999999997" y="-28.246666666666666"/>
      <point x="326.97" y="183.95666666666665"/>
      <point x="326.97" y="495.4066666666667" type="curve" smooth="yes"/>
    </contour>
  </outline>
</glyph>
<glyph name="parenright" format="2">
  <advance width="491.0033333333334"/>
  <unicode hex="0029"/>
  <outline>
    <contour>
      <point x="164.03333333333333" y="615.8966666666668" type="curve" smooth="yes"/>
      <point x="164.03333333333333" y="495.4066666666667" type="line" smooth="yes"/>
      <point x="164.03333333333333" y="183.95666666666665"/>
      <point x="109.40333333333334" y="-28.246666666666666"/>
      <point x="3.370000000000001" y="-239.3033333333333" type="curve"/>
      <point x="267.24" y="-239.3033333333333" type="line"/>
      <point x="364.97" y="-52.123333333333335"/>
      <point x="419.90333333333336" y="163.17"/>
      <point x="419.90333333333336" y="486.71" type="curve" smooth="yes"/>
      <point x="419.90333333333336" y="624.2900000000001" type="line" smooth="yes"/>
      <point x="419.90333333333336" y="947.4366666666667"/>
      <point x="364.96999999999997" y="1164.82"/>
      <point x="267.24" y="1352.0" type="curve"/>
      <point x="3.370000000000001" y="1352.0" type="line"/>
      <point x="109.40333333333334" y="1136.8533333333332"/>
      <point x="164.03333333333333" y="924.6500000000001"/>
    </contour>
  </outline>
</glyph>
<glyph name="asterisk" format="2">
  <advance width="646.1133333333333"/>
  <unicode hex="002A"/>
  <outline>
    <contour>
      <point x="234.6533333333333" y="667.8066666666667" type="line"/>
      <point x="320.0566666666667" y="827.57" type="line"/>
      <point x="325.45" y="827.57" type="line"/>
      <point x="410.85333333333335" y="667.8066666666667" type="line"/>
      <point x="581.8000000000001" y="779.4266666666666" type="line"/>
      <point x="464.25" y="917.8633333333333" type="line"/>
      <point x="465.25" y="923.9533333333334" type="line"/>
      <point x="618.5633333333334" y="948.9300000000001" type="line"/>
      <point x="572.9333333333333" y="1156.99" type="line"/>
      <point x="413.62" y="1097.4733333333334" type="line"/>
      <point x="410.2266666666667" y="1100.8666666666666" type="line"/>
      <point x="437.07" y="1278.0" type="line"/>
      <point x="209.04333333333332" y="1278.0" type="line"/>
      <point x="234.88666666666666" y="1100.8666666666666" type="line"/>
      <point x="231.49333333333334" y="1097.4733333333334" type="line"/>
      <point x="72.87666666666667" y="1156.99" type="line"/>
      <point x="27.549999999999997" y="948.9300000000001" type="line"/>
      <point x="180.56" y="923.9533333333334" type="line"/>
      <point x="182.25666666666666" y="917.8633333333333" type="line"/>
      <point x="64.01" y="779.4266666666666" type="line"/>
    </contour>
  </outline>
</glyph>
<glyph name="plus" format="2">
  <advance width="713.89"/>
  <unicode hex="002B"/>
  <outline>
    <contour>
      <point x="472.7" y="302.03333333333336" type="line"/>
      <point x="472.7" y="970.9666666666666" type="line"/>
      <point x="241.88666666666666" y="970.9666666666666" type="line"/>
      <point x="241.88666666666666" y="302.03333333333336" type="line"/>
    </contour>
    <contour>
      <point x="54.21333333333333" y="524.9866666666668" type="line"/>
      <point x="659.6766666666666" y="524.9866666666668" type="line"/>
      <point x="659.6766666666666" y="748.0133333333333" type="line"/>
      <point x="54.21333333333333" y="748.0133333333333" type="line"/>
    </contour>
  </outline>
</glyph>
<glyph name="comma" format="2">
  <advance width="372.21666666666664"/>
  <unicode hex="002C"/>
  <outline>
    <contour>
      <point x="310.66666666666663" y="326.4633333333333" type="curve"/>
      <point x="63.85333333333333" y="326.4633333333333" type="line"/>
      <point x="67.85333333333332" y="275.49666666666667"/>
      <point x="69.85333333333332" y="238.58666666666667"/>
      <point x="69.85333333333332" y="191.79999999999998" type="curve" smooth="yes"/>
      <point x="69.85333333333332" y="42.74333333333333"/>
      <point x="37.15666666666666" y="-70.34666666666666"/>
      <point x="-13.450000000000001" y="-170.13333333333333" type="curve"/>
      <point x="165.07" y="-217.40333333333334" type="line"/>
      <point x="274.39666666666665" y="-92.83"/>
      <point x="319.66666666666663" y="41.83333333333333"/>
      <point x="319.66666666666663" y="202.98000000000002" type="curve" smooth="yes"/>
      <point x="319.66666666666663" y="251.67666666666668"/>
      <point x="315.3633333333333" y="290.8"/>
    </contour>
  </outline>
</glyph>
<glyph name="hyphen" format="2">
  <advance width="568.82"/>
  <unicode hex="002D"/>
  <outline>
    <contour>
      <point x="70.28" y="391.05333333333334" type="line"/>
      <point x="498.54" y="391.05333333333334" type="line"/>
      <point x="498.54" y="615.3833333333333" type="line"/>
      <point x="70.28" y="615.3833333333333" type="line"/>
    </contour>
  </outline>
</glyph>
<glyph name="period" format="2">
  <advance width="369.06"/>
  <unicode hex="002E"/>
  <outline>
    <contour>
      <point x="184.53" y="-23.573333333333334" type="curve" smooth="yes"/>
      <point x="276.79" y="-23.573333333333334"/>
      <point x="324.81333333333333" y="35.45"/>
      <point x="324.81333333333333" y="139.92333333333332" type="curve" smooth="yes"/>
      <point x="324.81333333333333" y="156.92333333333332" type="line" smooth="yes"/>
      <point x="324.81333333333333" y="259.7"/>
      <point x="276.79" y="320.1166666666667"/>
      <point x="184.53" y="320.1166666666667" type="curve" smooth="yes"/>
      <point x="88.57333333333334" y="320.1166666666667"/>
      <point x="44.24666666666667" y="259.7"/>
      <point x="44.24666666666667" y="156.92333333333332" type="curve" smooth="yes"/>
      <point x="44.24666666666667" y="139.92333333333332" type="line" smooth="yes"/>
      <point x="44.24666666666667" y="35.45"/>
      <point x="88.57333333333334" y="-23.573333333333334"/>
    </contour>
  </outline>
</glyph>
<glyph name="slash" format="2">
  <advance width="589.8566666666667"/>
  <unicode hex="002F"/>
  <outline>
    <contour>
      <point x="7.583333333333336" y="-239.30333333333334" type="line"/>
      <point x="244.91333333333333" y="-239.30333333333334" type="line"/>
      <point x="582.2733333333333" y="1352.0" type="line"/>
      <point x="345.2466666666666" y="1352.0" type="line"/>
    </contour>
  </outline>
</glyph>
<glyph name="zero" format="2">
  <advance width="861.6233333333333"/>
  <unicode hex="0030"/>
  <outline>
    <contour>
      <point x="430.4633333333333" y="-21.09" type="curve" smooth="yes"/>
      <point x="676.3533333333334" y="-21.09"/>
      <point x="799.3433333333335" y="116.72"/>
      <point x="799.3433333333335" y="390.43" type="curve"/>
      <point x="799.3433333333335" y="887.57" type="line"/>
      <point x="799.3433333333335" y="1159.8866666666665"/>
      <point x="676.3533333333334" y="1299.0900000000001"/>
      <point x="430.4633333333333" y="1299.0900000000001" type="curve" smooth="yes"/>
      <point x="184.26999999999998" y="1299.0900000000001"/>
      <point x="62.28" y="1159.8866666666665"/>
      <point x="62.28" y="887.57" type="curve"/>
      <point x="62.28" y="390.43" type="line"/>
      <point x="62.28" y="116.72"/>
      <point x="184.26999999999998" y="-21.09"/>
    </contour>
    <contour>
      <point x="430.4633333333333" y="211.02666666666667" type="curve" smooth="yes"/>
      <point x="364.6666666666667" y="211.02666666666667"/>
      <point x="341.20666666666665" y="258.4866666666667"/>
      <point x="341.20666666666665" y="367.37333333333333" type="curve" smooth="yes"/>
      <point x="341.20666666666665" y="910.93" type="line" smooth="yes"/>
      <point x="341.20666666666665" y="1019.5133333333333"/>
      <point x="364.6666666666667" y="1067.2766666666669"/>
      <point x="430.4633333333333" y="1067.2766666666669" type="curve" smooth="yes"/>
      <point x="496.25999999999993" y="1067.2766666666669"/>
      <point x="520.4166666666667" y="1019.5133333333333"/>
      <point x="520.4166666666667" y="910.93" type="curve" smooth="yes"/>
      <point x="520.4166666666667" y="367.37333333333333" type="line" smooth="yes"/>
      <point x="520.4166666666667" y="258.4866666666667"/>
      <point x="496.25999999999993" y="211.02666666666667"/>
    </contour>
  </outline>
</glyph>
<glyph name="one" format="2">
  <advance width="567.1833333333333"/>
  <unicode hex="0031"/>
  <outline>
    <contour>
      <point x="214.37000000000003" y="0.0" type="line"/>
      <point x="488.20666666666665" y="0.0" type="line"/>
      <point x="488.20666666666665" y="1278.0" type="line"/>
      <point x="259.2033333333334" y="1278.0" type="line"/>
      <point x="25.089999999999996" y="1138.53" type="line"/>
      <point x="19.516666666666666" y="850.7833333333333" type="line"/>
      <point x="200.28000000000003" y="963.1966666666666" type="line"/>
      <point x="214.37000000000003" y="963.1966666666666" type="line"/>
    </contour>
  </outline>
</glyph>
<glyph name="two" format="2">
  <advance width="673.6333333333334"/>
  <unicode hex="0032"/>
  <outline>
    <contour>
      <point x="36.42666666666666" y="0.0" type="line"/>
      <point x="635.0833333333333" y="0.0" type="line"/>
      <point x="635.0833333333333" y="245.69000000000003" type="line"/>
      <point x="191.76666666666668" y="245.69000000000003" type="line"/>
      <point x="314.74666666666667" y="210.81333333333333" type="line"/>
      <point x="314.74666666666667" y="255.78" type="line"/>
      <point x="451.99333333333334" y="473.7766666666667" type="line" smooth="yes"/>
      <point x="564.78" y="651.0333333333334"/>
      <point x="630.8699999999999" y="770.64"/>
      <point x="630.8699999999999" y="927.37" type="curve" smooth="yes"/>
      <point x="630.8699999999999" y="955.4933333333333" type="line" smooth="yes"/>
      <point x="630.8699999999999" y="1164.55"/>
      <point x="523.7566666666667" y="1297.3933333333334"/>
      <point x="304.49666666666667" y="1297.3933333333334" type="curve" smooth="yes"/>
      <point x="194.89999999999998" y="1297.3933333333334"/>
      <point x="113.45000000000002" y="1263.6066666666668"/>
      <point x="62.39333333333333" y="1227.73" type="curve"/>
      <point x="46.21333333333334" y="988.9733333333334" type="line"/>
      <point x="93.51666666666667" y="1019.7933333333333"/>
      <point x="151.00000000000003" y="1050.49"/>
      <point x="224.09000000000003" y="1050.49" type="curve" smooth="yes"/>
      <point x="311.72999999999996" y="1050.49"/>
      <point x="355.03333333333336" y="1004.12"/>
      <point x="355.03333333333336" y="913.2" type="curve" smooth="yes"/>
      <point x="355.03333333333336" y="890.74" type="line" smooth="yes"/>
      <point x="355.03333333333336" y="812.6966666666667"/>
      <point x="324.51666666666665" y="746.5633333333334"/>
      <point x="245.93333333333334" y="613.33" type="curve" smooth="yes"/>
      <point x="36.42666666666666" y="265.87" type="line"/>
    </contour>
  </outline>
</glyph>
<glyph name="three" format="2">
  <advance width="680.7566666666668"/>
  <unicode hex="0033"/>
  <outline>
    <contour>
      <point x="287.35" y="-19.393333333333334" type="curve" smooth="yes"/>
      <point x="530.5766666666667" y="-19.393333333333334"/>
      <point x="638.0833333333334" y="119.23666666666666"/>
      <point x="638.0833333333334" y="330.56333333333333" type="curve" smooth="yes"/>
      <point x="638.0833333333334" y="383.09999999999997" type="line" smooth="yes"/>
      <point x="638.0833333333334" y="544.0"/>
      <point x="576.5433333333333" y="634.3033333333333"/>
      <point x="417.0366666666667" y="657.5166666666667" type="curve"/>
      <point x="428.91333333333336" y="624.8866666666667" type="line"/>
      <point x="428.91333333333336" y="666.2133333333334" type="line"/>
      <point x="563.3633333333333" y="692.2133333333333"/>
      <point x="632.0833333333334" y="778.7299999999999"/>
      <point x="632.0833333333334" y="937.4166666666666" type="curve" smooth="yes"/>
      <point x="632.0833333333334" y="980.5833333333334" type="line" smooth="yes"/>
      <point x="632.0833333333334" y="1177.6399999999999"/>
      <point x="532.97" y="1297.6966666666667"/>
      <point x="311.0133333333333" y="1297.6966666666667" type="curve" smooth="yes"/>
      <point x="196.20333333333335" y="1297.6966666666667"/>
      <point x="113.05666666666666" y="1266.91"/>
      <point x="58.08999999999999" y="1234.2133333333334" type="curve"/>
      <point x="41.910000000000004" y="999.76" type="line"/>
      <point x="93.60666666666667" y="1026.9733333333334"/>
      <point x="155.60666666666665" y="1053.1866666666665"/>
      <point x="232.87666666666667" y="1053.1866666666665" type="curve" smooth="yes"/>
      <point x="323.72999999999996" y="1053.1866666666665"/>
      <point x="357.94333333333327" y="1005.8166666666666"/>
      <point x="357.94333333333327" y="920.6833333333334" type="curve" smooth="yes"/>
      <point x="357.94333333333327" y="899.3366666666666" type="line" smooth="yes"/>
      <point x="357.94333333333327" y="811.3266666666666"/>
      <point x="315.72999999999996" y="770.7433333333333"/>
      <point x="210.05666666666667" y="765.7433333333333" type="curve" smooth="yes"/>
      <point x="132.96666666666667" y="762.0466666666667" type="line"/>
      <point x="132.96666666666667" y="527.5366666666666" type="line"/>
      <point x="209.7533333333333" y="524.5366666666666" type="line" smooth="yes"/>
      <point x="319.21333333333325" y="520.2333333333333"/>
      <point x="359.1566666666667" y="481.38000000000005"/>
      <point x="359.1566666666667" y="390.3366666666667" type="curve" smooth="yes"/>
      <point x="359.1566666666667" y="360.31666666666666" type="line" smooth="yes"/>
      <point x="359.1566666666667" y="272.79"/>
      <point x="326.03333333333336" y="227.81333333333336"/>
      <point x="222.99999999999997" y="227.81333333333336" type="curve" smooth="yes"/>
      <point x="151.6966666666667" y="227.81333333333336"/>
      <point x="88.60666666666665" y="254.42"/>
      <point x="31.516666666666673" y="287.24" type="curve"/>
      <point x="47.696666666666665" y="41.39333333333333" type="line"/>
      <point x="98.27" y="9.303333333333333"/>
      <point x="189.89999999999998" y="-19.393333333333334"/>
    </contour>
  </outline>
</glyph>
<glyph name="four" format="2">
  <advance width="807.1066666666666"/>
  <unicode hex="0034"/>
  <outline>
    <contour>
      <point x="435.47333333333336" y="0.0" type="line"/>
      <point x="685.3766666666667" y="0.0" type="line"/>
      <point x="685.3766666666667" y="1278.0" type="line"/>
      <point x="248.65" y="1278.0" type="line"/>
      <point x="35.30333333333333" y="449.52" type="line"/>
      <point x="35.30333333333333" y="206.85333333333335" type="line"/>
      <point x="780.1066666666666" y="206.85333333333335" type="line"/>
      <point x="780.1066666666666" y="430.12666666666667" type="line"/>
      <point x="165.89" y="430.12666666666667" type="line"/>
      <point x="275.6333333333333" y="353.44" type="line"/>
      <point x="275.6333333333333" y="440.12666666666667" type="line"/>
      <point x="428.9566666666667" y="1091.48" type="line"/>
      <point x="446.5633333333333" y="1091.48" type="line"/>
      <point x="435.47333333333336" y="712.4433333333333" type="line"/>
    </contour>
  </outline>
</glyph>
<glyph name="five" format="2">
  <advance width="744.7233333333334"/>
  <unicode hex="0035"/>
  <outline>
    <contour>
      <point x="325.17" y="-18.303333333333335" type="curve" smooth="yes"/>
      <point x="591.33" y="-18.303333333333335"/>
      <point x="695.4433333333333" y="122.81"/>
      <point x="695.4433333333333" y="387.43" type="curve" smooth="yes"/>
      <point x="695.4433333333333" y="504.7300000000001" type="line" smooth="yes"/>
      <point x="695.4433333333333" y="715.9333333333334"/>
      <point x="642.8366666666667" y="836.2933333333333"/>
      <point x="502.0833333333333" y="836.2933333333333" type="curve" smooth="yes"/>
      <point x="395.84666666666664" y="836.2933333333333"/>
      <point x="347.36333333333334" y="780.2366666666667"/>
      <point x="327.15000000000003" y="677.8533333333332" type="curve"/>
      <point x="316.06" y="677.8533333333332" type="line"/>
      <point x="320.06" y="848.37" type="line"/>
      <point x="320.06" y="1035.7933333333333" type="line"/>
      <point x="655.2066666666666" y="1035.7933333333333" type="line"/>
      <point x="655.2066666666666" y="1278.0" type="line"/>
      <point x="67.24666666666667" y="1278.0" type="line"/>
      <point x="67.24666666666667" y="519.6833333333333" type="line"/>
      <point x="312.66666666666663" y="496.02" type="line"/>
      <point x="316.61" y="568.1433333333333"/>
      <point x="330.15999999999997" y="609.3566666666667"/>
      <point x="374.2266666666667" y="609.3566666666667" type="curve" smooth="yes"/>
      <point x="418.7199999999999" y="609.3566666666667"/>
      <point x="432.45000000000005" y="571.8633333333333"/>
      <point x="432.45000000000005" y="492.06666666666666" type="curve" smooth="yes"/>
      <point x="432.45000000000005" y="386.34" type="line" smooth="yes"/>
      <point x="432.45000000000005" y="276.06"/>
      <point x="391.54" y="228.29666666666665"/>
      <point x="279.0566666666667" y="228.29666666666665" type="curve" smooth="yes"/>
      <point x="195.09" y="228.29666666666665"/>
      <point x="120.72999999999999" y="257.6"/>
      <point x="61.550000000000004" y="291.1166666666666" type="curve"/>
      <point x="78.42666666666666" y="42.483333333333334" type="line"/>
      <point x="131.09" y="12.393333333333334"/>
      <point x="214.23666666666668" y="-18.303333333333335"/>
    </contour>
  </outline>
</glyph>
<glyph name="six" format="2">
  <advance width="808.5666666666667"/>
  <unicode hex="0036"/>
  <outline>
    <contour>
      <point x="409.1933333333334" y="-20.0" type="curve" smooth="yes"/>
      <point x="645.2966666666667" y="-20.0"/>
      <point x="760.1966666666666" y="112.50666666666666"/>
      <point x="760.1966666666666" y="371.52" type="curve" smooth="yes"/>
      <point x="760.1966666666666" y="474.22333333333336" type="line" smooth="yes"/>
      <point x="760.1966666666666" y="707.4833333333333"/>
      <point x="700.2866666666666" y="838.8100000000001"/>
      <point x="537.6566666666666" y="838.8100000000001" type="curve" smooth="yes"/>
      <point x="403.06" y="838.8100000000001"/>
      <point x="353.8466666666667" y="750.6400000000001"/>
      <point x="338.7233333333333" y="654.4933333333333" type="curve"/>
      <point x="289.57666666666665" y="654.4933333333333" type="line"/>
      <point x="324.93666666666667" y="518.8866666666667" type="line"/>
      <point x="334.06" y="576.1666666666666"/>
      <point x="363.21666666666664" y="614.9633333333334"/>
      <point x="415.89" y="614.9633333333334" type="curve" smooth="yes"/>
      <point x="477.7766666666667" y="614.9633333333334"/>
      <point x="497.72" y="567.8966666666666"/>
      <point x="497.72" y="468.01" type="curve" smooth="yes"/>
      <point x="497.72" y="365.43" type="line" smooth="yes"/>
      <point x="497.72" y="258.6666666666667"/>
      <point x="476.8666666666667" y="212.11666666666667"/>
      <point x="413.6766666666667" y="212.11666666666667" type="curve" smooth="yes"/>
      <point x="349.4866666666667" y="212.11666666666667"/>
      <point x="328.33" y="258.6666666666667"/>
      <point x="328.33" y="365.42999999999995" type="curve"/>
      <point x="328.33" y="825.0633333333333" type="line" smooth="yes"/>
      <point x="328.33" y="986.94"/>
      <point x="383.41999999999996" y="1051.8833333333334"/>
      <point x="515.8133333333334" y="1051.8833333333334" type="curve" smooth="yes"/>
      <point x="598.3866666666667" y="1051.8833333333334"/>
      <point x="659.5666666666667" y="1027.2766666666666"/>
      <point x="707.5666666666665" y="1002.2433333333333" type="curve"/>
      <point x="687.9933333333333" y="1242.5733333333333" type="line"/>
      <point x="640.4200000000001" y="1267.7866666666666"/>
      <point x="557.97" y="1296.3933333333334"/>
      <point x="447.34" y="1296.3933333333334" type="curve" smooth="yes"/>
      <point x="188.36" y="1296.3933333333334"/>
      <point x="59.58333333333333" y="1138.4033333333332"/>
      <point x="59.58333333333333" y="846.12" type="curve" smooth="yes"/>
      <point x="59.58333333333333" y="380.00333333333333" type="line" smooth="yes"/>
      <point x="59.58333333333333" y="112.50666666666667"/>
      <point x="174.78666666666666" y="-20.0"/>
    </contour>
  </outline>
</glyph>
<glyph name="seven" format="2">
  <advance width="668.9033333333333"/>
  <unicode hex="0037"/>
  <outline>
    <contour>
      <point x="90.76333333333334" y="0.0" type="line"/>
      <point x="373.38666666666666" y="0.0" type="line"/>
      <point x="631.2066666666667" y="1020.7366666666667" type="line"/>
      <point x="631.2066666666667" y="1278.0" type="line"/>
      <point x="29.516666666666666" y="1278.0" type="line"/>
      <point x="29.516666666666666" y="1031.31" type="line"/>
      <point x="357.85333333333335" y="1031.31" type="line"/>
    </contour>
  </outline>
</glyph>
<glyph name="eight" format="2">
  <advance width="799.42"/>
  <unicode hex="0038"/>
  <outline>
    <contour>
      <point x="399.71000000000004" y="-23.39333333333333" type="curve" smooth="yes"/>
      <point x="647.4200000000001" y="-23.39333333333333"/>
      <point x="754.7466666666667" y="104.84333333333333"/>
      <point x="754.7466666666667" y="322.77666666666664" type="curve" smooth="yes"/>
      <point x="754.7466666666667" y="374.06666666666666" type="line" smooth="yes"/>
      <point x="754.7466666666667" y="535.7866666666666"/>
      <point x="703.3533333333334" y="626.1233333333333"/>
      <point x="584.6233333333333" y="666.3933333333333" type="curve"/>
      <point x="584.6233333333333" y="675.1800000000001" type="line"/>
      <point x="694.6566666666666" y="712.7533333333333"/>
      <point x="745.4433333333333" y="791.6066666666667"/>
      <point x="745.4433333333333" y="930.6633333333334" type="curve" smooth="yes"/>
      <point x="745.4433333333333" y="974.7966666666667" type="line" smooth="yes"/>
      <point x="745.4433333333333" y="1179.9433333333334"/>
      <point x="644.51" y="1300.7866666666666"/>
      <point x="399.71000000000004" y="1300.7866666666666" type="curve" smooth="yes"/>
      <point x="157.3033333333333" y="1300.7866666666666"/>
      <point x="53.97666666666666" y="1179.9433333333334"/>
      <point x="53.97666666666666" y="974.7966666666667" type="curve" smooth="yes"/>
      <point x="53.97666666666666" y="923.6966666666667" type="line" smooth="yes"/>
      <point x="53.97666666666666" y="788.2133333333334"/>
      <point x="104.76333333333334" y="711.0566666666666"/>
      <point x="214.79666666666665" y="675.1800000000001" type="curve"/>
      <point x="214.79666666666665" y="666.3933333333333" type="line"/>
      <point x="96.06666666666668" y="627.5166666666667"/>
      <point x="44.67333333333333" y="535.7866666666667"/>
      <point x="44.67333333333333" y="374.06666666666666" type="curve" smooth="yes"/>
      <point x="44.67333333333333" y="322.77666666666664" type="line" smooth="yes"/>
      <point x="44.67333333333333" y="104.84333333333333"/>
      <point x="152.0" y="-23.39333333333333"/>
    </contour>
    <contour>
      <point x="399.71000000000004" y="196.88" type="curve" smooth="yes"/>
      <point x="331.9133333333333" y="196.88"/>
      <point x="308.4533333333333" y="242.64333333333335"/>
      <point x="308.4533333333333" y="330.6533333333333" type="curve" smooth="yes"/>
      <point x="308.4533333333333" y="408.1466666666667" type="line" smooth="yes"/>
      <point x="308.4533333333333" y="491.46"/>
      <point x="334.60999999999996" y="529.3133333333334"/>
      <point x="399.7099999999999" y="546.56" type="curve"/>
      <point x="464.2033333333334" y="532.4033333333333"/>
      <point x="490.96666666666664" y="491.7633333333333"/>
      <point x="490.96666666666664" y="408.1466666666667" type="curve" smooth="yes"/>
      <point x="490.96666666666664" y="330.6533333333333" type="line" smooth="yes"/>
      <point x="490.96666666666664" y="242.64333333333335"/>
      <point x="467.50666666666666" y="196.88"/>
    </contour>
    <contour>
      <point x="399.71000000000004" y="751.2033333333333" type="curve"/>
      <point x="338.12666666666667" y="768.7533333333333"/>
      <point x="312.18333333333334" y="808.7866666666666"/>
      <point x="312.18333333333334" y="892.19" type="curve" smooth="yes"/>
      <point x="312.18333333333334" y="955.0433333333333" type="line" smooth="yes"/>
      <point x="312.18333333333334" y="1041.1433333333332"/>
      <point x="335.43" y="1087.3899999999999"/>
      <point x="399.71000000000004" y="1087.3899999999999" type="curve" smooth="yes"/>
      <point x="464.29333333333335" y="1087.3899999999999"/>
      <point x="486.5400000000001" y="1041.1433333333332"/>
      <point x="486.5400000000001" y="955.0433333333333" type="curve" smooth="yes"/>
      <point x="486.5400000000001" y="892.1899999999999" type="line" smooth="yes"/>
      <point x="486.5400000000001" y="810.4833333333333"/>
      <point x="458.20333333333326" y="766.45"/>
    </contour>
  </outline>
</glyph>
<glyph name="nine" format="2">
  <advance width="807.8700000000001"/>
  <unicode hex="0039"/>
  <outline>
    <contour>
      <point x="398.6766666666667" y="1296.3933333333334" type="curve" smooth="yes"/>
      <point x="163.27" y="1296.3933333333334"/>
      <point x="48.370000000000005" y="1163.19"/>
      <point x="48.370000000000005" y="904.1766666666666" type="curve" smooth="yes"/>
      <point x="48.370000000000005" y="793.2933333333334" type="line" smooth="yes"/>
      <point x="48.370000000000005" y="565.8199999999999"/>
      <point x="108.28000000000002" y="437.5833333333333"/>
      <point x="276.48333333333335" y="437.5833333333333" type="curve" smooth="yes"/>
      <point x="400.63" y="437.5833333333333"/>
      <point x="452.62999999999994" y="511.12333333333333"/>
      <point x="469.1466666666667" y="621.2033333333334" type="curve"/>
      <point x="557.3066666666666" y="621.2033333333334" type="line"/>
      <point x="481.54" y="749.9333333333333" type="line"/>
      <point x="472.4166666666667" y="698.5300000000001"/>
      <point x="443.26" y="661.4300000000001"/>
      <point x="391.28333333333325" y="661.4300000000001" type="curve" smooth="yes"/>
      <point x="330.0933333333333" y="661.4300000000001"/>
      <point x="310.15000000000003" y="707.4966666666667"/>
      <point x="310.15000000000003" y="807.0799999999999" type="curve" smooth="yes"/>
      <point x="310.15000000000003" y="910.2666666666667" type="line" smooth="yes"/>
      <point x="310.15000000000003" y="1017.7266666666666"/>
      <point x="331.0033333333334" y="1064.2766666666666"/>
      <point x="394.1933333333334" y="1064.2766666666666" type="curve" smooth="yes"/>
      <point x="458.3833333333334" y="1064.2766666666666"/>
      <point x="479.5400000000001" y="1017.7266666666667"/>
      <point x="479.5400000000001" y="910.2666666666667" type="curve"/>
      <point x="479.5400000000001" y="442.97" type="line" smooth="yes"/>
      <point x="479.5400000000001" y="287.36333333333334"/>
      <point x="422.66333333333336" y="223.81333333333333"/>
      <point x="287.2133333333333" y="223.81333333333333" type="curve" smooth="yes"/>
      <point x="206.51666666666665" y="223.81333333333333"/>
      <point x="147.91" y="248.42000000000002"/>
      <point x="100.30333333333334" y="273.4533333333333" type="curve"/>
      <point x="119.87666666666667" y="31.0" type="line"/>
      <point x="165.35999999999999" y="6.393333333333334"/>
      <point x="244.32666666666665" y="-20.0"/>
      <point x="349.3833333333333" y="-20.0" type="curve" smooth="yes"/>
      <point x="616.0266666666666" y="-20.0"/>
      <point x="748.2866666666667" y="137.29333333333335"/>
      <point x="748.2866666666667" y="428.18333333333334" type="curve" smooth="yes"/>
      <point x="748.2866666666667" y="896.39" type="line" smooth="yes"/>
      <point x="748.2866666666667" y="1163.1899999999998"/>
      <point x="636.5666666666666" y="1296.3933333333334"/>
    </contour>
  </outline>
</glyph>
<glyph name="less" format="2">
  <advance width="721.17"/>
  <unicode hex="003C"/>
  <outline>
    <contour>
      <point x="227.07" y="644.6966666666667" type="line"/>
      <point x="658.2833333333333" y="724.3466666666667" type="line"/>
      <point x="658.2833333333333" y="947.1933333333333" type="line"/>
      <point x="54.21333333333333" y="810.61" type="line"/>
      <point x="54.21333333333333" y="464.08666666666664" type="line"/>
      <point x="658.2833333333333" y="327.50333333333333" type="line"/>
      <point x="658.2833333333333" y="550.3499999999999" type="line"/>
      <point x="227.07" y="629.3033333333334" type="line"/>
    </contour>
  </outline>
</glyph>
<glyph name="equal" format="2">
  <advance width="722.8666666666666"/>
  <unicode hex="003D"/>
  <outline>
    <contour>
      <point x="58.54999999999999" y="351.66" type="line"/>
      <point x="664.3166666666667" y="351.66" type="line"/>
      <point x="664.3166666666667" y="568.3266666666666" type="line"/>
      <point x="58.54999999999999" y="568.3266666666666" type="line"/>
    </contour>
    <contour>
      <point x="58.54999999999999" y="704.6733333333334" type="line"/>
      <point x="664.3166666666667" y="704.6733333333334" type="line"/>
      <point x="664.3166666666667" y="921.3399999999999" type="line"/>
      <point x="58.54999999999999" y="921.3399999999999" type="line"/>
    </contour>
  </outline>
</glyph>
<glyph name="greater" format="2">
  <advance width="721.17"/>
  <unicode hex="003E"/>
  <outline>
    <contour>
      <point x="494.09999999999997" y="644.6966666666667" type="line"/>
      <point x="494.09999999999997" y="629.3033333333334" type="line"/>
      <point x="62.88666666666666" y="550.3499999999999" type="line"/>
      <point x="62.88666666666666" y="327.50333333333333" type="line"/>
      <point x="666.9566666666667" y="464.08666666666664" type="line"/>
      <point x="666.9566666666667" y="810.61" type="line"/>
      <point x="62.88666666666666" y="947.1933333333333" type="line"/>
      <point x="62.88666666666666" y="724.3466666666667" type="line"/>
    </contour>
  </outline>
</glyph>
<glyph name="question" format="2">
  <advance width="574.9466666666666"/>
  <unicode hex="003F"/>
  <outline>
    <contour>
      <point x="125.21333333333334" y="385.0466666666666" type="line"/>
      <point x="232.72" y="428.74333333333334" type="line" smooth="yes"/>
      <point x="444.73333333333335" y="514.8333333333334"/>
      <point x="534.4533333333334" y="624.5866666666667"/>
      <point x="534.4533333333334" y="859.0933333333334" type="curve" smooth="yes"/>
      <point x="534.4533333333334" y="973.74" type="line" smooth="yes"/>
      <point x="534.4533333333334" y="1175.37"/>
      <point x="448.1266666666667" y="1299.09"/>
      <point x="256.26" y="1299.09" type="curve" smooth="yes"/>
      <point x="169.41666666666663" y="1299.09"/>
      <point x="96.36000000000001" y="1275.7866666666666"/>
      <point x="46.696666666666665" y="1249.3933333333332" type="curve"/>
      <point x="21.033333333333335" y="1020.3666666666667" type="line"/>
      <point x="63.33666666666666" y="1043.58"/>
      <point x="106.33666666666666" y="1059.49"/>
      <point x="155.1566666666667" y="1059.49" type="curve" smooth="yes"/>
      <point x="236.4933333333333" y="1059.49"/>
      <point x="266.70666666666665" y="1012.85"/>
      <point x="266.70666666666665" y="926.93" type="curve" smooth="yes"/>
      <point x="266.70666666666665" y="854.7" type="line" smooth="yes"/>
      <point x="266.70666666666665" y="757.9599999999999"/>
      <point x="249.58333333333331" y="715.9833333333333"/>
      <point x="163.82" y="674.2199999999999" type="curve" smooth="yes"/>
      <point x="125.21333333333334" y="655.7033333333334" type="line"/>
    </contour>
    <contour>
      <point x="211.29333333333335" y="-24.966666666666665" type="curve" smooth="yes"/>
      <point x="303.55333333333334" y="-24.966666666666665"/>
      <point x="351.57666666666665" y="34.05666666666667"/>
      <point x="351.57666666666665" y="138.53" type="curve" smooth="yes"/>
      <point x="351.57666666666665" y="155.53" type="line" smooth="yes"/>
      <point x="351.57666666666665" y="258.3066666666667"/>
      <point x="303.55333333333334" y="318.72333333333336"/>
      <point x="211.29333333333335" y="318.72333333333336" type="curve" smooth="yes"/>
      <point x="115.33666666666667" y="318.72333333333336"/>
      <point x="71.01" y="258.3066666666667"/>
      <point x="71.01" y="155.53" type="curve" smooth="yes"/>
      <point x="71.01" y="138.53" type="line" smooth="yes"/>
      <point x="71.01" y="34.05666666666667"/>
      <point x="115.33666666666667" y="-24.966666666666665"/>
    </contour>
  </outline>
</glyph>
<glyph name="at" format="2">
  <advance width="1336.9466666666667"/>
  <unicode hex="0040"/>
  <outline>
    <contour>
      <point x="531.6066666666667" y="64.51666666666667" type="curve" smooth="yes"/>
      <point x="641.8433333333334" y="64.51666666666667"/>
      <point x="683.36" y="135.72"/>
      <point x="707.1800000000001" y="226.99" type="curve"/>
      <point x="744.9333333333333" y="226.99" type="line"/>
      <point x="722.18" y="329.2366666666667" type="line"/>
      <point x="710.1466666666666" y="287.31666666666666"/>
      <point x="687.5066666666667" y="261.25"/>
      <point x="654.62" y="261.25" type="curve" smooth="yes"/>
      <point x="619.34" y="261.25"/>
      <point x="606.7" y="287.1933333333333"/>
      <point x="606.7" y="339.9566666666667" type="curve" smooth="yes"/>
      <point x="606.7" y="369.08"/>
      <point x="611.0933333333334" y="405.56333333333333"/>
      <point x="634.2166666666667" y="625.1333333333333" type="curve" smooth="yes"/>
      <point x="642.1266666666667" y="705.3233333333334"/>
      <point x="661.5866666666666" y="742.3566666666667"/>
      <point x="703.26" y="742.3566666666667" type="curve" smooth="yes"/>
      <point x="737.9333333333333" y="742.3566666666667"/>
      <point x="754.7866666666666" y="714.5933333333332"/>
      <point x="754.7866666666666" y="663.01" type="curve" smooth="yes"/>
      <point x="754.7866666666666" y="653.01"/>
      <point x="754.0899999999999" y="643.3133333333333"/>
      <point x="753.0899999999999" y="632.6166666666667" type="curve"/>
      <point x="808.3266666666667" y="773.3133333333334" type="line"/>
      <point x="758.6966666666667" y="773.3133333333334" type="line"/>
      <point x="750.7866666666666" y="866.7633333333333"/>
      <point x="718.7533333333333" y="933.3033333333333"/>
      <point x="621.09" y="933.3033333333333" type="curve" smooth="yes"/>
      <point x="481.64000000000004" y="933.3033333333333"/>
      <point x="419.73" y="821.5833333333334"/>
      <point x="396.64" y="597.38" type="curve" smooth="yes"/>
      <point x="373.5166666666667" y="371.02333333333337"/>
      <point x="369.12333333333333" y="337.93333333333334"/>
      <point x="369.12333333333333" y="289.45" type="curve" smooth="yes"/>
      <point x="369.12333333333333" y="142.39333333333335"/>
      <point x="416.42666666666673" y="64.51666666666667"/>
    </contour>
    <contour>
      <point x="697.09" y="75.21333333333334" type="line"/>
      <point x="911.7" y="76.60666666666667" type="line"/>
      <point x="1000.4866666666667" y="920.6066666666667" type="line"/>
      <point x="781.5733333333334" y="920.6066666666667" type="line"/>
      <point x="780.5733333333334" y="911.6066666666667" type="line"/>
      <point x="765.4833333333333" y="749.4266666666667" type="line"/>
      <point x="761.4833333333333" y="716.1566666666666" type="line"/>
      <point x="717.1800000000001" y="292.93333333333334" type="line"/>
      <point x="721.4833333333333" y="264.36" type="line"/>
    </contour>
    <contour>
      <point x="865.6433333333333" y="257.52000000000004" type="curve"/>
      <point x="697.09" y="75.21333333333334" type="line"/>
      <point x="750.0566666666667" y="65.51666666666667"/>
      <point x="833.0466666666667" y="59.82"/>
      <point x="894.62" y="62.51666666666667" type="curve" smooth="yes"/>
      <point x="1136.6666666666667" y="72.0"/>
      <point x="1245.1166666666666" y="155.64"/>
      <point x="1272.2066666666667" y="412.93333333333334" type="curve" smooth="yes"/>
      <point x="1285.9033333333334" y="545.8100000000001"/>
      <point x="1299.51" y="682.55"/>
      <point x="1304.42" y="758.1333333333333" type="curve" smooth="yes"/>
      <point x="1327.9366666666667" y="1132.1899999999998"/>
      <point x="1104.1833333333332" y="1331.2133333333331"/>
      <point x="729.7433333333333" y="1331.2133333333331" type="curve" smooth="yes"/>
      <point x="332.69666666666666" y="1331.2133333333331"/>
      <point x="129.92000000000002" y="1133.2133333333334"/>
      <point x="86.13333333333333" y="726.7966666666666" type="curve" smooth="yes"/>
      <point x="75.43666666666667" y="627.5266666666666"/>
      <point x="50.919999999999995" y="400.15999999999997"/>
      <point x="41.830000000000005" y="255.30333333333334" type="curve" smooth="yes"/>
      <point x="18.403333333333336" y="-117.24666666666667"/>
      <point x="244.03333333333333" y="-311.03333333333336"/>
      <point x="647.5066666666667" y="-311.03333333333336" type="curve" smooth="yes"/>
      <point x="842.26" y="-311.03333333333336"/>
      <point x="991.4966666666667" y="-266.4266666666667"/>
      <point x="1070.0133333333333" y="-226.17999999999998" type="curve"/>
      <point x="1096.5866666666668" y="-39.29" type="line"/>
      <point x="1025.07" y="-76.14333333333333"/>
      <point x="854.71" y="-132.35666666666668"/>
      <point x="667.3833333333333" y="-132.35666666666668" type="curve" smooth="yes"/>
      <point x="355.99" y="-132.35666666666668"/>
      <point x="226.13666666666666" y="22.676666666666666"/>
      <point x="242.86666666666667" y="269.5733333333333" type="curve" smooth="yes"/>
      <point x="251.95666666666665" y="401.55333333333334"/>
      <point x="272.99" y="597.0766666666666"/>
      <point x="288.47333333333336" y="728.74" type="curve" smooth="yes"/>
      <point x="315.8666666666667" y="966.1433333333333"/>
      <point x="419.41666666666663" y="1153.1433333333332"/>
      <point x="718.6533333333333" y="1153.1433333333332" type="curve" smooth="yes"/>
      <point x="1009.4399999999999" y="1153.1433333333332"/>
      <point x="1120.4166666666665" y="988.6266666666667"/>
      <point x="1104.6866666666667" y="768.1" type="curve" smooth="yes"/>
      <point x="1098.7766666666666" y="687.9766666666666"/>
      <point x="1081.4733333333334" y="520.1466666666668"/>
      <point x="1070.0800000000002" y="420.96666666666664" type="curve" smooth="yes"/>
      <point x="1055.17" y="287.22666666666663"/>
      <point x="1010.53" y="250.55333333333334"/>
      <point x="932.5533333333333" y="250.55333333333334" type="curve" smooth="yes"/>
      <point x="905.9466666666666" y="250.55333333333334"/>
      <point x="895.7333333333332" y="251.9466666666667"/>
    </contour>
  </outline>
</glyph>
<glyph name="A" format="2">
  <advance width="829.0266666666668"/>
  <unicode hex="0041"/>
  <anchor x="415.0133333333334" y="0.0" name="bottom"/>
  <anchor x="838.6" y="0.0" name="ogonek"/>
  <anchor x="415.0133333333334" y="1278.0" name="top"/>
  <outline>
    <contour>
      <point x="24.06666666666667" y="0.0" type="line"/>
      <point x="293.1166666666667" y="0.0" type="line"/>
      <point x="403.40666666666664" y="1081.4233333333334" type="line"/>
      <point x="424.71" y="1081.4233333333334" type="line"/>
      <point x="535.9100000000001" y="0.0" type="line"/>
      <point x="804.96" y="0.0" type="line"/>
      <point x="628.4666666666667" y="1278.0" type="line"/>
      <point x="199.65000000000003" y="1278.0" type="line"/>
    </contour>
    <contour>
      <point x="234.95666666666668" y="301.2" type="line"/>
      <point x="590.6766666666666" y="301.2" type="line"/>
      <point x="590.6766666666666" y="513.5066666666667" type="line"/>
      <point x="234.95666666666668" y="513.5066666666667" type="line"/>
    </contour>
  </outline>
</glyph>
<glyph name="B" format="2">
  <advance width="834.33"/>
  <unicode hex="0042"/>
  <anchor x="418.8333333333333" y="0.0" name="bottom"/>
  <anchor x="418.8333333333333" y="1278.0" name="top"/>
  <outline>
    <contour>
      <point x="278.15999999999997" y="0.0" type="line"/>
      <point x="440.92333333333335" y="0.0" type="line" smooth="yes"/>
      <point x="689.5433333333333" y="0.0"/>
      <point x="793.6566666666666" y="112.60666666666667"/>
      <point x="793.6566666666666" y="349.9" type="curve" smooth="yes"/>
      <point x="793.6566666666666" y="400.0" type="line" smooth="yes"/>
      <point x="793.6566666666666" y="564.6633333333333"/>
      <point x="744.0833333333333" y="661.45"/>
      <point x="571.43" y="687.54" type="curve"/>
      <point x="571.43" y="696.5400000000001" type="line"/>
      <point x="724.1166666666666" y="711.6633333333333"/>
      <point x="782.2633333333333" y="795.27"/>
      <point x="782.2633333333333" y="939.2366666666667" type="curve" smooth="yes"/>
      <point x="782.2633333333333" y="973.3033333333333" type="line" smooth="yes"/>
      <point x="782.2633333333333" y="1169.6966666666667"/>
      <point x="672.3633333333333" y="1278.0"/>
      <point x="419.0466666666667" y="1278.0" type="curve" smooth="yes"/>
      <point x="266.28333333333336" y="1278.0" type="line"/>
      <point x="266.28333333333336" y="1051.1533333333334" type="line"/>
      <point x="409.44000000000005" y="1051.1533333333334" type="line" smooth="yes"/>
      <point x="488.0566666666667" y="1051.1533333333334"/>
      <point x="517.4833333333333" y="1007.9633333333334"/>
      <point x="517.4833333333333" y="916.9533333333334" type="curve" smooth="yes"/>
      <point x="517.4833333333333" y="885.5500000000001" type="line" smooth="yes"/>
      <point x="517.4833333333333" y="796.9666666666666"/>
      <point x="488.35999999999996" y="753.4733333333334"/>
      <point x="407.31666666666666" y="753.4733333333334" type="curve" smooth="yes"/>
      <point x="268.1033333333333" y="753.4733333333334" type="line"/>
      <point x="268.1033333333333" y="544.7733333333333" type="line"/>
      <point x="409.1033333333333" y="544.7733333333333" type="line" smooth="yes"/>
      <point x="497.35999999999996" y="544.7733333333333"/>
      <point x="526.09" y="501.28"/>
      <point x="526.09" y="411.9666666666667" type="curve" smooth="yes"/>
      <point x="526.09" y="361.35" type="line" smooth="yes"/>
      <point x="526.09" y="272.03666666666663"/>
      <point x="497.35999999999996" y="228.54333333333332"/>
      <point x="413.9566666666667" y="228.54333333333332" type="curve" smooth="yes"/>
      <point x="278.15999999999997" y="228.54333333333332" type="line"/>
    </contour>
    <contour>
      <point x="81.28" y="0.0" type="line"/>
      <point x="343.97" y="0.0" type="line"/>
      <point x="343.97" y="1278.0" type="line"/>
      <point x="81.28" y="1278.0" type="line"/>
    </contour>
  </outline>
</glyph>
<glyph name="C" format="2">
  <advance width="651.5533333333333"/>
  <unicode hex="0043"/>
  <anchor x="368.65333333333336" y="0.0" name="bottom"/>
  <anchor x="368.65333333333336" y="1278.0" name="top"/>
  <outline>
    <contour>
      <point x="399.1366666666667" y="-21.09" type="curve" smooth="yes"/>
      <point x="488.89000000000004" y="-21.09"/>
      <point x="560.8566666666667" y="6.0"/>
      <point x="599.9466666666666" y="32.09" type="curve"/>
      <point x="616.8233333333333" y="282.33" type="line"/>
      <point x="583.3966666666666" y="257.59999999999997"/>
      <point x="542.88" y="238.08333333333331"/>
      <point x="484.3633333333333" y="238.08333333333331" type="curve" smooth="yes"/>
      <point x="378.02666666666664" y="238.08333333333331"/>
      <point x="340.9033333333333" y="305.42"/>
      <point x="340.9033333333333" y="421.3966666666667" type="curve" smooth="yes"/>
      <point x="340.9033333333333" y="856.9066666666668" type="line" smooth="yes"/>
      <point x="340.9033333333333" y="974.8833333333333"/>
      <point x="374.33" y="1044.22"/>
      <point x="475.6666666666667" y="1044.22" type="curve" smooth="yes"/>
      <point x="532.4866666666666" y="1044.22"/>
      <point x="574.0033333333333" y="1023.7033333333334"/>
      <point x="609.1266666666667" y="998.9733333333332" type="curve"/>
      <point x="592.9466666666666" y="1244.6966666666665" type="line"/>
      <point x="554.25" y="1272.6966666666667"/>
      <point x="487.6766666666667" y="1299.09"/>
      <point x="396.5299999999999" y="1299.09" type="curve" smooth="yes"/>
      <point x="171.87666666666667" y="1299.09"/>
      <point x="61.97666666666666" y="1157.0666666666666"/>
      <point x="61.97666666666666" y="878.9633333333334" type="curve" smooth="yes"/>
      <point x="61.97666666666666" y="404.42999999999995" type="line" smooth="yes"/>
      <point x="61.97666666666666" y="122.93333333333335"/>
      <point x="164.08999999999997" y="-21.09"/>
    </contour>
  </outline>
</glyph>
<glyph name="D" format="2">
  <advance width="869.1166666666667"/>
  <unicode hex="0044"/>
  <anchor x="419.9233333333333" y="0.0" name="bottom"/>
  <anchor x="435.3166666666666" y="639.0" name="center"/>
  <anchor x="419.9233333333333" y="1278.0" name="top"/>
  <outline>
    <contour>
      <point x="261.46333333333337" y="0.0" type="line"/>
      <point x="428.6766666666667" y="0.0" type="line" smooth="yes"/>
      <point x="693.69" y="0.0"/>
      <point x="807.14" y="134.8433333333333"/>
      <point x="807.14" y="385.2266666666667" type="curve" smooth="yes"/>
      <point x="807.14" y="892.7733333333333" type="line" smooth="yes"/>
      <point x="807.14" y="1142.46"/>
      <point x="690.2966666666666" y="1278.0"/>
      <point x="428.6766666666667" y="1278.0" type="curve" smooth="yes"/>
      <point x="262.37333333333333" y="1278.0" type="line"/>
      <point x="262.37333333333333" y="1042.7933333333333" type="line"/>
      <point x="414.1033333333333" y="1042.7933333333333" type="line" smooth="yes"/>
      <point x="499.11333333333334" y="1042.7933333333333"/>
      <point x="535.1800000000001" y="997.6033333333334"/>
      <point x="535.1800000000001" y="893.1666666666666" type="curve" smooth="yes"/>
      <point x="535.1800000000001" y="386.2266666666667" type="line" smooth="yes"/>
      <point x="535.1800000000001" y="282.09333333333336"/>
      <point x="499.11333333333334" y="236.9033333333333"/>
      <point x="414.1033333333333" y="236.9033333333333" type="curve" smooth="yes"/>
      <point x="261.46333333333337" y="236.9033333333333" type="line"/>
    </contour>
    <contour>
      <point x="81.28" y="0.0" type="line"/>
      <point x="351.24" y="0.0" type="line"/>
      <point x="351.24" y="1278.0" type="line"/>
      <point x="81.28" y="1278.0" type="line"/>
    </contour>
  </outline>
</glyph>
<glyph name="E" format="2">
  <advance width="702.4866666666667"/>
  <unicode hex="0045"/>
  <anchor x="363.3833333333333" y="0.0" name="bottom"/>
  <anchor x="664.34" y="0.0" name="ogonek"/>
  <anchor x="363.3833333333333" y="1278.0" name="top"/>
  <anchor x="20.0" y="1278.0" name="topleft"/>
  <outline>
    <contour>
      <point x="81.28" y="0.0" type="line"/>
      <point x="349.33" y="0.0" type="line"/>
      <point x="349.33" y="1278.0" type="line"/>
      <point x="81.28" y="1278.0" type="line"/>
    </contour>
    <contour>
      <point x="260.03666666666663" y="0.0" type="line"/>
      <point x="648.3633333333333" y="0.0" type="line"/>
      <point x="648.3633333333333" y="242.9933333333333" type="line"/>
      <point x="260.03666666666663" y="242.9933333333333" type="line"/>
    </contour>
    <contour>
      <point x="262.15999999999997" y="532.1999999999999" type="line"/>
      <point x="638.2733333333333" y="532.1999999999999" type="line"/>
      <point x="638.2733333333333" y="767.2266666666667" type="line"/>
      <point x="262.15999999999997" y="767.2266666666667" type="line"/>
    </contour>
    <contour>
      <point x="259.43" y="1037.7933333333333" type="line"/>
      <point x="648.3633333333333" y="1037.7933333333333" type="line"/>
      <point x="648.3633333333333" y="1278.0" type="line"/>
      <point x="259.43" y="1278.0" type="line"/>
    </contour>
  </outline>
</glyph>
<glyph name="F" format="2">
  <advance width="665.2166666666667"/>
  <unicode hex="0046"/>
  <anchor x="332.9566666666667" y="0.0" name="bottom"/>
  <anchor x="332.9566666666667" y="1278.0" name="top"/>
  <outline>
    <contour>
      <point x="81.28" y="0.0" type="line"/>
      <point x="355.72333333333336" y="0.0" type="line"/>
      <point x="355.72333333333336" y="1278.0" type="line"/>
      <point x="81.28" y="1278.0" type="line"/>
    </contour>
    <contour>
      <point x="262.15999999999997" y="468.29999999999995" type="line"/>
      <point x="611.3066666666666" y="468.29999999999995" type="line"/>
      <point x="611.3066666666666" y="716.7766666666666" type="line"/>
      <point x="262.15999999999997" y="716.7766666666666" type="line"/>
    </contour>
    <contour>
      <point x="259.43" y="1029.5233333333333" type="line"/>
      <point x="622.0033333333333" y="1029.5233333333333" type="line"/>
      <point x="622.0033333333333" y="1278.0" type="line"/>
      <point x="259.43" y="1278.0" type="line"/>
    </contour>
  </outline>
</glyph>
<glyph name="G" format="2">
  <advance width="825.5100000000001"/>
  <unicode hex="0047"/>
  <anchor x="413.71" y="0.0" name="bottom"/>
  <anchor x="413.71" y="1278.0" name="top"/>
  <outline>
    <contour>
      <point x="317.3933333333334" y="-21.09" type="curve" smooth="yes"/>
      <point x="460.9" y="-21.09"/>
      <point x="501.4166666666667" y="67.32666666666667"/>
      <point x="521.5066666666667" y="174.83333333333334" type="curve"/>
      <point x="759.5999999999999" y="174.83333333333331" type="line"/>
      <point x="759.5999999999999" y="753.9" type="line"/>
      <point x="436.2266666666667" y="753.9" type="line"/>
      <point x="436.2266666666667" y="539.4699999999999" type="line"/>
      <point x="566.8666666666667" y="539.47" type="line"/>
      <point x="522.7199999999999" y="644.6733333333333" type="line"/>
      <point x="522.7199999999999" y="309.5866666666667" type="line"/>
      <point x="510.5066666666666" y="261.39666666666665"/>
      <point x="483.8666666666667" y="224.59999999999997"/>
      <point x="428.37333333333333" y="224.59999999999997" type="curve" smooth="yes"/>
      <point x="362.96999999999997" y="224.59999999999997"/>
      <point x="334.6333333333333" y="270.57666666666665"/>
      <point x="334.6333333333333" y="365.58666666666664" type="curve" smooth="yes"/>
      <point x="334.6333333333333" y="837.0866666666667" type="line" smooth="yes"/>
      <point x="334.6333333333333" y="980.2433333333333"/>
      <point x="389.93666666666667" y="1050.49"/>
      <point x="534.51" y="1050.49" type="curve" smooth="yes"/>
      <point x="621.2066666666667" y="1050.49"/>
      <point x="690.9933333333333" y="1017.7933333333333"/>
      <point x="738.8133333333332" y="984.67" type="curve"/>
      <point x="719.24" y="1230.91" type="line"/>
      <point x="669.4533333333334" y="1265.3033333333333"/>
      <point x="574.8233333333334" y="1299.09"/>
      <point x="464.06999999999994" y="1299.09" type="curve" smooth="yes"/>
      <point x="201.14666666666668" y="1299.09"/>
      <point x="61.97666666666666" y="1152.8533333333332"/>
      <point x="61.97666666666666" y="852.2333333333333" type="curve" smooth="yes"/>
      <point x="61.97666666666666" y="377.16" type="line" smooth="yes"/>
      <point x="61.97666666666666" y="127.50666666666667"/>
      <point x="127.97666666666667" y="-21.09"/>
    </contour>
    <contour>
      <point x="533.5066666666667" y="211.8766666666667" type="line"/>
      <point x="525.1133333333333" y="0.0" type="line"/>
      <point x="759.5999999999999" y="0.0" type="line"/>
      <point x="759.5999999999999" y="211.8766666666667" type="line"/>
    </contour>
  </outline>
</glyph>
<glyph name="H" format="2">
  <advance width="902.2966666666666"/>
  <unicode hex="0048"/>
  <anchor x="451.49666666666667" y="0.0" name="bottom"/>
  <anchor x="451.49666666666667" y="639.0" name="center"/>
  <anchor x="451.49666666666667" y="1278.0" name="top"/>
  <anchor x="20.0" y="1278.0" name="topleft"/>
  <outline>
    <contour>
      <point x="358.81333333333333" y="0.0" type="line"/>
      <point x="358.81333333333333" y="1278.0" type="line"/>
      <point x="81.28" y="1278.0" type="line"/>
      <point x="81.28" y="0.0" type="line"/>
    </contour>
    <contour>
      <point x="821.0166666666667" y="0.0" type="line"/>
      <point x="821.0166666666667" y="1278.0" type="line"/>
      <point x="543.4833333333333" y="1278.0" type="line"/>
      <point x="543.4833333333333" y="0.0" type="line"/>
    </contour>
    <contour>
      <point x="262.76666666666665" y="770.9233333333333" type="line"/>
      <point x="262.76666666666665" y="531.6266666666667" type="line"/>
      <point x="629.5633333333334" y="531.6266666666667" type="line"/>
      <point x="629.5633333333334" y="770.9233333333333" type="line"/>
    </contour>
  </outline>
</glyph>
<glyph name="I" format="2">
  <advance width="440.7"/>
  <unicode hex="0049"/>
  <anchor x="220.35" y="0.0" name="bottom"/>
  <anchor x="381.39666666666665" y="0.0" name="ogonek"/>
  <anchor x="220.34999999999997" y="1278.0" name="top"/>
  <anchor x="20.0" y="1278.0" name="topleft"/>
  <outline>
    <contour>
      <point x="359.1166666666667" y="0.0" type="line"/>
      <point x="359.1166666666667" y="1278.0" type="line"/>
      <point x="81.58333333333333" y="1278.0" type="line"/>
      <point x="81.58333333333333" y="0.0" type="line"/>
    </contour>
  </outline>
</glyph>
<glyph name="J" format="2">
  <advance width="550.5866666666666"/>
  <unicode hex="004A"/>
  <anchor x="275.5966666666667" y="0.0" name="bottom"/>
  <anchor x="335.8433333333333" y="1278.0" name="top"/>
  <outline>
    <contour>
      <point x="181.75333333333333" y="-17.0" type="curve" smooth="yes"/>
      <point x="398.07" y="-17.0"/>
      <point x="475.3066666666666" y="108.29333333333332"/>
      <point x="475.3066666666666" y="335.18333333333334" type="curve" smooth="yes"/>
      <point x="475.3066666666666" y="1278.0" type="line"/>
      <point x="198.07666666666665" y="1278.0" type="line"/>
      <point x="198.07666666666665" y="337.96999999999997" type="line" smooth="yes"/>
      <point x="198.07666666666665" y="268.6333333333333"/>
      <point x="178.25666666666666" y="225.20666666666665"/>
      <point x="108.01000000000002" y="225.20666666666665" type="curve" smooth="yes"/>
      <point x="78.97666666666666" y="225.20666666666665"/>
      <point x="53.46" y="231.81333333333333"/>
      <point x="25.336666666666673" y="243.72333333333333" type="curve"/>
      <point x="41.516666666666666" y="9.786666666666667" type="line"/>
      <point x="79.0" y="-6.606666666666667"/>
      <point x="129.17999999999998" y="-17.0"/>
    </contour>
  </outline>
</glyph>
<glyph name="K" format="2">
  <advance width="854.4433333333334"/>
  <unicode hex="004B"/>
  <anchor x="450.46333333333337" y="0.0" name="bottom"/>
  <anchor x="450.46333333333337" y="1278.0" name="top"/>
  <outline>
    <contour>
      <point x="567.8433333333332" y="0.0" type="line"/>
      <point x="851.77" y="0.0" type="line"/>
      <point x="613.4566666666667" y="711.4166666666666" type="line"/>
      <point x="614.0633333333333" y="648.4833333333333" type="line"/>
      <point x="839.68" y="1278.0" type="line"/>
      <point x="558.45" y="1278.0" type="line"/>
      <point x="383.28333333333336" y="740.0566666666666" type="line"/>
      <point x="337.69" y="740.0566666666666" type="line"/>
      <point x="337.69" y="567.2466666666667" type="line"/>
      <point x="383.28333333333336" y="567.2466666666667" type="line"/>
    </contour>
    <contour>
      <point x="81.28" y="0.0" type="line"/>
      <point x="351.72333333333336" y="0.0" type="line"/>
      <point x="351.72333333333336" y="1278.0" type="line"/>
      <point x="81.28" y="1278.0" type="line"/>
    </contour>
  </outline>
</glyph>
<glyph name="L" format="2">
  <advance width="651.6433333333333"/>
  <unicode hex="004C"/>
  <anchor x="336.9333333333334" y="0.0" name="bottom"/>
  <anchor x="239.03333333333333" y="643.2466666666667" name="center"/>
  <anchor x="220.04666666666665" y="1278.0" name="top"/>
  <anchor x="450.9566666666667" y="1278.0" name="topright"/>
  <outline>
    <contour>
      <point x="358.51" y="0.0" type="line"/>
      <point x="358.51" y="1278.0" type="line"/>
      <point x="81.28" y="1278.0" type="line"/>
      <point x="81.28" y="0.0" type="line"/>
    </contour>
    <contour>
      <point x="260.0366666666667" y="247.08333333333334" type="line"/>
      <point x="260.0366666666667" y="0.0" type="line"/>
      <point x="616.5533333333334" y="0.0" type="line"/>
      <point x="616.5533333333334" y="247.08333333333334" type="line"/>
    </contour>
  </outline>
</glyph>
<glyph name="M" format="2">
  <advance width="1173.85"/>
  <unicode hex="004D"/>
  <anchor x="587.5766666666666" y="0.0" name="bottom"/>
  <anchor x="587.5766666666666" y="1278.0" name="top"/>
  <outline>
    <contour>
      <point x="78.67333333333333" y="0.0" type="line"/>
      <point x="332.3633333333333" y="0.0" type="line"/>
      <point x="332.96999999999997" y="327.52333333333337" type="line"/>
      <point x="325.27333333333337" y="930.51" type="line"/>
      <point x="335.36333333333334" y="930.51" type="line"/>
      <point x="472.98" y="145.18" type="line"/>
      <point x="700.87" y="145.18" type="line"/>
      <point x="838.4866666666666" y="930.51" type="line"/>
      <point x="848.5766666666668" y="930.51" type="line"/>
      <point x="841.1833333333334" y="327.52333333333337" type="line"/>
      <point x="841.4866666666667" y="0.0" type="line"/>
      <point x="1095.1766666666667" y="0.0" type="line"/>
      <point x="1086.1766666666667" y="1278.0" type="line"/>
      <point x="715.98" y="1278.0" type="line"/>
      <point x="592.97" y="520.9166666666666" type="line"/>
      <point x="584.2733333333333" y="520.9166666666666" type="line"/>
      <point x="457.87000000000006" y="1278.0" type="line"/>
      <point x="87.67333333333333" y="1278.0" type="line"/>
    </contour>
  </outline>
</glyph>
<glyph name="N" format="2">
  <advance width="946.41"/>
  <unicode hex="004E"/>
  <anchor x="482.0366666666667" y="0.0" name="bottom"/>
  <anchor x="482.0366666666667" y="1278.0" name="top"/>
  <outline>
    <contour>
      <point x="451.96000000000004" y="1279.6966666666667" type="line"/>
      <point x="81.28" y="1279.6966666666667" type="line"/>
      <point x="81.28" y="0.0" type="line"/>
      <point x="331.78999999999996" y="0.0" type="line"/>
      <point x="331.78999999999996" y="339.2966666666667" type="line"/>
      <point x="312.61" y="975.14" type="line"/>
      <point x="322.61" y="975.14" type="line"/>
      <point x="497.2366666666667" y="0.0" type="line"/>
      <point x="865.13" y="0.0" type="line"/>
      <point x="865.13" y="1279.6966666666667" type="line"/>
      <point x="616.3166666666666" y="1279.6966666666667" type="line"/>
      <point x="616.3166666666666" y="940.4" type="line"/>
      <point x="635.1933333333333" y="317.43333333333334" type="line"/>
      <point x="625.1933333333334" y="317.43333333333334" type="line"/>
    </contour>
  </outline>
</glyph>
<glyph name="O" format="2">
  <advance width="874.69"/>
  <unicode hex="004F"/>
  <anchor x="437.1933333333333" y="0.0" name="bottom"/>
  <anchor x="437.1933333333333" y="639.0" name="center"/>
  <anchor x="643.1833333333333" y="1.5166666666666666" name="ogonek"/>
  <anchor x="437.1933333333333" y="1278.0" name="top"/>
  <anchor x="20.0" y="1278.0" name="topleft"/>
  <anchor x="858.1299999999999" y="1278.0" name="topright"/>
  <outline>
    <contour>
      <point x="437.1933333333333" y="-21.09" type="curve" smooth="yes"/>
      <point x="689.2066666666667" y="-21.09"/>
      <point x="812.7133333333333" y="120.93333333333334"/>
      <point x="812.7133333333333" y="403.34000000000003" type="curve" smooth="yes"/>
      <point x="812.7133333333333" y="874.3566666666666" type="line" smooth="yes"/>
      <point x="812.7133333333333" y="1155.0666666666666"/>
      <point x="689.2066666666667" y="1299.09"/>
      <point x="437.1933333333333" y="1299.09" type="curve" smooth="yes"/>
      <point x="185.17999999999998" y="1299.09"/>
      <point x="61.97666666666666" y="1155.0666666666666"/>
      <point x="61.97666666666666" y="874.3566666666666" type="curve" smooth="yes"/>
      <point x="61.97666666666666" y="403.34000000000003" type="line" smooth="yes"/>
      <point x="61.97666666666666" y="120.93333333333334"/>
      <point x="185.18" y="-21.09"/>
    </contour>
    <contour>
      <point x="437.1933333333333" y="211.32999999999998" type="curve" smooth="yes"/>
      <point x="364.97" y="211.32999999999998"/>
      <point x="340.90333333333336" y="263.21666666666664"/>
      <point x="340.90333333333336" y="376.2833333333333" type="curve" smooth="yes"/>
      <point x="340.90333333333336" y="902.4133333333334" type="line" smooth="yes"/>
      <point x="340.90333333333336" y="1015.0866666666667"/>
      <point x="364.97" y="1066.67"/>
      <point x="437.1933333333333" y="1066.67" type="curve" smooth="yes"/>
      <point x="509.41666666666674" y="1066.67"/>
      <point x="533.4833333333333" y="1015.0866666666667"/>
      <point x="533.4833333333333" y="902.4133333333334" type="curve" smooth="yes"/>
      <point x="533.4833333333333" y="376.2833333333333" type="line" smooth="yes"/>
      <point x="533.4833333333333" y="263.21666666666664"/>
      <point x="509.41666666666674" y="211.32999999999998"/>
    </contour>
  </outline>
</glyph>
<glyph name="P" format="2">
  <advance width="825.6566666666666"/>
  <unicode hex="0050"/>
  <anchor x="412.97999999999996" y="0.0" name="bottom"/>
  <anchor x="412.97999999999996" y="1278.0" name="top"/>
  <outline>
    <contour>
      <point x="248.37333333333333" y="361.3233333333333" type="line"/>
      <point x="419.06999999999994" y="361.3233333333333" type="line" smooth="yes"/>
      <point x="673.2633333333333" y="361.3233333333333"/>
      <point x="782.1966666666666" y="482.59333333333336"/>
      <point x="782.1966666666666" y="738.82" type="curve" smooth="yes"/>
      <point x="782.1966666666666" y="900.4133333333334" type="line" smooth="yes"/>
      <point x="782.1966666666666" y="1146.8533333333335"/>
      <point x="673.2633333333333" y="1278.0"/>
      <point x="415.98" y="1278.0" type="curve" smooth="yes"/>
      <point x="249.28333333333333" y="1278.0" type="line"/>
      <point x="249.28333333333333" y="1045.5800000000002" type="line"/>
      <point x="406.1933333333334" y="1045.5800000000002" type="line" smooth="yes"/>
      <point x="486.08000000000004" y="1045.5800000000002"/>
      <point x="511.84333333333336" y="1001.39"/>
      <point x="511.84333333333336" y="896.4133333333333" type="curve" smooth="yes"/>
      <point x="511.84333333333336" y="742.5166666666667" type="line" smooth="yes"/>
      <point x="511.84333333333336" y="637.2366666666667"/>
      <point x="486.08000000000004" y="593.7433333333333"/>
      <point x="405.89000000000004" y="593.7433333333333" type="curve" smooth="yes"/>
      <point x="248.37333333333333" y="593.7433333333333" type="line"/>
    </contour>
    <contour>
      <point x="81.28" y="0.0" type="line"/>
      <point x="350.54333333333335" y="0.0" type="line"/>
      <point x="350.54333333333335" y="394.07666666666665" type="line"/>
      <point x="348.5433333333333" y="528.45" type="line"/>
      <point x="348.5433333333333" y="1278.0" type="line"/>
      <point x="81.28" y="1278.0" type="line"/>
    </contour>
  </outline>
</glyph>
<glyph name="Q" format="2">
  <advance width="879.0833333333333"/>
  <unicode hex="0051"/>
  <anchor x="440.1933333333333" y="0.0" name="bottom"/>
  <anchor x="440.1933333333333" y="1278.0" name="top"/>
  <outline>
    <contour>
      <point x="868.78" y="-39.75333333333333" type="line"/>
      <point x="868.78" y="193.06" type="line"/>
      <point x="622.24" y="184.66666666666666" type="line"/>
      <point x="622.24" y="195.36333333333334" type="line"/>
      <point x="760.8033333333334" y="214.43"/>
      <point x="812.7133333333334" y="307.15"/>
      <point x="812.7133333333334" y="479.8133333333334" type="curve" smooth="yes"/>
      <point x="812.7133333333334" y="871.3233333333333" type="line" smooth="yes"/>
      <point x="812.7133333333334" y="1154.7633333333333"/>
      <point x="688.6" y="1299.09"/>
      <point x="437.1933333333333" y="1299.09" type="curve" smooth="yes"/>
      <point x="185.78666666666663" y="1299.09"/>
      <point x="61.97666666666666" y="1154.7633333333333"/>
      <point x="61.97666666666666" y="871.3233333333334" type="curve" smooth="yes"/>
      <point x="61.97666666666666" y="407.5866666666667" type="line" smooth="yes"/>
      <point x="61.97666666666666" y="123.75333333333333"/>
      <point x="176.78666666666663" y="-8.213333333333333"/>
      <point x="488.5533333333333" y="-22.483333333333334" type="curve" smooth="yes"/>
    </contour>
    <contour>
      <point x="452.9233333333334" y="210.72333333333333" type="line" smooth="yes"/>
      <point x="371.88" y="210.72333333333336"/>
      <point x="340.90333333333336" y="269.00333333333333"/>
      <point x="340.90333333333336" y="371.6533333333333" type="curve" smooth="yes"/>
      <point x="340.90333333333336" y="898.7733333333334" type="line" smooth="yes"/>
      <point x="340.90333333333336" y="1015.39"/>
      <point x="365.5766666666667" y="1066.9733333333334"/>
      <point x="437.1933333333333" y="1066.9733333333334" type="curve" smooth="yes"/>
      <point x="508.81000000000006" y="1066.9733333333334"/>
      <point x="533.4833333333333" y="1015.39"/>
      <point x="533.4833333333333" y="898.7733333333334" type="curve" smooth="yes"/>
      <point x="533.4833333333333" y="383.8666666666667" type="line" smooth="yes"/>
      <point x="533.4833333333333" y="277.12666666666667"/>
      <point x="513.5066666666667" y="230.84666666666666"/>
      <point x="463.13666666666666" y="210.72333333333333" type="curve"/>
    </contour>
  </outline>
</glyph>
<glyph name="R" format="2">
  <advance width="839.69"/>
  <unicode hex="0052"/>
  <anchor x="430.4066666666667" y="0.0" name="bottom"/>
  <anchor x="421.1033333333334" y="1278.0" name="top"/>
  <outline>
    <contour>
      <point x="525.1800000000001" y="0.0" type="line"/>
      <point x="796.8366666666666" y="0.0" type="line"/>
      <point x="770.7133333333333" y="312.90999999999997" type="line" smooth="yes"/>
      <point x="754.8033333333334" y="499.87666666666667"/>
      <point x="720.0166666666667" y="605.5066666666667"/>
      <point x="506.07000000000005" y="621.5400000000001" type="curve"/>
      <point x="566.43" y="586.6066666666667" type="line"/>
      <point x="566.43" y="624.1133333333333" type="line"/>
      <point x="715.6333333333333" y="633.8766666666667"/>
      <point x="786.3199999999999" y="722.5733333333333"/>
      <point x="786.3199999999999" y="881.5633333333333" type="curve" smooth="yes"/>
      <point x="786.3199999999999" y="944.0433333333333" type="line" smooth="yes"/>
      <point x="786.3199999999999" y="1159.2466666666667"/>
      <point x="677.1166666666667" y="1278.0"/>
      <point x="427.1933333333334" y="1278.0" type="curve" smooth="yes"/>
      <point x="272.55333333333334" y="1278.0" type="line"/>
      <point x="272.55333333333334" y="1045.58" type="line"/>
      <point x="408.61999999999995" y="1045.58" type="line" smooth="yes"/>
      <point x="489.2366666666666" y="1045.58"/>
      <point x="514.5733333333333" y="1001.6933333333334"/>
      <point x="514.5733333333333" y="896.7166666666666" type="curve" smooth="yes"/>
      <point x="514.5733333333333" y="813.1233333333333" type="line" smooth="yes"/>
      <point x="514.5733333333333" y="712.09"/>
      <point x="486.53999999999996" y="669.5066666666667"/>
      <point x="407.10333333333335" y="669.2033333333333" type="curve" smooth="yes"/>
      <point x="276.07" y="668.9" type="line"/>
      <point x="276.07" y="445.87333333333333" type="line"/>
      <point x="396.6766666666666" y="445.87333333333333" type="line" smooth="yes"/>
      <point x="476.02333333333337" y="445.87333333333333"/>
      <point x="504.32666666666665" y="393.83"/>
      <point x="508.84333333333336" y="306.82" type="curve" smooth="yes"/>
    </contour>
    <contour>
      <point x="81.28" y="0.0" type="line"/>
      <point x="350.54333333333335" y="0.0" type="line"/>
      <point x="350.54333333333335" y="488.8066666666667" type="line"/>
      <point x="348.8466666666667" y="602.5166666666667" type="line"/>
      <point x="348.8466666666667" y="1278.0" type="line"/>
      <point x="81.28" y="1278.0" type="line"/>
    </contour>
  </outline>
</glyph>
<glyph name="S" format="2">
  <advance width="689.5766666666667"/>
  <unicode hex="0053"/>
  <anchor x="332.1366666666667" y="0.0" name="bottom"/>
  <anchor x="332.1366666666667" y="1278.0" name="top"/>
  <outline>
    <contour>
      <point x="301.34999999999997" y="-21.09" type="curve" smooth="yes"/>
      <point x="535.7" y="-21.09"/>
      <point x="649.2066666666667" y="107.27"/>
      <point x="649.2066666666667" y="334.47333333333336" type="curve" smooth="yes"/>
      <point x="649.2066666666667" y="366.75333333333333" type="line" smooth="yes"/>
      <point x="649.2066666666667" y="539.4499999999999"/>
      <point x="590.9366666666666" y="618.9333333333334"/>
      <point x="462.54333333333335" y="727.5966666666666" type="curve" smooth="yes"/>
      <point x="359.9033333333333" y="814.5066666666667"/>
      <point x="314.3866666666667" y="856.63"/>
      <point x="314.3866666666667" y="935.19" type="curve" smooth="yes"/>
      <point x="314.3866666666667" y="945.3466666666667" type="line" smooth="yes"/>
      <point x="314.3866666666667" y="1015.3000000000001"/>
      <point x="350.9033333333333" y="1051.8833333333332"/>
      <point x="429.18333333333334" y="1051.8833333333332" type="curve" smooth="yes"/>
      <point x="506.6666666666667" y="1051.8833333333332"/>
      <point x="564.7566666666667" y="1021.49"/>
      <point x="611.06" y="989.67" type="curve"/>
      <point x="594.8800000000001" y="1230.0333333333333" type="line"/>
      <point x="542.61" y="1267.2133333333331"/>
      <point x="463.4633333333333" y="1299.09"/>
      <point x="358.22666666666663" y="1299.09" type="curve" smooth="yes"/>
      <point x="150.05666666666667" y="1299.09"/>
      <point x="36.06666666666666" y="1175.3366666666668"/>
      <point x="36.06666666666666" y="967.7066666666667" type="curve" smooth="yes"/>
      <point x="36.06666666666666" y="941.37" type="line" smooth="yes"/>
      <point x="36.06666666666666" y="771.6733333333333"/>
      <point x="114.82" y="675.2233333333334"/>
      <point x="243.42666666666668" y="564.65" type="curve" smooth="yes"/>
      <point x="327.28000000000003" y="492.5266666666667"/>
      <point x="370.88666666666666" y="456.5833333333333"/>
      <point x="370.88666666666666" y="373.14666666666665" type="curve" smooth="yes"/>
      <point x="370.88666666666666" y="347.6533333333333" type="line" smooth="yes"/>
      <point x="370.88666666666666" y="273.3066666666667"/>
      <point x="332.36999999999995" y="230.42000000000002"/>
      <point x="243.60666666666665" y="230.42000000000002" type="curve" smooth="yes"/>
      <point x="163.55" y="230.42000000000002"/>
      <point x="94.46" y="261.51"/>
      <point x="41.85333333333334" y="291.93666666666667" type="curve"/>
      <point x="58.730000000000004" y="40.78666666666666" type="line"/>
      <point x="111.78666666666666" y="8.0"/>
      <point x="195.23666666666665" y="-21.09"/>
    </contour>
  </outline>
</glyph>
<glyph name="T" format="2">
  <advance width="728.9933333333333"/>
  <unicode hex="0054"/>
  <anchor x="364.49666666666667" y="0.0" name="bottom"/>
  <anchor x="364.49666666666667" y="639.0" name="center"/>
  <anchor x="364.49666666666667" y="1278.0" name="top"/>
  <outline>
    <contour>
      <point x="225.73" y="0.0" type="line"/>
      <point x="503.2633333333333" y="0.0" type="line"/>
      <point x="503.2633333333333" y="1278.0" type="line"/>
      <point x="225.73" y="1278.0" type="line"/>
    </contour>
    <contour>
      <point x="29.999999999999996" y="1031.5233333333333" type="line"/>
      <point x="698.9933333333333" y="1031.5233333333333" type="line"/>
      <point x="698.9933333333333" y="1278.0" type="line"/>
      <point x="29.999999999999996" y="1278.0" type="line"/>
    </contour>
  </outline>
</glyph>
<glyph name="U" format="2">
  <advance width="888.2966666666666"/>
  <unicode hex="0055"/>
  <anchor x="444.49666666666667" y="0.0" name="bottom"/>
  <anchor x="646.79" y="1.5166666666666666" name="ogonek"/>
  <anchor x="444.49666666666667" y="1278.0" name="top"/>
  <anchor x="892.0500000000001" y="1278.0" name="topright"/>
  <outline>
    <contour>
      <point x="444.49666666666667" y="-21.09" type="curve" smooth="yes"/>
      <point x="694.2066666666666" y="-21.09"/>
      <point x="813.3199999999999" y="120.63"/>
      <point x="813.3199999999999" y="392.16" type="curve" smooth="yes"/>
      <point x="813.3199999999999" y="1278.0" type="line"/>
      <point x="535.7866666666666" y="1278.0" type="line"/>
      <point x="535.7866666666666" y="367.40666666666664" type="line" smooth="yes"/>
      <point x="535.7866666666666" y="262.0033333333334"/>
      <point x="513.4166666666666" y="213.72333333333333"/>
      <point x="444.49666666666667" y="213.72333333333333" type="curve" smooth="yes"/>
      <point x="374.88" y="213.72333333333333"/>
      <point x="352.51" y="262.0033333333334"/>
      <point x="352.51" y="367.40666666666664" type="curve" smooth="yes"/>
      <point x="352.51" y="1278.0" type="line"/>
      <point x="74.97666666666666" y="1278.0" type="line"/>
      <point x="74.97666666666666" y="392.16" type="line" smooth="yes"/>
      <point x="74.97666666666666" y="120.63"/>
      <point x="194.08999999999997" y="-21.09"/>
    </contour>
  </outline>
</glyph>
<glyph name="V" format="2">
  <advance width="838.87"/>
  <unicode hex="0056"/>
  <anchor x="419.2833333333333" y="0.0" name="bottom"/>
  <anchor x="419.2833333333333" y="1278.0" name="top"/>
  <outline>
    <contour>
      <point x="200.43666666666667" y="0.0" type="line"/>
      <point x="638.4333333333333" y="0.0" type="line"/>
      <point x="815.41" y="1278.0" type="line"/>
      <point x="540.27" y="1278.0" type="line"/>
      <point x="429.28333333333336" y="196.88" type="line"/>
      <point x="409.2833333333333" y="196.88" type="line"/>
      <point x="298.6" y="1278.0" type="line"/>
      <point x="23.46" y="1278.0" type="line"/>
    </contour>
  </outline>
</glyph>
<glyph name="W" format="2">
  <advance width="1240.3666666666668"/>
  <unicode hex="0057"/>
  <anchor x="620.1833333333334" y="0.0" name="bottom"/>
  <anchor x="620.1833333333334" y="1278.0" name="top"/>
  <outline>
    <contour>
      <point x="154.9766666666667" y="0.0" type="line"/>
      <point x="540.0833333333333" y="0.0" type="line"/>
      <point x="600.96" y="799.2233333333334" type="line"/>
      <point x="615.8800000000001" y="1027.76" type="line"/>
      <point x="626.5766666666667" y="1027.76" type="line"/>
      <point x="640.8000000000001" y="799.2233333333334" type="line"/>
      <point x="703.07" y="0.0" type="line"/>
      <point x="1088.1766666666667" y="0.0" type="line"/>
      <point x="1208.3000000000002" y="1278.0" type="line"/>
      <point x="935.9466666666666" y="1278.0" type="line"/>
      <point x="881.0033333333334" y="402.62333333333333" type="line"/>
      <point x="870.3300000000002" y="229.81333333333336" type="line"/>
      <point x="859.6333333333334" y="229.81333333333336" type="line"/>
      <point x="845.7466666666666" y="402.6233333333334" type="line"/>
      <point x="772.4433333333334" y="1257.27" type="line"/>
      <point x="469.3166666666666" y="1257.27" type="line"/>
      <point x="394.62" y="402.6233333333334" type="line"/>
      <point x="380.7333333333334" y="229.81333333333336" type="line"/>
      <point x="370.0366666666667" y="229.81333333333336" type="line"/>
      <point x="360.06" y="402.6233333333334" type="line"/>
      <point x="307.20666666666665" y="1278.0" type="line"/>
      <point x="32.06666666666666" y="1278.0" type="line"/>
    </contour>
  </outline>
</glyph>
<glyph name="X" format="2">
  <advance width="805.2066666666667"/>
  <unicode hex="0058"/>
  <anchor x="403.10333333333335" y="0.0" name="bottom"/>
  <anchor x="403.10333333333335" y="1278.0" name="top"/>
  <outline>
    <contour>
      <point x="22.066666666666666" y="0.0" type="line"/>
      <point x="285.4533333333333" y="0.0" type="line"/>
      <point x="395.71" y="512.75" type="line"/>
      <point x="409.4966666666666" y="512.75" type="line"/>
      <point x="519.7533333333333" y="0.0" type="line"/>
      <point x="783.1399999999999" y="0.0" type="line"/>
      <point x="598.8933333333334" y="703.54" type="line"/>
      <point x="598.8933333333334" y="631.55" type="line"/>
      <point x="776.4433333333333" y="1278.0" type="line"/>
      <point x="512.6633333333334" y="1278.0" type="line"/>
      <point x="409.4966666666666" y="805.7666666666667" type="line"/>
      <point x="395.71000000000004" y="805.7666666666667" type="line"/>
      <point x="292.54333333333335" y="1278.0" type="line"/>
      <point x="28.763333333333332" y="1278.0" type="line"/>
      <point x="204.92" y="631.55" type="line"/>
      <point x="204.92" y="703.54" type="line"/>
    </contour>
  </outline>
</glyph>
<glyph name="Y" format="2">
  <advance width="790.1733333333334"/>
  <unicode hex="0059"/>
  <anchor x="395.58666666666664" y="0.0" name="bottom"/>
  <anchor x="395.58666666666664" y="1278.0" name="top"/>
  <anchor x="20.0" y="1278.0" name="topleft"/>
  <outline>
    <contour>
      <point x="268.69666666666666" y="332.3233333333333" type="line"/>
      <point x="524.1733333333333" y="332.3233333333333" type="line"/>
      <point x="783.8033333333334" y="1278.0" type="line"/>
      <point x="508.9666666666667" y="1278.0" type="line"/>
      <point x="441.2266666666667" y="902.7" type="line"/>
      <point x="403.6766666666666" y="675.0033333333333" type="line"/>
      <point x="389.1933333333333" y="675.0033333333333" type="line"/>
      <point x="351.94666666666666" y="902.7" type="line"/>
      <point x="281.2066666666667" y="1278.0" type="line"/>
      <point x="6.370000000000001" y="1278.0" type="line"/>
    </contour>
    <contour>
      <point x="263.91" y="0.0" type="line"/>
      <point x="528.96" y="0.0" type="line"/>
      <point x="528.96" y="597.1366666666667" type="line"/>
      <point x="263.91" y="597.1366666666667" type="line"/>
    </contour>
  </outline>
</glyph>
<glyph name="Z" format="2">
  <advance width="714.6666666666667"/>
  <unicode hex="005A"/>
  <anchor x="357.83333333333337" y="0.0" name="bottom"/>
  <anchor x="357.83333333333337" y="639.0" name="center"/>
  <anchor x="357.83333333333337" y="1278.0" name="top"/>
  <outline>
    <contour>
      <point x="669.0266666666666" y="248.47666666666663" type="line"/>
      <point x="321.20666666666665" y="248.47666666666663" type="line"/>
      <point x="661.6333333333333" y="1055.2766666666666" type="line"/>
      <point x="661.6333333333333" y="1278.0" type="line"/>
      <point x="49.64" y="1278.0" type="line"/>
      <point x="49.64" y="1030.9166666666665" type="line"/>
      <point x="382.28000000000003" y="1030.9166666666665" type="line"/>
      <point x="43.943333333333335" y="224.42000000000002" type="line"/>
      <point x="43.943333333333335" y="0.0" type="line"/>
      <point x="669.0266666666666" y="0.0" type="line"/>
    </contour>
  </outline>
</glyph>
<glyph name="bracketleft" format="2">
  <advance width="506.15999999999997"/>
  <unicode hex="005B"/>
  <outline>
    <contour>
      <point x="84.97666666666666" y="-239.3033333333333" type="line"/>
      <point x="474.15999999999997" y="-239.3033333333333" type="line"/>
      <point x="474.15999999999997" y="-30.636666666666667" type="line"/>
      <point x="340.24" y="-30.636666666666667" type="line"/>
      <point x="340.24" y="1143.3333333333333" type="line"/>
      <point x="474.15999999999997" y="1143.3333333333333" type="line"/>
      <point x="474.15999999999997" y="1352.0" type="line"/>
      <point x="84.97666666666666" y="1352.0" type="line"/>
    </contour>
  </outline>
</glyph>
<glyph name="backslash" format="2">
  <advance width="589.8566666666667"/>
  <unicode hex="005C"/>
  <outline>
    <contour>
      <point x="582.2733333333333" y="-239.30333333333334" type="line"/>
      <point x="244.60999999999999" y="1352.0" type="line"/>
      <point x="7.583333333333336" y="1352.0" type="line"/>
      <point x="344.9433333333333" y="-239.30333333333334" type="line"/>
    </contour>
  </outline>
</glyph>
<glyph name="bracketright" format="2">
  <advance width="506.15999999999997"/>
  <unicode hex="005D"/>
  <outline>
    <contour>
      <point x="421.1833333333334" y="-239.3033333333333" type="line"/>
      <point x="421.1833333333334" y="1352.0" type="line"/>
      <point x="32.0" y="1352.0" type="line"/>
      <point x="32.0" y="1143.3333333333333" type="line"/>
      <point x="165.92" y="1143.3333333333333" type="line"/>
      <point x="165.92" y="-30.636666666666667" type="line"/>
      <point x="32.0" y="-30.636666666666667" type="line"/>
      <point x="32.0" y="-239.3033333333333" type="line"/>
    </contour>
  </outline>
</glyph>
<glyph name="asciicircum" format="2">
  <advance width="650.2733333333333"/>
  <unicode hex="005E"/>
  <outline>
    <contour>
      <point x="150.2233333333333" y="1278.0" type="line"/>
      <point x="18.189999999999998" y="619.5166666666667" type="line"/>
      <point x="230.64333333333332" y="619.5166666666667" type="line"/>
      <point x="321.13666666666666" y="1139.1333333333332" type="line"/>
      <point x="329.13666666666666" y="1139.1333333333332" type="line"/>
      <point x="419.63000000000005" y="619.5166666666667" type="line"/>
      <point x="632.0833333333334" y="619.5166666666667" type="line"/>
      <point x="499.3533333333334" y="1278.0" type="line"/>
    </contour>
  </outline>
</glyph>
<glyph name="underscore" format="2">
  <advance width="608.63"/>
  <unicode hex="005F"/>
  <outline>
    <contour>
      <point x="21.460000000000004" y="-239.58666666666664" type="line"/>
      <point x="587.1700000000001" y="-239.58666666666664" type="line"/>
      <point x="587.1700000000001" y="-28.04333333333334" type="line"/>
      <point x="21.460000000000004" y="-28.04333333333334" type="line"/>
    </contour>
  </outline>
</glyph>
<glyph name="grave" format="2">
  <advance width="574.3866666666667"/>
  <unicode hex="0060"/>
  <anchor x="374.25" y="1003.5733333333334" name="_top"/>
  <anchor x="372.73333333333335" y="1351.1366666666665" name="top"/>
  <outline>
    <contour>
      <point x="360.38666666666666" y="1360.8433333333332" type="line"/>
      <point x="98.78666666666666" y="1360.8433333333332" type="line"/>
      <point x="98.78666666666666" y="1360.8433333333335" type="line"/>
      <point x="272.9" y="1080.8533333333335" type="line"/>
      <point x="475.6" y="1080.8533333333335" type="line"/>
      <point x="475.6" y="1080.8533333333335" type="line"/>
    </contour>
  </outline>
</glyph>
<glyph name="a" format="2">
  <advance width="763.42"/>
  <unicode hex="0061"/>
  <anchor x="382.28333333333336" y="0.0" name="bottom"/>
  <anchor x="725.87" y="0.0" name="ogonek"/>
  <anchor x="382.28333333333336" y="1003.5733333333334" name="top"/>
  <outline>
    <contour>
      <point x="439.66333333333336" y="0.0" type="line"/>
      <point x="698.05" y="0.0" type="line"/>
      <point x="698.05" y="653.1666666666666" type="line" smooth="yes"/>
      <point x="698.05" y="899.4266666666666"/>
      <point x="596.4533333333334" y="1020.9666666666667"/>
      <point x="362.9233333333333" y="1020.9666666666667" type="curve" smooth="yes"/>
      <point x="247.89999999999998" y="1020.9666666666667"/>
      <point x="154.05666666666667" y="986.5733333333334"/>
      <point x="91.09" y="949.5733333333334" type="curve"/>
      <point x="74.21333333333332" y="726.6933333333334" type="line"/>
      <point x="139.39333333333335" y="759.8166666666667"/>
      <point x="222.66333333333336" y="793.03"/>
      <point x="305.93333333333334" y="793.03" type="curve" smooth="yes"/>
      <point x="404.1466666666667" y="793.03"/>
      <point x="435.18" y="749.2666666666668"/>
      <point x="435.18" y="646.1666666666667" type="curve"/>
      <point x="439.36" y="605.18" type="line"/>
      <point x="439.36" y="201.95666666666668" type="line"/>
      <point x="449.45" y="201.95666666666668" type="line"/>
    </contour>
    <contour>
      <point x="246.60666666666668" y="-14.696666666666667" type="curve" smooth="yes"/>
      <point x="373.7533333333334" y="-14.696666666666667"/>
      <point x="417.66333333333336" y="65.44999999999999"/>
      <point x="437.35999999999996" y="170.77666666666664" type="curve"/>
      <point x="471.72" y="170.77666666666664" type="line"/>
      <point x="440.96666666666664" y="282.0233333333333" type="line"/>
      <point x="432.14666666666665" y="235.3733333333333"/>
      <point x="408.3833333333334" y="201.66666666666669"/>
      <point x="362.5866666666667" y="201.66666666666669" type="curve" smooth="yes"/>
      <point x="308.7" y="201.66666666666669"/>
      <point x="290.66666666666663" y="240.73333333333332"/>
      <point x="290.66666666666663" y="307.95666666666665" type="curve" smooth="yes"/>
      <point x="290.66666666666663" y="337.81" type="line" smooth="yes"/>
      <point x="290.66666666666663" y="397.21333333333337"/>
      <point x="316.4866666666666" y="426.28"/>
      <point x="374.37333333333333" y="441.6166666666667" type="curve" smooth="yes"/>
      <point x="492.99" y="473.0766666666667" type="line"/>
      <point x="463.8433333333333" y="654.9666666666667" type="line"/>
      <point x="306.29333333333335" y="616.1133333333332" type="line" smooth="yes"/>
      <point x="122.57333333333332" y="571.6866666666666"/>
      <point x="38.55" y="501.26"/>
      <point x="38.55" y="314.18" type="curve" smooth="yes"/>
      <point x="38.55" y="265.63" type="line" smooth="yes"/>
      <point x="38.55" y="83.87666666666667"/>
      <point x="106.72999999999999" y="-14.696666666666667"/>
    </contour>
  </outline>
</glyph>
<glyph name="b" format="2">
  <advance width="827.3866666666667"/>
  <unicode hex="0062"/>
  <anchor x="414.1933333333333" y="0.0" name="bottom"/>
  <anchor x="414.1933333333333" y="1325.5166666666667" name="top"/>
  <outline>
    <contour>
      <point x="543.2633333333333" y="-14.696666666666667" type="curve" smooth="yes"/>
      <point x="711.8033333333333" y="-14.696666666666667"/>
      <point x="770.6233333333334" y="114.84333333333332"/>
      <point x="770.6233333333334" y="364.31666666666666" type="curve" smooth="yes"/>
      <point x="770.6233333333334" y="627.02" type="line" smooth="yes"/>
      <point x="770.6233333333334" y="883.1566666666666"/>
      <point x="709.7133333333334" y="1018.27"/>
      <point x="545.3533333333334" y="1018.27" type="curve" smooth="yes"/>
      <point x="416.33000000000004" y="1018.27"/>
      <point x="365.7233333333333" y="939.73"/>
      <point x="347.1166666666667" y="830.7066666666666" type="curve"/>
      <point x="302.4533333333333" y="830.7066666666666" type="line"/>
      <point x="334.72333333333336" y="716.7966666666667" type="line"/>
      <point x="345.54333333333335" y="765.93"/>
      <point x="374.39666666666665" y="799.6366666666667"/>
      <point x="422.31666666666666" y="799.6366666666667" type="curve" smooth="yes"/>
      <point x="482.0233333333333" y="799.6366666666667"/>
      <point x="501.18" y="752.9633333333334"/>
      <point x="501.18" y="656.2566666666668" type="curve" smooth="yes"/>
      <point x="501.18" y="356.71" type="line" smooth="yes"/>
      <point x="501.18" y="259.0933333333333"/>
      <point x="481.41666666666663" y="210.72333333333333"/>
      <point x="422.0133333333333" y="210.72333333333333" type="curve" smooth="yes"/>
      <point x="362.00333333333333" y="210.72333333333333"/>
      <point x="337.0266666666667" y="257.8233333333333"/>
      <point x="336.7233333333333" y="342.62" type="curve"/>
      <point x="268.0366666666667" y="176.35" type="line"/>
      <point x="341.33" y="176.35" type="line"/>
      <point x="361.93666666666667" y="68.32666666666667"/>
      <point x="413.5433333333333" y="-14.696666666666667"/>
    </contour>
    <contour>
      <point x="72.67333333333333" y="0.0" type="line"/>
      <point x="339.02666666666664" y="0.0" type="line"/>
      <point x="329.24" y="206.13666666666666" type="line"/>
      <point x="336.7233333333333" y="212.20333333333335" type="line"/>
      <point x="336.7233333333333" y="779.64" type="line"/>
      <point x="336.41999999999996" y="805.82" type="line"/>
      <point x="340.41999999999996" y="1093.8666666666666" type="line"/>
      <point x="340.41999999999996" y="1325.5166666666667" type="line"/>
      <point x="72.67333333333333" y="1325.5166666666667" type="line"/>
    </contour>
  </outline>
</glyph>
<glyph name="c" format="2">
  <advance width="614.9133333333333"/>
  <unicode hex="0063"/>
  <anchor x="342.35" y="0.0" name="bottom"/>
  <anchor x="342.35" y="1003.5733333333334" name="top"/>
  <outline>
    <contour>
      <point x="375.22666666666663" y="-14.696666666666665" type="curve" smooth="yes"/>
      <point x="454.1933333333333" y="-14.696666666666665"/>
      <point x="523.25" y="5.91"/>
      <point x="568.2166666666667" y="35.12333333333333" type="curve"/>
      <point x="585.0933333333334" y="263.06" type="line"/>
      <point x="552.2733333333333" y="240.32999999999998"/>
      <point x="510.6666666666667" y="223.51"/>
      <point x="459.84666666666664" y="223.51" type="curve" smooth="yes"/>
      <point x="363.72333333333336" y="223.51"/>
      <point x="322.41999999999996" y="281.4533333333333"/>
      <point x="322.41999999999996" y="385.00333333333333" type="curve" smooth="yes"/>
      <point x="322.41999999999996" y="623.0533333333334" type="line" smooth="yes"/>
      <point x="322.41999999999996" y="727.5133333333333"/>
      <point x="358.02666666666664" y="785.4566666666667"/>
      <point x="452.4533333333334" y="785.4566666666667" type="curve" smooth="yes"/>
      <point x="503.1833333333334" y="785.4566666666667"/>
      <point x="541.3966666666668" y="768.6366666666667"/>
      <point x="577.0033333333333" y="745.9066666666668" type="curve"/>
      <point x="560.1266666666667" y="968.7533333333333" type="line"/>
      <point x="515.5533333333333" y="997.36"/>
      <point x="453.2833333333333" y="1018.27"/>
      <point x="375.3166666666667" y="1018.27" type="curve" smooth="yes"/>
      <point x="155.48333333333335" y="1018.27"/>
      <point x="54.370000000000005" y="877.46"/>
      <point x="54.370000000000005" y="632.02" type="curve" smooth="yes"/>
      <point x="54.370000000000005" y="370.55333333333334" type="line" smooth="yes"/>
      <point x="54.370000000000005" y="125.80999999999999"/>
      <point x="154.09" y="-14.696666666666665"/>
    </contour>
  </outline>
</glyph>
<glyph name="d" format="2">
  <advance width="828.0833333333334"/>
  <unicode hex="0064"/>
  <anchor x="413.89000000000004" y="0.0" name="bottom"/>
  <anchor x="413.89000000000004" y="501.78666666666663" name="center"/>
  <anchor x="413.89000000000004" y="1325.5166666666667" name="top"/>
  <anchor x="838.24" y="1325.5166666666667" name="topright"/>
  <outline>
    <contour>
      <point x="282.33666666666664" y="-14.696666666666667" type="curve" smooth="yes"/>
      <point x="417.53999999999996" y="-14.696666666666667"/>
      <point x="467.45000000000005" y="70.81"/>
      <point x="486.75333333333333" y="176.35" type="curve"/>
      <point x="532.1133333333332" y="176.35" type="line"/>
      <point x="492.66333333333336" y="292.8666666666667" type="line"/>
      <point x="481.84333333333336" y="244.42999999999998"/>
      <point x="452.99" y="210.72333333333333"/>
      <point x="406.4633333333333" y="210.72333333333333" type="curve" smooth="yes"/>
      <point x="346.06" y="210.72333333333333"/>
      <point x="326.2066666666667" y="257.39666666666665"/>
      <point x="326.2066666666667" y="354.10333333333335" type="curve" smooth="yes"/>
      <point x="326.2066666666667" y="656.4366666666666" type="line" smooth="yes"/>
      <point x="326.2066666666667" y="752.66"/>
      <point x="346.6666666666667" y="799.6366666666667"/>
      <point x="405.3733333333333" y="799.6366666666667" type="curve" smooth="yes"/>
      <point x="465.38333333333327" y="799.6366666666667"/>
      <point x="490.36000000000007" y="751.84"/>
      <point x="490.6633333333333" y="667.7399999999999" type="curve"/>
      <point x="541.7199999999999" y="830.7066666666666" type="line"/>
      <point x="480.27000000000004" y="830.7066666666666" type="line"/>
      <point x="458.27" y="939.4266666666666"/>
      <point x="410.75333333333333" y="1018.27"/>
      <point x="284.82" y="1018.27" type="curve" smooth="yes"/>
      <point x="117.28" y="1018.27"/>
      <point x="56.76333333333333" y="885.2466666666667"/>
      <point x="56.76333333333333" y="626.7166666666667" type="curve" smooth="yes"/>
      <point x="56.76333333333333" y="363.4066666666667" type="line" smooth="yes"/>
      <point x="56.76333333333333" y="116.63"/>
      <point x="118.67333333333335" y="-14.696666666666667"/>
    </contour>
    <contour>
      <point x="488.36" y="0.0" type="line"/>
      <point x="755.41" y="0.0" type="line"/>
      <point x="755.41" y="1325.5166666666667" type="line"/>
      <point x="487.6633333333333" y="1325.5166666666667" type="line"/>
      <point x="487.6633333333333" y="1093.8666666666666" type="line"/>
      <point x="490.9666666666667" y="804.4266666666667" type="line"/>
      <point x="490.6633333333333" y="768.4933333333333" type="line"/>
      <point x="490.6633333333333" y="235.39666666666665" type="line"/>
      <point x="498.14666666666665" y="209.62" type="line"/>
    </contour>
  </outline>
</glyph>
<glyph name="e" format="2">
  <advance width="768.6899999999999"/>
  <unicode hex="0065"/>
  <anchor x="397.62000000000006" y="0.0" name="bottom"/>
  <anchor x="685.5666666666666" y="10.0" name="ogonek"/>
  <anchor x="395.49666666666667" y="1003.5733333333334" name="top"/>
  <outline>
    <contour>
      <point x="444.03666666666663" y="-14.696666666666667" type="curve" smooth="yes"/>
      <point x="542.1833333333333" y="-14.696666666666667"/>
      <point x="630.42" y="7.213333333333334"/>
      <point x="692.1733333333333" y="39.60666666666667" type="curve"/>
      <point x="708.3533333333334" y="255.60999999999996" type="line"/>
      <point x="649.4766666666667" y="229.57666666666668"/>
      <point x="579.2066666666667" y="211.15"/>
      <point x="502.0266666666667" y="211.15" type="curve" smooth="yes"/>
      <point x="377.15000000000003" y="211.15"/>
      <point x="315.54333333333335" y="258.3066666666667"/>
      <point x="315.54333333333335" y="370.58666666666664" type="curve" smooth="yes"/>
      <point x="315.54333333333335" y="461.33666666666664" type="line"/>
      <point x="313.4533333333333" y="505.27" type="line"/>
      <point x="313.4533333333333" y="666.2" type="line" smooth="yes"/>
      <point x="313.4533333333333" y="763.9633333333334"/>
      <point x="331.9133333333333" y="807.6033333333334"/>
      <point x="393.1933333333333" y="807.6033333333334" type="curve" smooth="yes"/>
      <point x="453.17" y="807.6033333333334"/>
      <point x="472.2366666666667" y="763.9633333333334"/>
      <point x="472.2366666666667" y="666.1999999999999" type="curve" smooth="yes"/>
      <point x="472.2366666666667" y="600.3133333333334"/>
      <point x="472.2366666666667" y="513.4033333333333"/>
      <point x="472.2366666666666" y="394.01" type="curve"/>
      <point x="707.2633333333333" y="394.01" type="line"/>
      <point x="717.3533333333334" y="451.01000000000005"/>
      <point x="720.7466666666667" y="509.2799999999999"/>
      <point x="720.7466666666667" y="567.7633333333333" type="curve" smooth="yes"/>
      <point x="720.7466666666667" y="642.02" type="line" smooth="yes"/>
      <point x="720.7466666666667" y="890.3366666666666"/>
      <point x="615.42" y="1021.9666666666666"/>
      <point x="393.1933333333333" y="1021.9666666666666" type="curve" smooth="yes"/>
      <point x="162.78666666666666" y="1021.9666666666666"/>
      <point x="54.370000000000005" y="884.4933333333333"/>
      <point x="54.370000000000005" y="625.9066666666666" type="curve" smooth="yes"/>
      <point x="54.370000000000005" y="401.2166666666667" type="line" smooth="yes"/>
      <point x="54.370000000000005" y="125.20333333333332"/>
      <point x="181.87666666666667" y="-14.696666666666667"/>
    </contour>
    <contour>
      <point x="221.58666666666667" y="394.01" type="line"/>
      <point x="649.15" y="394.01" type="line"/>
      <point x="649.15" y="577.99" type="line"/>
      <point x="221.58666666666667" y="577.99" type="line"/>
    </contour>
  </outline>
</glyph>
<glyph name="f" format="2">
  <advance width="561.5866666666666"/>
  <unicode hex="0066"/>
  <anchor x="281.2933333333333" y="0.0" name="bottom"/>
  <anchor x="281.2933333333333" y="1334.0" name="top"/>
  <outline>
    <contour>
      <point x="334.63" y="1355.0900000000001" type="curve" smooth="yes"/>
      <point x="166.94333333333333" y="1355.0900000000001"/>
      <point x="79.37" y="1282.18"/>
      <point x="79.37" y="1156.8766666666668" type="curve" smooth="yes"/>
      <point x="79.37" y="1152.5733333333335" type="line" smooth="yes"/>
      <point x="79.37" y="1073.6066666666666"/>
      <point x="126.21333333333334" y="1017.0"/>
      <point x="187.72" y="991.8766666666667" type="curve"/>
      <point x="187.72" y="963.8199999999999" type="line"/>
      <point x="360.84666666666664" y="962.9100000000001" type="line"/>
      <point x="347.93666666666667" y="988.46"/>
      <point x="338.7233333333333" y="1011.1333333333333"/>
      <point x="338.7233333333333" y="1044.29" type="curve" smooth="yes"/>
      <point x="338.7233333333333" y="1046.8966666666665" type="line" smooth="yes"/>
      <point x="338.7233333333333" y="1105.7833333333335"/>
      <point x="373.06" y="1137.2433333333333"/>
      <point x="444.00333333333333" y="1137.2433333333333" type="curve" smooth="yes"/>
      <point x="483.6433333333333" y="1137.2433333333333"/>
      <point x="516.5533333333333" y="1129.4233333333332"/>
      <point x="542.98" y="1120.6033333333332" type="curve"/>
      <point x="524.4066666666666" y="1318.7866666666666" type="line"/>
      <point x="481.8333333333333" y="1337.0900000000001"/>
      <point x="416.47333333333336" y="1355.0900000000001"/>
    </contour>
    <contour>
      <point x="105.67333333333333" y="0.0" type="line"/>
      <point x="370.93666666666667" y="0.0" type="line"/>
      <point x="370.93666666666667" y="909.28" type="line"/>
      <point x="105.67333333333333" y="909.28" type="line"/>
    </contour>
    <contour>
      <point x="14.91" y="766.3333333333333" type="line"/>
      <point x="527.1933333333334" y="766.3333333333333" type="line"/>
      <point x="544.0699999999999" y="983.8766666666667" type="line"/>
      <point x="328.4866666666667" y="983.8766666666667" type="line"/>
      <point x="227.17" y="982.18" type="line"/>
      <point x="14.91" y="983.8766666666667" type="line"/>
    </contour>
  </outline>
</glyph>
<glyph name="g" format="2">
  <advance width="773.8133333333334"/>
  <unicode hex="0067"/>
  <anchor x="388.92333333333335" y="-350.0" name="bottom"/>
  <anchor x="388.3166666666666" y="1003.5733333333334" name="top"/>
  <outline>
    <contour>
      <point x="389.98" y="272.08" type="curve"/>
      <point x="606.2066666666666" y="272.08"/>
      <point x="713.05" y="381.9233333333333"/>
      <point x="713.05" y="560.3833333333333" type="curve" smooth="yes"/>
      <point x="713.05" y="606.9633333333334" type="line" smooth="yes"/>
      <point x="713.05" y="739.7166666666666"/>
      <point x="655.3299999999999" y="806.84"/>
      <point x="531.8566666666667" y="826.2666666666667" type="curve"/>
      <point x="531.8566666666667" y="835.9633333333334" type="line"/>
      <point x="757.5433333333334" y="827.57" type="line"/>
      <point x="757.5433333333334" y="1031.36" type="line"/>
      <point x="403.58666666666664" y="1015.5733333333334" type="line" smooth="yes"/>
      <point x="145.36" y="1003.7866666666667"/>
      <point x="47.19" y="871.91"/>
      <point x="47.19" y="670.2566666666667" type="curve" smooth="yes"/>
      <point x="47.19" y="589.6433333333333" type="line" smooth="yes"/>
      <point x="47.19" y="381.2266666666667"/>
      <point x="177.91" y="272.08"/>
    </contour>
    <contour>
      <point x="373.0466666666666" y="-161.51333333333335" type="line" smooth="yes"/>
      <point x="291.98" y="-161.51333333333335"/>
      <point x="258.0933333333333" y="-130.17666666666668"/>
      <point x="258.0933333333333" y="-82.38000000000001" type="curve" smooth="yes"/>
      <point x="258.0933333333333" y="-81.07666666666668" type="line" smooth="yes"/>
      <point x="258.0933333333333" y="-37.67333333333333"/>
      <point x="285.97999999999996" y="-10.426666666666666"/>
      <point x="337.4166666666667" y="2.910000000000002" type="curve"/>
      <point x="292.63" y="3.9999999999999982" type="line"/>
      <point x="448.2833333333333" y="-25.483333333333334" type="line" smooth="yes"/>
      <point x="501.4166666666667" y="-36.21333333333333"/>
      <point x="533.9333333333334" y="-51.67333333333333"/>
      <point x="533.9333333333334" y="-93.34666666666668" type="curve" smooth="yes"/>
      <point x="533.9333333333334" y="-94.65" type="line" smooth="yes"/>
      <point x="533.9333333333334" y="-136.87333333333333"/>
      <point x="500.34999999999997" y="-161.51333333333335"/>
      <point x="417.89" y="-161.51333333333335" type="curve" smooth="yes"/>
    </contour>
    <contour>
      <point x="357.08" y="-369.78666666666663" type="curve" smooth="yes"/>
      <point x="407.71000000000004" y="-369.78666666666663" type="line" smooth="yes"/>
      <point x="634.4533333333333" y="-369.78666666666663"/>
      <point x="768.6566666666666" y="-276.9433333333334"/>
      <point x="768.6566666666666" y="-106.13333333333334" type="curve" smooth="yes"/>
      <point x="768.6566666666666" y="-96.04333333333334" type="line" smooth="yes"/>
      <point x="768.6566666666666" y="56.55333333333334"/>
      <point x="695.4200000000001" y="128.67666666666665"/>
      <point x="520.2733333333333" y="168.9466666666667" type="curve" smooth="yes"/>
      <point x="368.28333333333336" y="204.30666666666667" type="line" smooth="yes"/>
      <point x="326.00333333333333" y="213.52"/>
      <point x="306.6666666666667" y="222.55333333333334"/>
      <point x="306.6666666666667" y="245.8" type="curve" smooth="yes"/>
      <point x="306.6666666666667" y="246.10333333333335" type="line" smooth="yes"/>
      <point x="306.6666666666667" y="265.95666666666665"/>
      <point x="323.52" y="276.3833333333333"/>
      <point x="352.40666666666664" y="276.3833333333333" type="curve"/>
      <point x="375.13666666666666" y="276.3833333333333" type="line"/>
      <point x="223.9" y="326.83333333333337" type="line"/>
      <point x="223.9" y="292.68666666666667" type="line"/>
      <point x="122.12333333333332" y="287.56333333333333"/>
      <point x="62.76333333333334" y="246.68666666666667"/>
      <point x="62.76333333333334" y="165.45000000000002" type="curve" smooth="yes"/>
      <point x="62.76333333333334" y="163.45" type="line" smooth="yes"/>
      <point x="62.76333333333334" y="88.96666666666667"/>
      <point x="111.67333333333333" y="45.57333333333334"/>
      <point x="207.87666666666667" y="26.48333333333333" type="curve"/>
      <point x="207.87666666666667" y="17.48333333333333" type="line"/>
      <point x="103.33666666666667" y="6.236666666666668"/>
      <point x="26.066666666666666" y="-42.763333333333335"/>
      <point x="26.066666666666666" y="-158.51666666666668" type="curve" smooth="yes"/>
      <point x="26.066666666666666" y="-162.51666666666668" type="line" smooth="yes"/>
      <point x="26.066666666666666" y="-304.09"/>
      <point x="147.60666666666668" y="-369.78666666666663"/>
    </contour>
    <contour>
      <point x="385.1033333333333" y="461.9033333333333" type="curve" smooth="yes"/>
      <point x="326.3066666666667" y="461.9033333333333"/>
      <point x="305.15" y="506.66666666666663"/>
      <point x="305.15" y="594.34" type="curve" smooth="yes"/>
      <point x="305.15" y="680.8633333333333" type="line" smooth="yes"/>
      <point x="305.15" y="769.93"/>
      <point x="326.3066666666667" y="812.6933333333333"/>
      <point x="383.7099999999999" y="812.6933333333333" type="curve" smooth="yes"/>
      <point x="385.71000000000004" y="812.6933333333333" type="line" smooth="yes"/>
      <point x="441.50666666666666" y="812.6933333333333"/>
      <point x="461.66333333333336" y="767.6266666666667"/>
      <point x="461.66333333333336" y="681.47" type="curve" smooth="yes"/>
      <point x="461.66333333333336" y="594.34" type="line" smooth="yes"/>
      <point x="461.66333333333336" y="506.66666666666663"/>
      <point x="441.2033333333333" y="461.9033333333333"/>
    </contour>
  </outline>
</glyph>
<glyph name="h" format="2">
  <advance width="835.0833333333334"/>
  <unicode hex="0068"/>
  <anchor x="418.1933333333334" y="0.0" name="bottom"/>
  <anchor x="418.1933333333334" y="667.0" name="center"/>
  <anchor x="207.04666666666668" y="1325.5166666666667" name="top"/>
  <outline>
    <contour>
      <point x="497.5733333333334" y="0.0" type="line"/>
      <point x="767.0166666666667" y="0.0" type="line"/>
      <point x="767.0166666666667" y="723.9100000000001" type="line" smooth="yes"/>
      <point x="767.0166666666667" y="918.7866666666667"/>
      <point x="704.32" y="1018.27"/>
      <point x="552.87" y="1018.27" type="curve" smooth="yes"/>
      <point x="415.8466666666667" y="1018.27"/>
      <point x="366.0266666666667" y="935.55"/>
      <point x="347.1166666666666" y="830.7066666666666" type="curve"/>
      <point x="272.91333333333336" y="830.7066666666666" type="line"/>
      <point x="340.1166666666667" y="710.7066666666667" type="line"/>
      <point x="349.24" y="758.4466666666666"/>
      <point x="377.78999999999996" y="793.5466666666666"/>
      <point x="423.71" y="793.5466666666666" type="curve" smooth="yes"/>
      <point x="480.0233333333333" y="793.5466666666666"/>
      <point x="497.5733333333334" y="754.2666666666667"/>
      <point x="497.5733333333334" y="676.1333333333333" type="curve" smooth="yes"/>
    </contour>
    <contour>
      <point x="72.67333333333333" y="0.0" type="line"/>
      <point x="342.1166666666666" y="0.0" type="line"/>
      <point x="342.1166666666666" y="742.5933333333334" type="line"/>
      <point x="336.41999999999996" y="790.7966666666667" type="line"/>
      <point x="340.41999999999996" y="1093.8666666666668" type="line"/>
      <point x="340.41999999999996" y="1325.5166666666667" type="line"/>
      <point x="72.67333333333333" y="1325.5166666666667" type="line"/>
    </contour>
  </outline>
</glyph>
<glyph name="i" format="2">
  <advance width="415.91333333333336"/>
  <unicode hex="0069"/>
  <anchor x="207.95666666666668" y="0.0" name="bottom"/>
  <anchor x="370.15" y="0.0" name="ogonek"/>
  <outline>
    <contour>
      <point x="73.58333333333334" y="0.0" type="line"/>
      <point x="342.33" y="0.0" type="line"/>
      <point x="342.33" y="1003.5733333333334" type="line"/>
      <point x="73.58333333333334" y="1003.5733333333334" type="line"/>
    </contour>
    <contour>
      <point x="207.95666666666668" y="1079.3799999999999" type="curve" smooth="yes"/>
      <point x="303.61" y="1079.3799999999999"/>
      <point x="347.93666666666667" y="1132.3133333333335"/>
      <point x="347.93666666666667" y="1215.73" type="curve" smooth="yes"/>
      <point x="347.93666666666667" y="1227.0333333333335" type="line" smooth="yes"/>
      <point x="347.93666666666667" y="1310.4499999999998"/>
      <point x="303.61" y="1363.08"/>
      <point x="207.95666666666668" y="1363.08" type="curve" smooth="yes"/>
      <point x="112.30333333333334" y="1363.08"/>
      <point x="67.97666666666667" y="1310.4499999999998"/>
      <point x="67.97666666666667" y="1227.0333333333335" type="curve" smooth="yes"/>
      <point x="67.97666666666667" y="1215.73" type="line" smooth="yes"/>
      <point x="67.97666666666667" y="1132.3133333333335"/>
      <point x="112.30333333333334" y="1079.3799999999999"/>
    </contour>
  </outline>
</glyph>
<glyph name="j" format="2">
  <advance width="420.91333333333336"/>
  <unicode hex="006A"/>
  <outline>
    <contour>
      <point x="77.88666666666666" y="181.40333333333334" type="line"/>
      <point x="347.33" y="181.40333333333334" type="line"/>
      <point x="347.33" y="1003.5733333333334" type="line"/>
      <point x="77.88666666666666" y="1003.5733333333334" type="line"/>
    </contour>
    <contour>
      <point x="212.95666666666668" y="1077.56" type="curve" smooth="yes"/>
      <point x="308.61" y="1077.56"/>
      <point x="352.93666666666667" y="1130.4933333333333"/>
      <point x="352.93666666666667" y="1213.9099999999999" type="curve" smooth="yes"/>
      <point x="352.93666666666667" y="1225.2133333333334" type="line" smooth="yes"/>
      <point x="352.93666666666667" y="1308.6299999999999"/>
      <point x="308.61" y="1361.26"/>
      <point x="212.95666666666668" y="1361.26" type="curve" smooth="yes"/>
      <point x="117.30333333333333" y="1361.26"/>
      <point x="72.97666666666667" y="1308.6299999999999"/>
      <point x="72.97666666666667" y="1225.2133333333334" type="curve" smooth="yes"/>
      <point x="72.97666666666667" y="1213.9099999999999" type="line" smooth="yes"/>
      <point x="72.97666666666667" y="1130.4933333333333"/>
      <point x="117.30333333333333" y="1077.56"/>
    </contour>
    <component base="jbottom"/>
  </outline>
</glyph>
<glyph name="k" format="2">
  <advance width="800.1066666666666"/>
  <unicode hex="006B"/>
  <anchor x="403.5866666666667" y="0.0" name="bottom"/>
  <anchor x="400.5533333333334" y="1325.5166666666667" name="top"/>
  <outline>
    <contour>
      <point x="516.7199999999999" y="0.0" type="line"/>
      <point x="793.1633333333333" y="0.0" type="line"/>
      <point x="586.5133333333333" y="559.8766666666667" type="line"/>
      <point x="586.5133333333333" y="500.24666666666667" type="line"/>
      <point x="784.2533333333333" y="1003.5733333333334" type="line"/>
      <point x="514.2933333333333" y="1003.5733333333334" type="line"/>
      <point x="364.03666666666663" y="601.5166666666667" type="line"/>
      <point x="329.81333333333333" y="601.5166666666667" type="line"/>
      <point x="329.81333333333333" y="446.64" type="line"/>
      <point x="362.52" y="446.64" type="line"/>
    </contour>
    <contour>
      <point x="72.67333333333333" y="0.0" type="line"/>
      <point x="342.1166666666667" y="0.0" type="line"/>
      <point x="342.1166666666667" y="1325.5166666666667" type="line"/>
      <point x="72.67333333333333" y="1325.5166666666667" type="line"/>
    </contour>
  </outline>
</glyph>
<glyph name="l" format="2">
  <advance width="416.61"/>
  <unicode hex="006C"/>
  <anchor x="208.95666666666665" y="0.0" name="bottom"/>
  <anchor x="208.95666666666665" y="667.0" name="center"/>
  <anchor x="208.95666666666665" y="1325.5166666666667" name="top"/>
  <anchor x="426.15999999999997" y="1325.5166666666667" name="topright"/>
  <outline>
    <contour>
      <point x="73.58333333333333" y="0.0" type="line"/>
      <point x="343.0266666666667" y="0.0" type="line"/>
      <point x="343.0266666666667" y="1325.5166666666667" type="line"/>
      <point x="73.58333333333333" y="1325.5166666666667" type="line"/>
    </contour>
  </outline>
</glyph>
<glyph name="m" format="2">
  <advance width="1229.2533333333333"/>
  <unicode hex="006D"/>
  <anchor x="614.8233333333334" y="0.0" name="bottom"/>
  <anchor x="614.8233333333334" y="1003.5733333333334" name="top"/>
  <outline>
    <contour>
      <point x="895.9233333333333" y="0.0" type="line"/>
      <point x="1161.1866666666665" y="0.0" type="line"/>
      <point x="1161.1866666666665" y="725.4266666666666" type="line" smooth="yes"/>
      <point x="1161.1866666666665" y="919.3933333333333"/>
      <point x="1100.0966666666668" y="1018.27"/>
      <point x="950.2533333333333" y="1018.27" type="curve" smooth="yes"/>
      <point x="811.4999999999999" y="1018.27"/>
      <point x="763.1966666666667" y="926.55"/>
      <point x="745.2866666666666" y="826.5266666666666" type="curve"/>
      <point x="723.1066666666667" y="826.5266666666666" type="line"/>
      <point x="746.41" y="709.0100000000001" type="line"/>
      <point x="753.8366666666667" y="759.8399999999999"/>
      <point x="782.0833333333334" y="793.5466666666666"/>
      <point x="825.3966666666666" y="793.5466666666666" type="curve" smooth="yes"/>
      <point x="878.98" y="793.5466666666666"/>
      <point x="895.9233333333333" y="754.8733333333333"/>
      <point x="895.9233333333333" y="680.8633333333333" type="curve" smooth="yes"/>
    </contour>
    <contour>
      <point x="72.67333333333333" y="0.0" type="line"/>
      <point x="337.9366666666666" y="0.0" type="line"/>
      <point x="337.9366666666666" y="803.0100000000001" type="line"/>
      <point x="325.06" y="804.83" type="line"/>
      <point x="334.84666666666664" y="1003.5733333333334" type="line"/>
      <point x="72.67333333333333" y="1003.5733333333334" type="line"/>
    </contour>
    <contour>
      <point x="484.45" y="0.0" type="line"/>
      <point x="749.41" y="0.0" type="line"/>
      <point x="749.41" y="703.4033333333333" type="line" smooth="yes"/>
      <point x="749.41" y="735.4933333333333"/>
      <point x="744.7133333333333" y="770.7633333333333"/>
      <point x="740.1066666666667" y="796.1566666666666" type="curve"/>
      <point x="727.2866666666666" y="943.3933333333333"/>
      <point x="668.4100000000001" y="1018.27"/>
      <point x="539.0833333333333" y="1018.27" type="curve" smooth="yes"/>
      <point x="408.84666666666675" y="1018.27"/>
      <point x="358.84666666666664" y="936.9433333333333"/>
      <point x="337.15" y="830.7066666666666" type="curve"/>
      <point x="286.09333333333336" y="830.7066666666666" type="line"/>
      <point x="335.6333333333333" y="710.1" type="line"/>
      <point x="343.75666666666666" y="759.8399999999999"/>
      <point x="372.0033333333334" y="793.5466666666666"/>
      <point x="415.31666666666666" y="793.5466666666666" type="curve" smooth="yes"/>
      <point x="467.50666666666666" y="793.5466666666666"/>
      <point x="484.45" y="754.8733333333333"/>
      <point x="484.45" y="680.8633333333333" type="curve" smooth="yes"/>
    </contour>
  </outline>
</glyph>
<glyph name="n" format="2">
  <advance width="835.0833333333334"/>
  <unicode hex="006E"/>
  <anchor x="418.1933333333334" y="0.0" name="bottom"/>
  <anchor x="418.1933333333334" y="1003.5733333333334" name="top"/>
  <outline>
    <contour>
      <point x="497.5733333333334" y="0.0" type="line"/>
      <point x="767.0166666666667" y="0.0" type="line"/>
      <point x="767.0166666666667" y="723.9100000000001" type="line" smooth="yes"/>
      <point x="767.0166666666667" y="918.7866666666667"/>
      <point x="704.32" y="1018.27"/>
      <point x="551.4766666666667" y="1018.27" type="curve" smooth="yes"/>
      <point x="412.54333333333335" y="1018.27"/>
      <point x="361.93666666666667" y="934.1566666666666"/>
      <point x="341.33" y="830.7066666666666" type="curve"/>
      <point x="284.70000000000005" y="830.7066666666666" type="line"/>
      <point x="339.81333333333333" y="710.4033333333334" type="line"/>
      <point x="348.9366666666666" y="758.4466666666666"/>
      <point x="377.78999999999996" y="793.5466666666666"/>
      <point x="424.0133333333333" y="793.5466666666666" type="curve" smooth="yes"/>
      <point x="480.02333333333326" y="793.5466666666666"/>
      <point x="497.5733333333334" y="754.2666666666667"/>
      <point x="497.5733333333334" y="676.1333333333333" type="curve" smooth="yes"/>
    </contour>
    <contour>
      <point x="72.67333333333333" y="0.0" type="line"/>
      <point x="342.1166666666666" y="0.0" type="line"/>
      <point x="342.1166666666666" y="795.3466666666667" type="line"/>
      <point x="329.24" y="797.47" type="line"/>
      <point x="339.02666666666664" y="1003.5733333333334" type="line"/>
      <point x="72.67333333333333" y="1003.5733333333334" type="line"/>
    </contour>
  </outline>
</glyph>
<glyph name="o" format="2">
  <advance width="807.2066666666667"/>
  <unicode hex="006F"/>
  <anchor x="404.10333333333335" y="0.0" name="bottom"/>
  <anchor x="404.10333333333335" y="501.78666666666663" name="center"/>
  <anchor x="621.0266666666666" y="8.483333333333334" name="ogonek"/>
  <anchor x="404.10333333333335" y="1003.5733333333334" name="top"/>
  <anchor x="800.6466666666665" y="1003.5733333333334" name="topright"/>
  <outline>
    <contour>
      <point x="404.1033333333333" y="-19.09" type="curve" smooth="yes"/>
      <point x="635.4200000000001" y="-19.09"/>
      <point x="752.8366666666667" y="116.41666666666667"/>
      <point x="752.8366666666667" y="375.3066666666667" type="curve"/>
      <point x="752.8366666666667" y="629.2666666666667" type="line"/>
      <point x="752.8366666666667" y="888.1566666666666"/>
      <point x="635.4200000000001" y="1022.6633333333333"/>
      <point x="404.1033333333333" y="1022.6633333333333" type="curve" smooth="yes"/>
      <point x="171.78666666666666" y="1022.6633333333333"/>
      <point x="54.370000000000005" y="888.1566666666666"/>
      <point x="54.370000000000005" y="629.2666666666667" type="curve"/>
      <point x="54.370000000000005" y="375.3066666666667" type="line"/>
      <point x="54.370000000000005" y="116.41666666666667"/>
      <point x="171.78666666666666" y="-19.09"/>
    </contour>
    <contour>
      <point x="404.1033333333333" y="200.15" type="curve" smooth="yes"/>
      <point x="342.09333333333336" y="200.15"/>
      <point x="321.02666666666664" y="246.30666666666667"/>
      <point x="321.02666666666664" y="345.58666666666664" type="curve" smooth="yes"/>
      <point x="321.02666666666664" y="658.9866666666667" type="line" smooth="yes"/>
      <point x="321.02666666666664" y="758.2666666666667"/>
      <point x="342.09333333333336" y="803.4233333333333"/>
      <point x="404.1033333333333" y="803.4233333333333" type="curve" smooth="yes"/>
      <point x="465.1133333333333" y="803.4233333333333"/>
      <point x="486.17999999999995" y="758.2666666666667"/>
      <point x="486.17999999999995" y="658.9866666666667" type="curve" smooth="yes"/>
      <point x="486.17999999999995" y="345.58666666666664" type="line" smooth="yes"/>
      <point x="486.17999999999995" y="246.30666666666667"/>
      <point x="465.1133333333333" y="200.15"/>
    </contour>
  </outline>
</glyph>
<glyph name="p" format="2">
  <advance width="827.3866666666667"/>
  <unicode hex="0070"/>
  <anchor x="414.1933333333334" y="0.0" name="bottom"/>
  <anchor x="414.1933333333334" y="1003.5733333333334" name="top"/>
  <outline>
    <contour>
      <point x="543.96" y="-14.696666666666667" type="curve" smooth="yes"/>
      <point x="709.41" y="-14.696666666666667"/>
      <point x="770.6233333333334" y="114.84333333333332"/>
      <point x="770.6233333333334" y="367.8" type="curve" smooth="yes"/>
      <point x="770.6233333333334" y="633.2" type="line" smooth="yes"/>
      <point x="770.6233333333334" y="885.55"/>
      <point x="709.41" y="1018.27"/>
      <point x="545.0500000000001" y="1018.27" type="curve" smooth="yes"/>
      <point x="410.5433333333334" y="1018.27"/>
      <point x="359.93666666666667" y="936.9433333333334"/>
      <point x="341.33" y="830.7066666666666" type="curve"/>
      <point x="278.25" y="830.7066666666666" type="line"/>
      <point x="334.72333333333336" y="716.7966666666667" type="line"/>
      <point x="345.54333333333335" y="765.93"/>
      <point x="374.39666666666665" y="799.6366666666667"/>
      <point x="422.3166666666667" y="799.6366666666667" type="curve" smooth="yes"/>
      <point x="482.0233333333333" y="799.6366666666667"/>
      <point x="501.18" y="752.9633333333334"/>
      <point x="501.18" y="656.2566666666667" type="curve" smooth="yes"/>
      <point x="501.18" y="356.71000000000004" type="line" smooth="yes"/>
      <point x="501.18" y="259.0933333333333"/>
      <point x="481.4166666666667" y="210.72333333333333"/>
      <point x="422.0133333333334" y="210.72333333333333" type="curve" smooth="yes"/>
      <point x="362.00333333333333" y="210.72333333333333"/>
      <point x="337.0266666666667" y="257.8233333333333"/>
      <point x="336.7233333333333" y="342.62" type="curve"/>
      <point x="291.0266666666667" y="176.35" type="line"/>
      <point x="347.1166666666667" y="176.35" type="line"/>
      <point x="365.6333333333334" y="68.32666666666667"/>
      <point x="416.6333333333334" y="-14.696666666666667"/>
    </contour>
    <contour>
      <point x="72.67333333333333" y="-350.0" type="line"/>
      <point x="340.41999999999996" y="-350.0" type="line"/>
      <point x="340.41999999999996" y="-67.9" type="line"/>
      <point x="336.42" y="214.47333333333333" type="line"/>
      <point x="336.7233333333333" y="244.47333333333333" type="line"/>
      <point x="336.7233333333333" y="756.1" type="line"/>
      <point x="327.24" y="759.01" type="line"/>
      <point x="339.02666666666664" y="1003.5733333333334" type="line"/>
      <point x="72.67333333333333" y="1003.5733333333334" type="line"/>
    </contour>
  </outline>
</glyph>
<glyph name="q" format="2">
  <advance width="828.0833333333334"/>
  <unicode hex="0071"/>
  <anchor x="413.89000000000004" y="0.0" name="bottom"/>
  <anchor x="413.89000000000004" y="1003.5733333333334" name="top"/>
  <outline>
    <contour>
      <point x="282.33666666666664" y="-14.696666666666667" type="curve" smooth="yes"/>
      <point x="412.75333333333333" y="-14.696666666666667"/>
      <point x="463.0566666666667" y="70.81"/>
      <point x="480.27" y="176.35" type="curve"/>
      <point x="554.1933333333333" y="176.35" type="line"/>
      <point x="492.66333333333336" y="292.8666666666667" type="line"/>
      <point x="481.84333333333336" y="244.42999999999998"/>
      <point x="452.99" y="210.72333333333333"/>
      <point x="406.7666666666667" y="210.72333333333333" type="curve" smooth="yes"/>
      <point x="346.06" y="210.72333333333333"/>
      <point x="326.2066666666667" y="257.39666666666665"/>
      <point x="326.2066666666667" y="354.10333333333335" type="curve" smooth="yes"/>
      <point x="326.2066666666667" y="656.4366666666667" type="line" smooth="yes"/>
      <point x="326.2066666666667" y="752.66"/>
      <point x="346.6666666666667" y="799.6366666666667"/>
      <point x="405.37333333333333" y="799.6366666666667" type="curve" smooth="yes"/>
      <point x="465.3833333333333" y="799.6366666666667"/>
      <point x="489.14666666666665" y="752.7499999999999"/>
      <point x="490.6633333333333" y="667.7399999999999" type="curve"/>
      <point x="555.1366666666667" y="830.7066666666666" type="line"/>
      <point x="486.75333333333333" y="830.7066666666666" type="line"/>
      <point x="466.84333333333336" y="936.64"/>
      <point x="416.1466666666667" y="1018.27"/>
      <point x="285.12333333333333" y="1018.27" type="curve" smooth="yes"/>
      <point x="117.28000000000002" y="1018.27"/>
      <point x="56.76333333333333" y="885.2466666666667"/>
      <point x="56.76333333333333" y="635.7733333333334" type="curve" smooth="yes"/>
      <point x="56.76333333333333" y="363.4066666666667" type="line" smooth="yes"/>
      <point x="56.76333333333333" y="116.63"/>
      <point x="118.67333333333335" y="-14.696666666666667"/>
    </contour>
    <contour>
      <point x="487.6633333333333" y="-350.0" type="line"/>
      <point x="755.41" y="-350.0" type="line"/>
      <point x="755.41" y="1003.5733333333334" type="line"/>
      <point x="488.36" y="1003.5733333333334" type="line"/>
      <point x="498.75333333333333" y="782.0" type="line"/>
      <point x="490.6633333333333" y="760.9766666666667" type="line"/>
      <point x="490.6633333333333" y="267.4633333333333" type="line"/>
      <point x="490.96666666666664" y="199.14666666666668" type="line"/>
      <point x="487.6633333333333" y="-67.9" type="line"/>
    </contour>
  </outline>
</glyph>
<glyph name="r" format="2">
  <advance width="562.1833333333333"/>
  <unicode hex="0072"/>
  <anchor x="207.35" y="0.0" name="bottom"/>
  <anchor x="305.47333333333336" y="1003.5733333333334" name="top"/>
  <outline>
    <contour>
      <point x="340.1166666666667" y="588.5600000000001" type="line"/>
      <point x="364.56666666666666" y="664.4"/>
      <point x="424.72333333333336" y="704.3199999999999"/>
      <point x="510.66666666666663" y="704.3199999999999" type="curve" smooth="yes"/>
      <point x="526.5766666666666" y="704.3199999999999"/>
      <point x="543.6666666666667" y="703.0166666666667"/>
      <point x="552.5766666666667" y="701.7133333333333" type="curve"/>
      <point x="546.2733333333333" y="1010.27" type="line"/>
      <point x="535.97" y="1010.5733333333334"/>
      <point x="532.1500000000001" y="1010.8766666666667"/>
      <point x="527.0266666666666" y="1010.8766666666667" type="curve" smooth="yes"/>
      <point x="395.39666666666665" y="1010.8766666666667"/>
      <point x="335.52" y="924.73"/>
      <point x="318.61" y="785.01" type="curve"/>
      <point x="246.26" y="785.01" type="line"/>
    </contour>
    <contour>
      <point x="72.67333333333333" y="0.0" type="line"/>
      <point x="342.1166666666666" y="0.0" type="line"/>
      <point x="342.1166666666666" y="705.6733333333334" type="line"/>
      <point x="303.52" y="715.6833333333333" type="line"/>
      <point x="315.61" y="1003.5733333333334" type="line"/>
      <point x="72.67333333333333" y="1003.5733333333334" type="line"/>
    </contour>
  </outline>
</glyph>
<glyph name="s" format="2">
  <advance width="631.88"/>
  <unicode hex="0073"/>
  <anchor x="309.74333333333334" y="0.0" name="bottom"/>
  <anchor x="306.35" y="1003.5733333333334" name="top"/>
  <outline>
    <contour>
      <point x="290.65333333333336" y="-14.696666666666667" type="curve" smooth="yes"/>
      <point x="504.2733333333333" y="-14.696666666666667"/>
      <point x="603.8133333333333" y="92.66333333333333"/>
      <point x="603.8133333333333" y="281.16999999999996" type="curve" smooth="yes"/>
      <point x="603.8133333333333" y="298.93333333333334" type="line" smooth="yes"/>
      <point x="603.8133333333333" y="447.68666666666667"/>
      <point x="548.6333333333333" y="512.4733333333334"/>
      <point x="423.15" y="584.5966666666667" type="curve" smooth="yes"/>
      <point x="337.6" y="635.1466666666666"/>
      <point x="291.1166666666667" y="662.6633333333334"/>
      <point x="291.1166666666667" y="716.28" type="curve" smooth="yes"/>
      <point x="291.1166666666667" y="723.6166666666667" type="line" smooth="yes"/>
      <point x="291.1166666666667" y="767.75"/>
      <point x="316.75666666666666" y="792.3333333333334"/>
      <point x="383.52" y="792.3333333333334" type="curve" smooth="yes"/>
      <point x="459.70000000000005" y="792.3333333333334"/>
      <point x="522.3633333333333" y="764.03"/>
      <point x="574.3633333333332" y="733.6033333333334" type="curve"/>
      <point x="558.1833333333333" y="956.4833333333333" type="line"/>
      <point x="511.3966666666667" y="988.7866666666666"/>
      <point x="433.46333333333337" y="1018.27"/>
      <point x="337.79999999999995" y="1018.27" type="curve" smooth="yes"/>
      <point x="136.96666666666667" y="1018.27"/>
      <point x="29.459999999999994" y="920.0"/>
      <point x="29.459999999999994" y="740.4933333333333" type="curve" smooth="yes"/>
      <point x="29.459999999999994" y="726.1566666666666" type="line" smooth="yes"/>
      <point x="29.459999999999994" y="596.5500000000001"/>
      <point x="79.64000000000001" y="518.9766666666667"/>
      <point x="199.46" y="444.67333333333335" type="curve" smooth="yes"/>
      <point x="311.7066666666667" y="374.85333333333335"/>
      <point x="340.46" y="354.09000000000003"/>
      <point x="340.46" y="302.50666666666666" type="curve" smooth="yes"/>
      <point x="340.46" y="292.13666666666666" type="line" smooth="yes"/>
      <point x="340.46" y="246.39666666666665"/>
      <point x="317.30333333333334" y="218.02666666666667"/>
      <point x="248.84333333333336" y="218.02666666666667" type="curve" smooth="yes"/>
      <point x="165.09" y="218.02666666666667"/>
      <point x="99.21333333333334" y="248.42000000000002"/>
      <point x="35.336666666666666" y="282.54333333333335" type="curve"/>
      <point x="51.51666666666666" y="43.39333333333333" type="line"/>
      <point x="106.57333333333334" y="13.0"/>
      <point x="187.32666666666668" y="-14.696666666666667"/>
    </contour>
  </outline>
</glyph>
<glyph name="t" format="2">
  <advance width="562.16"/>
  <unicode hex="0074"/>
  <anchor x="314.32666666666665" y="0.0" name="bottom"/>
  <anchor x="281.08" y="501.78666666666663" name="center"/>
  <anchor x="245.53" y="1225.6966666666667" name="top"/>
  <anchor x="431.34000000000003" y="1430.1466666666668" name="topright"/>
  <outline>
    <contour>
      <point x="357.59666666666664" y="-14.393333333333333" type="curve" smooth="yes"/>
      <point x="429.83333333333337" y="-14.393333333333333"/>
      <point x="487.10333333333335" y="1.0899999999999999"/>
      <point x="530.0699999999999" y="24.36" type="curve"/>
      <point x="546.9466666666667" y="248.72333333333336" type="line"/>
      <point x="519.7333333333333" y="238.20666666666665"/>
      <point x="490.91333333333336" y="230.29666666666665"/>
      <point x="457.09333333333336" y="230.29666666666665" type="curve" smooth="yes"/>
      <point x="392.84666666666664" y="230.29666666666665"/>
      <point x="367.72333333333336" y="256.1166666666667"/>
      <point x="367.72333333333336" y="321.00333333333333" type="curve" smooth="yes"/>
      <point x="367.72333333333336" y="965.5733333333334" type="line"/>
      <point x="103.37" y="965.5733333333334" type="line"/>
      <point x="103.37" y="257.31666666666666" type="line" smooth="yes"/>
      <point x="103.37" y="77.84333333333333"/>
      <point x="181.82" y="-14.393333333333333"/>
    </contour>
    <contour>
      <point x="13.213333333333333" y="783.9066666666668" type="line"/>
      <point x="521.7333333333333" y="783.9066666666668" type="line"/>
      <point x="538.61" y="1000.8433333333334" type="line"/>
      <point x="13.213333333333333" y="1000.8433333333334" type="line"/>
    </contour>
    <contour>
      <point x="108.15666666666667" y="983.7533333333333" type="line"/>
      <point x="360.6333333333333" y="983.7533333333333" type="line"/>
      <point x="369.72333333333336" y="1249.6066666666666" type="line"/>
      <point x="108.15666666666667" y="1216.6399999999999" type="line"/>
    </contour>
  </outline>
</glyph>
<glyph name="u" format="2">
  <advance width="835.0833333333334"/>
  <unicode hex="0075"/>
  <anchor x="418.1933333333334" y="0.0" name="bottom"/>
  <anchor x="790.23" y="0.0" name="ogonek"/>
  <anchor x="418.1933333333334" y="1003.5733333333334" name="top"/>
  <anchor x="827.2633333333333" y="1003.5733333333334" name="topright"/>
  <outline>
    <contour>
      <point x="337.51" y="1003.5733333333334" type="line"/>
      <point x="68.06666666666666" y="1003.5733333333334" type="line"/>
      <point x="68.06666666666666" y="279.66333333333336" type="line" smooth="yes"/>
      <point x="68.06666666666666" y="84.78666666666666"/>
      <point x="130.76333333333332" y="-14.696666666666667"/>
      <point x="283.6066666666667" y="-14.696666666666667" type="curve" smooth="yes"/>
      <point x="422.54" y="-14.696666666666667"/>
      <point x="473.14666666666665" y="69.41666666666667"/>
      <point x="493.7533333333334" y="172.86666666666667" type="curve"/>
      <point x="550.3833333333333" y="172.86666666666667" type="line"/>
      <point x="495.27000000000004" y="293.17" type="line"/>
      <point x="486.14666666666665" y="245.1266666666667"/>
      <point x="457.2933333333333" y="210.02666666666667"/>
      <point x="411.06999999999994" y="210.02666666666667" type="curve" smooth="yes"/>
      <point x="355.06" y="210.02666666666667"/>
      <point x="337.51" y="249.3066666666667"/>
      <point x="337.51" y="327.44" type="curve" smooth="yes"/>
    </contour>
    <contour>
      <point x="762.41" y="1003.5733333333334" type="line"/>
      <point x="492.96666666666664" y="1003.5733333333334" type="line"/>
      <point x="492.96666666666664" y="208.22666666666666" type="line"/>
      <point x="505.8433333333333" y="206.10333333333332" type="line"/>
      <point x="496.0566666666666" y="0.0" type="line"/>
      <point x="762.41" y="0.0" type="line"/>
    </contour>
  </outline>
</glyph>
<glyph name="v" format="2">
  <advance width="773.5999999999999"/>
  <unicode hex="0076"/>
  <anchor x="386.80000000000007" y="0.0" name="bottom"/>
  <anchor x="386.80000000000007" y="1003.5733333333334" name="top"/>
  <outline>
    <contour>
      <point x="396.89" y="179.9133333333333" type="line"/>
      <point x="378.1033333333333" y="179.9133333333333" type="line"/>
      <point x="292.51" y="1003.5733333333334" type="line"/>
      <point x="23.46" y="1003.5733333333334" type="line"/>
      <point x="168.8633333333333" y="0.0" type="line"/>
      <point x="604.7366666666667" y="0.0" type="line"/>
      <point x="750.14" y="1003.5733333333334" type="line"/>
      <point x="483.8766666666667" y="1003.5733333333334" type="line"/>
    </contour>
  </outline>
</glyph>
<glyph name="w" format="2">
  <advance width="1174.1633333333332"/>
  <unicode hex="0077"/>
  <anchor x="587.43" y="0.0" name="bottom"/>
  <anchor x="587.43" y="1003.5733333333334" name="top"/>
  <outline>
    <contour>
      <point x="142.13333333333333" y="0.0" type="line"/>
      <point x="520.1166666666667" y="0.0" type="line"/>
      <point x="572.5433333333333" y="628.0266666666666" type="line"/>
      <point x="583.8233333333333" y="776.6033333333334" type="line"/>
      <point x="594.8233333333333" y="776.6033333333334" type="line"/>
      <point x="605.4066666666666" y="628.0266666666666" type="line"/>
      <point x="655.0466666666667" y="0.0" type="line"/>
      <point x="1033.03" y="0.0" type="line"/>
      <point x="1146.4" y="1003.5733333333334" type="line"/>
      <point x="892.0133333333332" y="1003.5733333333334" type="line"/>
      <point x="824.7900000000001" y="190.79000000000002" type="line"/>
      <point x="811.0933333333334" y="190.79000000000002" type="line"/>
      <point x="740.2633333333333" y="983.7533333333333" type="line"/>
      <point x="436.99" y="983.7533333333333" type="line"/>
      <point x="364.7666666666667" y="190.79000000000002" type="line"/>
      <point x="350.37333333333333" y="190.79000000000002" type="line"/>
      <point x="288.93666666666667" y="1003.5733333333334" type="line"/>
      <point x="27.763333333333332" y="1003.5733333333334" type="line"/>
    </contour>
  </outline>
</glyph>
<glyph name="x" format="2">
  <advance width="764.7466666666667"/>
  <unicode hex="0078"/>
  <anchor x="382.37333333333333" y="0.0" name="bottom"/>
  <anchor x="382.37333333333333" y="1003.5733333333334" name="top"/>
  <outline>
    <contour>
      <point x="20.37" y="0.0" type="line"/>
      <point x="284.9366666666666" y="0.0" type="line"/>
      <point x="375.97999999999996" y="387.41333333333336" type="line"/>
      <point x="389.76666666666665" y="387.41333333333336" type="line"/>
      <point x="479.81" y="0.0" type="line"/>
      <point x="744.3766666666666" y="0.0" type="line"/>
      <point x="581.95" y="567.9333333333333" type="line"/>
      <point x="581.95" y="481.2466666666666" type="line"/>
      <point x="742.0733333333333" y="1003.5733333333334" type="line"/>
      <point x="476.4166666666667" y="1003.5733333333334" type="line"/>
      <point x="389.76666666666665" y="633.9233333333333" type="line"/>
      <point x="375.97999999999996" y="633.9233333333333" type="line"/>
      <point x="288.33000000000004" y="1003.5733333333334" type="line"/>
      <point x="22.673333333333332" y="1003.5733333333334" type="line"/>
      <point x="182.79666666666665" y="481.2466666666666" type="line"/>
      <point x="182.79666666666665" y="567.9333333333333" type="line"/>
    </contour>
  </outline>
</glyph>
<glyph name="y" format="2">
  <advance width="773.2966666666666"/>
  <unicode hex="0079"/>
  <anchor x="456.2633333333333" y="-239.57333333333332" name="bottom"/>
  <anchor x="386.80000000000007" y="1003.5733333333334" name="top"/>
  <outline>
    <contour>
      <point x="510.68999999999994" y="217.03666666666666" type="line"/>
      <point x="367.9233333333333" y="217.03666666666666" type="line"/>
      <point x="291.81333333333333" y="1003.5733333333334" type="line"/>
      <point x="23.46" y="1003.5733333333334" type="line"/>
      <point x="170.2566666666667" y="35.91" type="line"/>
      <point x="488.33000000000004" y="35.91" type="line"/>
      <point x="352.17" y="114.80999999999999" type="line"/>
      <point x="272.26" y="-350.0" type="line"/>
      <point x="530.5233333333333" y="-350.0" type="line"/>
      <point x="749.8366666666667" y="1003.5733333333334" type="line"/>
      <point x="481.4833333333333" y="1003.5733333333334" type="line"/>
      <point x="382.71" y="202.94666666666666" type="line"/>
    </contour>
  </outline>
</glyph>
<glyph name="z" format="2">
  <advance width="656.2733333333333"/>
  <unicode hex="007A"/>
  <anchor x="327.8333333333333" y="0.0" name="bottom"/>
  <anchor x="328.13666666666666" y="501.78666666666663" name="center"/>
  <anchor x="327.8333333333333" y="1003.5733333333334" name="top"/>
  <outline>
    <contour>
      <point x="615.4200000000001" y="234.20666666666668" type="line"/>
      <point x="315.38666666666666" y="234.20666666666668" type="line"/>
      <point x="612.0266666666666" y="788.6366666666667" type="line"/>
      <point x="612.0266666666666" y="1003.5733333333334" type="line"/>
      <point x="43.24666666666667" y="1003.5733333333334" type="line"/>
      <point x="43.24666666666667" y="772.0633333333334" type="line"/>
      <point x="334.7966666666667" y="772.0633333333334" type="line"/>
      <point x="40.55" y="217.63333333333333" type="line"/>
      <point x="40.55" y="0.0" type="line"/>
      <point x="615.4200000000001" y="0.0" type="line"/>
    </contour>
  </outline>
</glyph>
<glyph name="braceleft" format="2">
  <advance width="556.1933333333333"/>
  <unicode hex="007B"/>
  <outline>
    <contour>
      <point x="524.1933333333333" y="1339.3933333333334" type="line"/>
      <point x="476.53000000000003" y="1351.3933333333332"/>
      <point x="434.9566666666666" y="1359.09"/>
      <point x="396.26" y="1359.09" type="curve" smooth="yes"/>
      <point x="213.82" y="1359.09"/>
      <point x="122.40333333333334" y="1271.3366666666668"/>
      <point x="122.40333333333334" y="1057.11" type="curve" smooth="yes"/>
      <point x="122.40333333333334" y="992.4933333333333"/>
      <point x="137.1" y="843.0666666666667"/>
      <point x="137.1" y="793.9666666666666" type="curve" smooth="yes"/>
      <point x="137.1" y="717.7766666666666"/>
      <point x="107.40333333333334" y="683.5300000000001"/>
      <point x="35.64" y="675.9233333333333" type="curve"/>
      <point x="35.64" y="439.38" type="line"/>
      <point x="107.40333333333334" y="431.7733333333333"/>
      <point x="137.1" y="397.5266666666667"/>
      <point x="137.1" y="321.3366666666667" type="curve" smooth="yes"/>
      <point x="137.1" y="272.8433333333333"/>
      <point x="122.40333333333334" y="122.50666666666666"/>
      <point x="122.40333333333334" y="55.586666666666666" type="curve" smooth="yes"/>
      <point x="122.40333333333334" y="-158.64"/>
      <point x="213.82" y="-246.39333333333335"/>
      <point x="396.26" y="-246.39333333333335" type="curve" smooth="yes"/>
      <point x="434.9566666666666" y="-246.39333333333335"/>
      <point x="475.13666666666666" y="-238.6966666666667"/>
      <point x="524.1933333333333" y="-226.0" type="curve"/>
      <point x="524.1933333333333" y="-26.210000000000004" type="line"/>
      <point x="509.7666666666667" y="-31.119999999999997"/>
      <point x="492.03666666666663" y="-34.03"/>
      <point x="474.3066666666666" y="-34.03" type="curve" smooth="yes"/>
      <point x="408.4866666666667" y="-34.03"/>
      <point x="384.36333333333334" y="1.0933333333333315"/>
      <point x="384.36333333333334" y="77.94666666666666" type="curve" smooth="yes"/>
      <point x="384.36333333333334" y="121.38333333333333"/>
      <point x="398.06" y="269.0233333333333"/>
      <point x="398.06" y="317.55" type="curve" smooth="yes"/>
      <point x="398.06" y="452.4266666666667"/>
      <point x="363.96999999999997" y="537.0899999999999"/>
      <point x="208.22666666666666" y="557.3933333333334" type="curve"/>
      <point x="236.94666666666666" y="533.63" type="line"/>
      <point x="236.94666666666666" y="563.0" type="line"/>
      <point x="359.57666666666665" y="586.6966666666666"/>
      <point x="398.06" y="661.8766666666667"/>
      <point x="398.06" y="796.36" type="curve" smooth="yes"/>
      <point x="398.06" y="844.28"/>
      <point x="384.36333333333334" y="991.3133333333333"/>
      <point x="384.36333333333334" y="1034.75" type="curve" smooth="yes"/>
      <point x="384.36333333333334" y="1111.6033333333332"/>
      <point x="408.4866666666666" y="1146.7266666666667"/>
      <point x="474.3066666666667" y="1146.7266666666667" type="curve" smooth="yes"/>
      <point x="492.03666666666663" y="1146.7266666666667"/>
      <point x="509.76666666666665" y="1143.8166666666668"/>
      <point x="524.1933333333333" y="1138.9066666666668" type="curve"/>
    </contour>
  </outline>
</glyph>
<glyph name="bar" format="2">
  <advance width="428.2266666666667"/>
  <unicode hex="007C"/>
  <outline>
    <contour>
      <point x="331.0366666666667" y="-406.46" type="line"/>
      <point x="331.0366666666667" y="1426.0" type="line"/>
      <point x="97.19000000000001" y="1426.0" type="line"/>
      <point x="97.19000000000001" y="-406.46" type="line"/>
    </contour>
  </outline>
</glyph>
<glyph name="braceright" format="2">
  <advance width="556.1933333333333"/>
  <unicode hex="007D"/>
  <outline>
    <contour>
      <point x="32.0" y="1339.3933333333334" type="curve"/>
      <point x="32.0" y="1138.9066666666668" type="line"/>
      <point x="46.42666666666666" y="1143.8166666666668"/>
      <point x="64.15666666666667" y="1146.7266666666667"/>
      <point x="81.88666666666667" y="1146.7266666666667" type="curve" smooth="yes"/>
      <point x="147.70666666666668" y="1146.7266666666667"/>
      <point x="171.83" y="1111.6033333333332"/>
      <point x="171.83" y="1034.75" type="curve" smooth="yes"/>
      <point x="171.83" y="991.3133333333333"/>
      <point x="158.13333333333333" y="844.28"/>
      <point x="158.13333333333333" y="796.36" type="curve" smooth="yes"/>
      <point x="158.13333333333333" y="661.8766666666667"/>
      <point x="196.61666666666667" y="586.6966666666666"/>
      <point x="319.24666666666667" y="563.0" type="curve"/>
      <point x="319.24666666666667" y="533.63" type="line"/>
      <point x="347.96666666666664" y="557.3933333333334" type="line"/>
      <point x="192.22333333333333" y="537.0899999999999"/>
      <point x="158.13333333333333" y="452.4266666666667"/>
      <point x="158.13333333333333" y="317.55" type="curve" smooth="yes"/>
      <point x="158.13333333333333" y="269.0233333333333"/>
      <point x="171.83" y="121.38333333333333"/>
      <point x="171.83" y="77.94666666666666" type="curve" smooth="yes"/>
      <point x="171.83" y="1.0933333333333315"/>
      <point x="147.70666666666665" y="-34.03"/>
      <point x="81.88666666666666" y="-34.03" type="curve" smooth="yes"/>
      <point x="64.15666666666667" y="-34.03"/>
      <point x="46.42666666666668" y="-31.119999999999997"/>
      <point x="32.0" y="-26.210000000000004" type="curve"/>
      <point x="32.0" y="-226.0" type="line"/>
      <point x="81.05666666666667" y="-238.6966666666667"/>
      <point x="121.23666666666665" y="-246.39333333333335"/>
      <point x="159.93333333333334" y="-246.39333333333335" type="curve" smooth="yes"/>
      <point x="342.37333333333333" y="-246.39333333333335"/>
      <point x="433.78999999999996" y="-158.64"/>
      <point x="433.78999999999996" y="55.586666666666666" type="curve" smooth="yes"/>
      <point x="433.78999999999996" y="122.50666666666666"/>
      <point x="419.09333333333336" y="272.8433333333333"/>
      <point x="419.09333333333336" y="321.3366666666667" type="curve" smooth="yes"/>
      <point x="419.09333333333336" y="397.5266666666667"/>
      <point x="448.78999999999996" y="431.7733333333333"/>
      <point x="520.5533333333333" y="439.38" type="curve"/>
      <point x="520.5533333333333" y="675.9233333333333" type="line"/>
      <point x="448.78999999999996" y="683.5300000000001"/>
      <point x="419.09333333333336" y="717.7766666666666"/>
      <point x="419.09333333333336" y="793.9666666666666" type="curve" smooth="yes"/>
      <point x="419.09333333333336" y="843.0666666666667"/>
      <point x="433.78999999999996" y="992.4933333333333"/>
      <point x="433.78999999999996" y="1057.11" type="curve" smooth="yes"/>
      <point x="433.78999999999996" y="1271.3366666666668"/>
      <point x="342.37333333333333" y="1359.09"/>
      <point x="159.93333333333334" y="1359.09" type="curve" smooth="yes"/>
      <point x="121.23666666666665" y="1359.09"/>
      <point x="79.66333333333333" y="1351.3933333333332"/>
    </contour>
  </outline>
</glyph>
<glyph name="asciitilde" format="2">
  <advance width="841.9800000000001"/>
  <unicode hex="007E"/>
  <outline>
    <contour>
      <point x="569.7766666666666" y="505.1" type="curve" smooth="yes"/>
      <point x="723.2166666666667" y="505.1"/>
      <point x="779.5766666666666" y="611.4499999999999"/>
      <point x="779.5766666666666" y="762.26" type="curve" smooth="yes"/>
      <point x="779.5766666666666" y="828.52" type="line"/>
      <point x="588.27" y="828.52" type="line"/>
      <point x="588.27" y="820.2733333333333" type="line" smooth="yes"/>
      <point x="587.5733333333333" y="768.6999999999999"/>
      <point x="576.9666666666666" y="740.7"/>
      <point x="526.6066666666666" y="740.7" type="curve" smooth="yes"/>
      <point x="465.5733333333334" y="740.7"/>
      <point x="374.90000000000003" y="799.5866666666667"/>
      <point x="271.2033333333333" y="799.5866666666667" type="curve" smooth="yes"/>
      <point x="117.76333333333334" y="799.5866666666667"/>
      <point x="62.10000000000001" y="697.5966666666667"/>
      <point x="62.10000000000001" y="541.8199999999999" type="curve" smooth="yes"/>
      <point x="62.10000000000001" y="475.47" type="line"/>
      <point x="253.40666666666664" y="475.47" type="line"/>
      <point x="253.40666666666664" y="482.8066666666667" type="line" smooth="yes"/>
      <point x="253.40666666666667" y="536.8633333333333"/>
      <point x="265.40666666666664" y="563.9866666666667"/>
      <point x="315.07" y="563.9866666666667" type="curve" smooth="yes"/>
      <point x="378.0133333333333" y="563.9866666666667"/>
      <point x="466.77666666666664" y="505.1"/>
    </contour>
  </outline>
</glyph>
<glyph name="exclamdown" format="2">
  <advance width="419.9800000000001"/>
  <unicode hex="00A1"/>
  <outline>
    <contour>
      <point x="316.60999999999996" y="588.5266666666666" type="line"/>
      <point x="103.37" y="588.5266666666666" type="line"/>
      <point x="67.83" y="-274.4266666666667" type="line"/>
      <point x="352.15" y="-274.4266666666667" type="line"/>
    </contour>
    <contour>
      <point x="213.38333333333335" y="1028.54" type="curve" smooth="yes"/>
      <point x="117.42666666666668" y="1028.54"/>
      <point x="73.10000000000001" y="969.5166666666667"/>
      <point x="73.10000000000001" y="865.0433333333333" type="curve" smooth="yes"/>
      <point x="73.10000000000001" y="848.0433333333334" type="line" smooth="yes"/>
      <point x="73.10000000000001" y="745.2666666666667"/>
      <point x="117.42666666666668" y="684.85"/>
      <point x="213.38333333333335" y="684.85" type="curve" smooth="yes"/>
      <point x="305.6433333333334" y="684.85"/>
      <point x="353.6666666666667" y="745.2666666666667"/>
      <point x="353.6666666666667" y="848.0433333333334" type="curve" smooth="yes"/>
      <point x="353.6666666666667" y="865.0433333333333" type="line" smooth="yes"/>
      <point x="353.6666666666667" y="969.5166666666667"/>
      <point x="305.6433333333334" y="1028.54"/>
    </contour>
  </outline>
</glyph>
<glyph name="cent" format="2">
  <advance width="614.9133333333333"/>
  <unicode hex="00A2"/>
  <anchor x="342.35" y="0.0" name="bottom"/>
  <anchor x="342.35" y="1003.5733333333334" name="top"/>
  <outline>
    <contour>
      <point x="469.15000000000003" y="879.57" type="line"/>
      <point x="469.15000000000003" y="1156.5166666666667" type="line"/>
      <point x="238.33666666666667" y="1156.5166666666667" type="line"/>
      <point x="238.33666666666667" y="879.57" type="line"/>
    </contour>
    <contour>
      <point x="469.15000000000003" y="-168.03333333333333" type="line"/>
      <point x="469.15000000000003" y="144.17333333333332" type="line"/>
      <point x="238.33666666666667" y="144.17333333333332" type="line"/>
      <point x="238.33666666666667" y="-168.03333333333333" type="line"/>
    </contour>
    <component base="c"/>
  </outline>
</glyph>
<glyph name="sterling" format="2">
  <advance width="710.0366666666667"/>
  <unicode hex="00A3"/>
  <outline>
    <contour>
      <point x="43.03333333333333" y="579.19" type="line"/>
      <point x="610.7" y="579.19" type="line"/>
      <point x="621.79" y="770.7433333333333" type="line"/>
      <point x="54.12333333333333" y="770.7433333333333" type="line"/>
    </contour>
    <contour>
      <point x="249.22666666666663" y="247.08333333333334" type="line"/>
      <point x="249.22666666666663" y="255.87" type="line"/>
      <point x="364.7" y="284.18333333333334"/>
      <point x="429.23999999999995" y="335.4066666666667"/>
      <point x="429.23999999999995" y="484.1566666666667" type="curve" smooth="yes"/>
      <point x="429.23999999999995" y="621.2133333333334"/>
      <point x="395.9033333333333" y="796.74"/>
      <point x="395.9033333333333" y="937.4366666666667" type="curve" smooth="yes"/>
      <point x="395.9033333333333" y="1014.7266666666667"/>
      <point x="423.97" y="1057.1866666666667"/>
      <point x="509.60999999999996" y="1057.1866666666667" type="curve" smooth="yes"/>
      <point x="555.9133333333334" y="1057.1866666666667"/>
      <point x="600.2166666666666" y="1050.58"/>
      <point x="646.8233333333334" y="1037.1533333333332" type="curve"/>
      <point x="630.6433333333333" y="1269.8766666666668" type="line"/>
      <point x="579.2833333333333" y="1287.18"/>
      <point x="509.3166666666666" y="1299.09"/>
      <point x="435.26" y="1299.09" type="curve" smooth="yes"/>
      <point x="204.55" y="1299.09"/>
      <point x="118.67333333333333" y="1186.6399999999999"/>
      <point x="118.67333333333333" y="975.0666666666666" type="curve" smooth="yes"/>
      <point x="118.67333333333333" y="831.0666666666667"/>
      <point x="152.01000000000002" y="657.27"/>
      <point x="152.01" y="509.62999999999994" type="curve" smooth="yes"/>
      <point x="152.01" y="356.46333333333337"/>
      <point x="124.58333333333334" y="309.15"/>
      <point x="70.45" y="256.41" type="curve" smooth="yes"/>
      <point x="52.336666666666666" y="239.69" type="line"/>
      <point x="52.336666666666666" y="0.0" type="line"/>
      <point x="668.52" y="0.0" type="line"/>
      <point x="668.52" y="247.08333333333334" type="line"/>
    </contour>
  </outline>
</glyph>
<glyph name="currency" format="2">
  <advance width="901.0066666666665"/>
  <unicode hex="00A4"/>
  <outline>
    <contour>
      <point x="450.0033333333333" y="256.46000000000004" type="curve" smooth="yes"/>
      <point x="663.14" y="256.46000000000004"/>
      <point x="769.77" y="377.3033333333333"/>
      <point x="769.77" y="598.1133333333333" type="curve" smooth="yes"/>
      <point x="769.77" y="649.2466666666667" type="line" smooth="yes"/>
      <point x="769.77" y="868.36"/>
      <point x="663.14" y="989.2033333333334"/>
      <point x="450.00333333333333" y="989.2033333333334" type="curve" smooth="yes"/>
      <point x="236.17" y="989.2033333333334"/>
      <point x="129.54000000000002" y="868.36"/>
      <point x="129.54000000000002" y="649.2466666666667" type="curve" smooth="yes"/>
      <point x="129.54000000000002" y="598.1133333333333" type="line" smooth="yes"/>
      <point x="129.54000000000002" y="377.3033333333333"/>
      <point x="236.17" y="256.46000000000004"/>
    </contour>
    <contour>
      <point x="450.00333333333333" y="452.34000000000003" type="curve" smooth="yes"/>
      <point x="389.51000000000005" y="452.34000000000003"/>
      <point x="365.05" y="494.31666666666666"/>
      <point x="365.05" y="587.2366666666666" type="curve" smooth="yes"/>
      <point x="365.05" y="660.1233333333333" type="line" smooth="yes"/>
      <point x="365.05" y="753.0433333333334"/>
      <point x="389.51000000000005" y="795.02"/>
      <point x="450.00333333333333" y="795.02" type="curve" smooth="yes"/>
      <point x="509.8" y="795.02"/>
      <point x="531.5633333333334" y="752.0433333333333"/>
      <point x="533.26" y="660.1233333333333" type="curve" smooth="yes"/>
      <point x="534.26" y="587.2366666666666" type="line" smooth="yes"/>
      <point x="535.9566666666667" y="494.31666666666666"/>
      <point x="509.8" y="452.34000000000003"/>
    </contour>
    <contour>
      <point x="703.3766666666667" y="471.98" type="line"/>
      <point x="555.9133333333334" y="330.21333333333337" type="line"/>
      <point x="714.7233333333334" y="123.46" type="line"/>
      <point x="877.0633333333333" y="246.65333333333334" type="line"/>
    </contour>
    <contour>
      <point x="353.88" y="341.0" type="line"/>
      <point x="196.54" y="468.49666666666667" type="line"/>
      <point x="23.94333333333333" y="246.65333333333334" type="line"/>
      <point x="185.28333333333333" y="123.46" type="line"/>
    </contour>
    <contour>
      <point x="191.84333333333333" y="775.0766666666667" type="line"/>
      <point x="346.09333333333336" y="907.0566666666666" type="line"/>
      <point x="185.98" y="1114.4166666666667" type="line"/>
      <point x="23.94333333333333" y="992.2233333333334" type="line"/>
    </contour>
    <contour>
      <point x="543.7333333333333" y="894.18" type="line"/>
      <point x="691.8933333333333" y="753.4133333333333" type="line"/>
      <point x="876.0633333333333" y="992.2233333333334" type="line"/>
      <point x="714.0266666666666" y="1114.4166666666667" type="line"/>
    </contour>
  </outline>
</glyph>
<glyph name="yen" format="2">
  <advance width="801.7"/>
  <unicode hex="00A5"/>
  <anchor x="400.74333333333334" y="0.0" name="bottom"/>
  <anchor x="400.74333333333334" y="1278.0" name="top"/>
  <anchor x="25.156666666666666" y="1278.0" name="topleft"/>
  <outline>
    <contour>
      <point x="450.22666666666663" y="507.09999999999997" type="line"/>
      <point x="726.15" y="507.09999999999997" type="line"/>
      <point x="736.5433333333334" y="682.9333333333334" type="line"/>
      <point x="487.6766666666666" y="682.9333333333334" type="line"/>
    </contour>
    <contour>
      <point x="80.24666666666667" y="392.93333333333334" type="line"/>
      <point x="69.85333333333334" y="224.28" type="line"/>
      <point x="726.15" y="224.28" type="line"/>
      <point x="736.5433333333334" y="392.93333333333334" type="line"/>
    </contour>
    <contour>
      <point x="290.9666666666667" y="682.9333333333334" type="line"/>
      <point x="80.24666666666667" y="682.9333333333334" type="line"/>
      <point x="69.85333333333334" y="507.09999999999997" type="line"/>
      <point x="331.11333333333334" y="507.09999999999997" type="line"/>
    </contour>
    <component base="Y" xOffset="5.156666666666667"/>
  </outline>
</glyph>
<glyph name="brokenbar" format="2">
  <advance width="428.2266666666667"/>
  <unicode hex="00A6"/>
  <outline>
    <contour>
      <point x="331.0366666666667" y="574.64" type="line"/>
      <point x="331.0366666666667" y="1426.0" type="line"/>
      <point x="97.19000000000001" y="1426.0" type="line"/>
      <point x="97.19000000000001" y="574.64" type="line"/>
    </contour>
    <contour>
      <point x="331.0366666666667" y="-406.46" type="line"/>
      <point x="331.0366666666667" y="445.2033333333333" type="line"/>
      <point x="97.19000000000001" y="445.2033333333333" type="line"/>
      <point x="97.19000000000001" y="-406.46" type="line"/>
    </contour>
  </outline>
</glyph>
<glyph name="section" format="2">
  <advance width="680.0933333333332"/>
  <unicode hex="00A7"/>
  <outline>
    <contour>
      <point x="364.83333333333326" y="453.4633333333333" type="curve"/>
      <point x="483.3066666666666" y="349.02333333333337" type="line"/>
      <point x="481.9133333333333" y="412.8" type="line"/>
      <point x="573.2733333333333" y="434.99"/>
      <point x="623.7233333333334" y="506.0233333333333"/>
      <point x="623.7233333333334" y="611.44" type="curve" smooth="yes"/>
      <point x="623.7233333333334" y="633.35" type="line" smooth="yes"/>
      <point x="623.7233333333334" y="762.2033333333334"/>
      <point x="568.1733333333334" y="817.5066666666667"/>
      <point x="426.88" y="894.63" type="curve" smooth="yes"/>
      <point x="344.57666666666665" y="940.4833333333333"/>
      <point x="314.02666666666664" y="963.0333333333334"/>
      <point x="314.02666666666664" y="1004.56" type="curve" smooth="yes"/>
      <point x="314.02666666666664" y="1010.6833333333333" type="line" smooth="yes"/>
      <point x="314.02666666666664" y="1053.0866666666666"/>
      <point x="339.66666666666663" y="1074.0633333333333"/>
      <point x="406.12666666666667" y="1074.0633333333333" type="curve" smooth="yes"/>
      <point x="482.2166666666666" y="1074.0633333333333"/>
      <point x="545.79" y="1045.76"/>
      <point x="595.2733333333333" y="1015.03" type="curve"/>
      <point x="579.0933333333334" y="1237.0" type="line"/>
      <point x="530.9133333333333" y="1269.3933333333334"/>
      <point x="453.76666666666665" y="1299.0900000000001"/>
      <point x="358.2833333333333" y="1299.0900000000001" type="curve" smooth="yes"/>
      <point x="159.57333333333335" y="1299.0900000000001"/>
      <point x="52.06666666666666" y="1207.2133333333334"/>
      <point x="52.06666666666666" y="1039.1899999999998" type="curve" smooth="yes"/>
      <point x="52.06666666666666" y="1027.5833333333333" type="line" smooth="yes"/>
      <point x="52.06666666666666" y="904.5266666666668"/>
      <point x="92.79666666666667" y="818.9866666666667"/>
      <point x="241.42666666666665" y="735.9866666666667" type="curve" smooth="yes"/>
      <point x="365.35999999999996" y="666.29"/>
      <point x="409.29333333333335" y="637.9533333333333"/>
      <point x="409.29333333333335" y="564.2466666666667" type="curve" smooth="yes"/>
      <point x="409.29333333333335" y="543.72" type="line" smooth="yes"/>
      <point x="409.29333333333335" y="497.32666666666665"/>
      <point x="399.47333333333336" y="471.4966666666666"/>
    </contour>
    <contour>
      <point x="311.95666666666665" y="718.66" type="curve"/>
      <point x="193.48333333333335" y="824.0100000000001" type="line"/>
      <point x="195.18" y="759.6266666666667" type="line"/>
      <point x="102.30333333333333" y="735.83"/>
      <point x="53.06666666666667" y="666.7066666666667"/>
      <point x="53.06666666666667" y="559.5933333333334" type="curve" smooth="yes"/>
      <point x="53.06666666666667" y="543.8066666666667" type="line" smooth="yes"/>
      <point x="53.06666666666667" y="422.5266666666667"/>
      <point x="116.12333333333333" y="353.47"/>
      <point x="239.15666666666664" y="281.58333333333337" type="curve" smooth="yes"/>
      <point x="337.69666666666666" y="224.67333333333332"/>
      <point x="360.67333333333335" y="205.09"/>
      <point x="360.67333333333335" y="160.95666666666668" type="curve" smooth="yes"/>
      <point x="360.67333333333335" y="154.83333333333331" type="line" smooth="yes"/>
      <point x="360.67333333333335" y="112.73333333333333"/>
      <point x="337.5166666666667" y="84.84666666666666"/>
      <point x="268.75333333333333" y="84.84666666666666" type="curve" smooth="yes"/>
      <point x="183.78666666666666" y="84.84666666666666"/>
      <point x="116.69666666666666" y="115.24000000000001"/>
      <point x="55.55" y="149.06" type="curve"/>
      <point x="71.42666666666668" y="-87.66333333333334" type="line"/>
      <point x="126.48333333333333" y="-118.66333333333333"/>
      <point x="207.54" y="-146.96666666666667"/>
      <point x="311.17" y="-146.96666666666667" type="curve" smooth="yes"/>
      <point x="524.4866666666666" y="-146.96666666666667"/>
      <point x="623.7233333333334" y="-46.69666666666667"/>
      <point x="623.7233333333334" y="130.11333333333332" type="curve" smooth="yes"/>
      <point x="623.7233333333334" y="143.0233333333333" type="line" smooth="yes"/>
      <point x="623.7233333333334" y="291.1933333333333"/>
      <point x="580.7233333333334" y="358.89"/>
      <point x="451.33000000000004" y="425.8666666666667" type="curve" smooth="yes"/>
      <point x="331.3066666666667" y="487.59666666666664"/>
      <point x="267.4966666666666" y="527.9000000000001"/>
      <point x="267.4966666666666" y="605.82" type="curve" smooth="yes"/>
      <point x="267.4966666666666" y="627.4933333333333" type="line"/>
      <point x="267.4966666666666" y="675.1"/>
      <point x="277.3166666666666" y="700.6266666666668"/>
    </contour>
  </outline>
</glyph>
<glyph name="copyright" format="2">
  <advance width="1163.3733333333332"/>
  <unicode hex="00A9"/>
  <outline>
    <contour>
      <point x="581.6866666666666" y="-18.696666666666665" type="curve" smooth="yes"/>
      <point x="918.0366666666667" y="-18.696666666666665"/>
      <point x="1101.3966666666668" y="169.14666666666668"/>
      <point x="1101.3966666666668" y="522.2833333333333" type="curve" smooth="yes"/>
      <point x="1101.3966666666668" y="755.7166666666666" type="line" smooth="yes"/>
      <point x="1101.3966666666668" y="1108.8533333333332"/>
      <point x="918.0366666666667" y="1296.6966666666665"/>
      <point x="581.6866666666666" y="1296.6966666666665" type="curve" smooth="yes"/>
      <point x="245.03333333333333" y="1296.6966666666665"/>
      <point x="61.97666666666666" y="1108.8533333333332"/>
      <point x="61.97666666666666" y="755.7166666666666" type="curve" smooth="yes"/>
      <point x="61.97666666666666" y="522.2833333333333" type="line" smooth="yes"/>
      <point x="61.97666666666666" y="169.14666666666668"/>
      <point x="245.03333333333333" y="-18.696666666666665"/>
    </contour>
    <contour>
      <point x="617.4733333333334" y="303.51666666666665" type="curve" smooth="yes"/>
      <point x="673.26" y="303.51666666666665"/>
      <point x="722.4399999999999" y="317.5166666666667"/>
      <point x="753.9233333333334" y="337.4266666666667" type="curve"/>
      <point x="765.71" y="498.79999999999995" type="line"/>
      <point x="741.89" y="482.97999999999996"/>
      <point x="712.6766666666667" y="470.76666666666665"/>
      <point x="676.8566666666667" y="470.76666666666665" type="curve" smooth="yes"/>
      <point x="608.8233333333334" y="470.76666666666665"/>
      <point x="578.9133333333334" y="512.1033333333334"/>
      <point x="578.9133333333334" y="585.0466666666666" type="curve" smooth="yes"/>
      <point x="578.9133333333334" y="697.74" type="line" smooth="yes"/>
      <point x="578.9133333333334" y="770.29"/>
      <point x="604.1266666666667" y="811.6266666666667"/>
      <point x="671.8566666666667" y="811.6266666666667" type="curve" smooth="yes"/>
      <point x="707.5866666666667" y="811.6266666666667"/>
      <point x="734.4066666666666" y="799.7166666666667"/>
      <point x="760.0133333333333" y="784.5933333333332" type="curve"/>
      <point x="748.2266666666667" y="941.8766666666667" type="line"/>
      <point x="717.1366666666667" y="961.1800000000001"/>
      <point x="672.6533333333333" y="975.4833333333333"/>
      <point x="616.8666666666666" y="975.4833333333333" type="curve" smooth="yes"/>
      <point x="462.45" y="975.4833333333333"/>
      <point x="390.69666666666666" y="875.4266666666666"/>
      <point x="390.69666666666666" y="702.7066666666667" type="curve" smooth="yes"/>
      <point x="390.69666666666666" y="575.2933333333333" type="line" smooth="yes"/>
      <point x="390.69666666666666" y="402.9666666666667"/>
      <point x="461.0566666666667" y="303.51666666666665"/>
    </contour>
    <contour>
      <point x="581.6866666666666" y="138.85666666666665" type="curve" smooth="yes"/>
      <point x="364.8333333333333" y="138.85666666666665"/>
      <point x="243.89" y="267.49666666666667"/>
      <point x="243.89" y="499.9233333333333" type="curve" smooth="yes"/>
      <point x="243.89" y="779.7733333333333" type="line" smooth="yes"/>
      <point x="243.89" y="1011.2"/>
      <point x="364.8333333333333" y="1139.1433333333332"/>
      <point x="581.6866666666666" y="1139.1433333333332" type="curve" smooth="yes"/>
      <point x="798.2366666666667" y="1139.1433333333332"/>
      <point x="919.4833333333333" y="1011.2"/>
      <point x="919.4833333333333" y="779.7733333333333" type="curve" smooth="yes"/>
      <point x="919.4833333333333" y="499.9233333333333" type="line" smooth="yes"/>
      <point x="919.4833333333333" y="267.49666666666667"/>
      <point x="798.2366666666667" y="138.85666666666665"/>
    </contour>
  </outline>
</glyph>
<glyph name="ordfeminine" format="2">
  <advance width="493.97999999999996"/>
  <unicode hex="00AA"/>
  <outline>
    <contour>
      <point x="269.21333333333337" y="639.3033333333333" type="line"/>
      <point x="453.52" y="639.3033333333333" type="line"/>
      <point x="453.52" y="1056.5266666666669" type="line" smooth="yes"/>
      <point x="453.52" y="1200.46"/>
      <point x="402.6433333333333" y="1290.0"/>
      <point x="233.89999999999998" y="1290.0" type="curve" smooth="yes"/>
      <point x="166.84333333333333" y="1290.0"/>
      <point x="105.18" y="1272.3933333333332"/>
      <point x="60.303333333333335" y="1248.7866666666669" type="curve"/>
      <point x="46.123333333333335" y="1093.2" type="line"/>
      <point x="93.30333333333334" y="1114.6266666666668"/>
      <point x="146.78666666666666" y="1132.4466666666665"/>
      <point x="202.35999999999999" y="1132.4466666666665" type="curve" smooth="yes"/>
      <point x="258.7866666666667" y="1132.4466666666665"/>
      <point x="273.6066666666667" y="1110.6833333333334"/>
      <point x="273.6066666666667" y="1060.6166666666668" type="curve"/>
      <point x="273.6066666666667" y="1019.1233333333333" type="line"/>
      <point x="273.6066666666667" y="771.9666666666667" type="line"/>
      <point x="276.6066666666667" y="768.5733333333334" type="line"/>
    </contour>
    <contour>
      <point x="152.73000000000002" y="628.6066666666667" type="curve" smooth="yes"/>
      <point x="230.30333333333334" y="628.6066666666667"/>
      <point x="253.42666666666668" y="674.7866666666666"/>
      <point x="267.51666666666665" y="740.1466666666666" type="curve"/>
      <point x="295.18" y="740.1466666666666" type="line"/>
      <point x="274.6066666666667" y="811.36" type="line"/>
      <point x="269.3933333333333" y="791.8666666666667"/>
      <point x="257.2366666666667" y="776.4966666666667"/>
      <point x="235.17000000000002" y="776.4966666666667" type="curve" smooth="yes"/>
      <point x="210.49666666666667" y="776.4966666666667"/>
      <point x="201.37333333333333" y="794.2600000000001"/>
      <point x="201.37333333333333" y="822.2366666666666" type="curve" smooth="yes"/>
      <point x="201.37333333333333" y="861.2366666666667" type="line" smooth="yes"/>
      <point x="201.37333333333333" y="895.91"/>
      <point x="209.79999999999998" y="913.2466666666667"/>
      <point x="242.07999999999998" y="922.28" type="curve" smooth="yes"/>
      <point x="304.5733333333333" y="938.83" type="line"/>
      <point x="286.30333333333334" y="1061.7866666666669" type="line"/>
      <point x="191.35999999999999" y="1039.8433333333332" type="line" smooth="yes"/>
      <point x="61.33666666666666" y="1010.7199999999999"/>
      <point x="23.156666666666666" y="955.2366666666667"/>
      <point x="23.156666666666666" y="848.18" type="curve" smooth="yes"/>
      <point x="23.156666666666666" y="806.36" type="line" smooth="yes"/>
      <point x="23.156666666666666" y="692.7866666666666"/>
      <point x="64.94333333333333" y="628.6066666666667"/>
    </contour>
  </outline>
</glyph>
<glyph name="logicalnot" format="2">
  <advance width="712.3833333333333"/>
  <unicode hex="00AC"/>
  <outline>
    <contour>
      <point x="659.9799999999999" y="302.03333333333336" type="line"/>
      <point x="659.9799999999999" y="656.36" type="line"/>
      <point x="428.8633333333333" y="656.36" type="line"/>
      <point x="428.8633333333333" y="302.03333333333336" type="line"/>
    </contour>
    <contour>
      <point x="54.21333333333333" y="524.9866666666667" type="line"/>
      <point x="659.9799999999999" y="524.9866666666667" type="line"/>
      <point x="659.9799999999999" y="748.0133333333333" type="line"/>
      <point x="54.21333333333333" y="748.0133333333333" type="line"/>
    </contour>
  </outline>
</glyph>
<glyph name="registered" format="2">
  <advance width="691.6766666666667"/>
  <unicode hex="00AE"/>
  <outline>
    <contour>
      <point x="345.68666666666667" y="521.2233333333332" type="curve" smooth="yes"/>
      <point x="541.4966666666667" y="521.2233333333332"/>
      <point x="645.1266666666667" y="640.7966666666666"/>
      <point x="645.1266666666667" y="837.6966666666667" type="curve" smooth="yes"/>
      <point x="645.1266666666667" y="981.3133333333333" type="line" smooth="yes"/>
      <point x="645.1266666666667" y="1177.5166666666667"/>
      <point x="541.4966666666667" y="1296.0900000000001"/>
      <point x="345.68666666666667" y="1296.0900000000001" type="curve" smooth="yes"/>
      <point x="149.17999999999998" y="1296.0900000000001"/>
      <point x="45.85333333333333" y="1177.2133333333334"/>
      <point x="45.85333333333333" y="981.3133333333333" type="curve" smooth="yes"/>
      <point x="45.85333333333333" y="837.6966666666667" type="line" smooth="yes"/>
      <point x="45.85333333333333" y="640.7966666666666"/>
      <point x="149.17999999999998" y="521.2233333333332"/>
    </contour>
    <contour>
      <point x="345.68666666666667" y="616.3033333333334" type="curve" smooth="yes"/>
      <point x="215.9" y="616.3033333333334"/>
      <point x="155.11333333333332" y="687.3366666666667"/>
      <point x="155.11333333333332" y="828.2133333333334" type="curve" smooth="yes"/>
      <point x="155.11333333333332" y="992.4933333333333" type="line" smooth="yes"/>
      <point x="155.11333333333332" y="1130.6733333333334"/>
      <point x="215.9" y="1201.01"/>
      <point x="345.68666666666667" y="1201.01" type="curve" smooth="yes"/>
      <point x="474.4733333333333" y="1201.01"/>
      <point x="535.8666666666667" y="1130.6733333333334"/>
      <point x="535.8666666666667" y="992.4933333333333" type="curve" smooth="yes"/>
      <point x="535.8666666666667" y="828.2133333333334" type="line" smooth="yes"/>
      <point x="535.8666666666667" y="687.3366666666667"/>
      <point x="474.4733333333333" y="616.3033333333334"/>
    </contour>
    <contour>
      <point x="383.63" y="717.0666666666667" type="line"/>
      <point x="480.4066666666667" y="717.0666666666667" type="line"/>
      <point x="471.10333333333335" y="808.6066666666666" type="line" smooth="yes"/>
      <point x="464.4966666666666" y="874.0"/>
      <point x="445.3166666666667" y="904.3366666666667"/>
      <point x="379.29333333333335" y="909.3366666666666" type="curve"/>
      <point x="398.26" y="897.1566666666666" type="line"/>
      <point x="398.26" y="910.64" type="line"/>
      <point x="452.62" y="914.64"/>
      <point x="475.4966666666667" y="945.3366666666667"/>
      <point x="475.4966666666667" y="996.5166666666667" type="curve" smooth="yes"/>
      <point x="475.4966666666667" y="1008.4599999999999" type="line" smooth="yes"/>
      <point x="475.4966666666667" y="1075.7633333333333"/>
      <point x="436.62" y="1116.3366666666668"/>
      <point x="351.08" y="1116.3366666666668" type="curve" smooth="yes"/>
      <point x="305.7766666666667" y="1116.3366666666668" type="line"/>
      <point x="305.7766666666667" y="1033.4366666666667" type="line"/>
      <point x="347.29333333333335" y="1033.4366666666667" type="line" smooth="yes"/>
      <point x="369.4166666666667" y="1033.4366666666667"/>
      <point x="379.71999999999997" y="1018.2233333333334"/>
      <point x="379.71999999999997" y="987.1" type="curve" smooth="yes"/>
      <point x="379.71999999999997" y="972.9766666666666" type="line" smooth="yes"/>
      <point x="379.71999999999997" y="941.9433333333334"/>
      <point x="369.4166666666667" y="927.73"/>
      <point x="346.3833333333333" y="927.4266666666667" type="curve" smooth="yes"/>
      <point x="306.3833333333334" y="927.1233333333333" type="line"/>
      <point x="306.3833333333334" y="846.6166666666667" type="line"/>
      <point x="340.2933333333333" y="846.6166666666667" type="line" smooth="yes"/>
      <point x="366.2033333333333" y="846.6166666666667"/>
      <point x="373.41666666666663" y="834.4933333333333"/>
      <point x="377.02333333333337" y="794.1566666666666" type="curve" smooth="yes"/>
    </contour>
    <contour>
      <point x="230.78666666666663" y="717.0666666666667" type="line"/>
      <point x="326.56333333333333" y="717.0666666666667" type="line"/>
      <point x="326.56333333333333" y="874.7633333333333" type="line"/>
      <point x="325.8666666666667" y="907.82" type="line"/>
      <point x="325.8666666666667" y="1116.3366666666668" type="line"/>
      <point x="230.78666666666663" y="1116.3366666666668" type="line"/>
    </contour>
  </outline>
</glyph>
<glyph name="degree" format="2">
  <advance width="535.4733333333334"/>
  <unicode hex="00B0"/>
  <outline>
    <contour>
      <point x="268.2366666666667" y="774.7733333333333" type="curve" smooth="yes"/>
      <point x="416.44" y="774.7733333333333"/>
      <point x="496.1933333333333" y="863.74"/>
      <point x="496.1933333333333" y="1025.8866666666668" type="curve" smooth="yes"/>
      <point x="496.1933333333333" y="1048.6733333333332" type="line" smooth="yes"/>
      <point x="496.1933333333333" y="1210.1233333333332"/>
      <point x="416.44" y="1299.09"/>
      <point x="268.2366666666667" y="1299.09" type="curve" smooth="yes"/>
      <point x="119.73" y="1299.09"/>
      <point x="39.28" y="1210.1233333333332"/>
      <point x="39.28" y="1048.6733333333332" type="curve" smooth="yes"/>
      <point x="39.28" y="1025.8866666666668" type="line" smooth="yes"/>
      <point x="39.28" y="863.74"/>
      <point x="119.73" y="774.7733333333333"/>
    </contour>
    <contour>
      <point x="268.2366666666667" y="921.1233333333333" type="curve" smooth="yes"/>
      <point x="228.98999999999998" y="921.1233333333333"/>
      <point x="212.17" y="954.1566666666668"/>
      <point x="212.17" y="1022.7966666666666" type="curve" smooth="yes"/>
      <point x="212.17" y="1052.46" type="line" smooth="yes"/>
      <point x="212.17" y="1119.4033333333334"/>
      <point x="228.98999999999998" y="1152.74"/>
      <point x="268.2366666666667" y="1152.74" type="curve" smooth="yes"/>
      <point x="307.48333333333335" y="1152.74"/>
      <point x="323.30333333333334" y="1119.4033333333334"/>
      <point x="323.30333333333334" y="1052.46" type="curve" smooth="yes"/>
      <point x="323.30333333333334" y="1022.7966666666666" type="line" smooth="yes"/>
      <point x="323.30333333333334" y="954.1566666666668"/>
      <point x="307.48333333333335" y="921.1233333333333"/>
    </contour>
  </outline>
</glyph>
<glyph name="plusminus" format="2">
  <advance width="722.5633333333333"/>
  <unicode hex="00B1"/>
  <outline>
    <contour>
      <point x="58.54999999999999" y="135.87333333333336" type="line"/>
      <point x="664.0133333333333" y="135.87333333333336" type="line"/>
      <point x="664.0133333333333" y="350.4166666666667" type="line"/>
      <point x="58.54999999999999" y="350.4166666666667" type="line"/>
    </contour>
    <contour>
      <point x="477.0366666666667" y="442.69666666666666" type="line"/>
      <point x="477.0366666666667" y="1028.2933333333335" type="line"/>
      <point x="246.22333333333333" y="1028.2933333333335" type="line"/>
      <point x="246.22333333333333" y="442.69666666666666" type="line"/>
    </contour>
    <contour>
      <point x="58.54999999999999" y="624.4366666666666" type="line"/>
      <point x="664.0133333333333" y="624.4366666666666" type="line"/>
      <point x="664.0133333333333" y="846.5533333333333" type="line"/>
      <point x="58.54999999999999" y="846.5533333333333" type="line"/>
    </contour>
  </outline>
</glyph>
<glyph name="twosuperior" format="2">
  <advance width="403.92333333333335"/>
  <unicode hex="00B2"/>
  <outline>
    <contour>
      <point x="21.516666666666666" y="700.0" type="line"/>
      <point x="381.49666666666667" y="700.0" type="line"/>
      <point x="381.49666666666667" y="851.98" type="line"/>
      <point x="147.62" y="851.98" type="line"/>
      <point x="209.73333333333332" y="827.1033333333334" type="line"/>
      <point x="209.73333333333332" y="857.6766666666666" type="line"/>
      <point x="294.6433333333333" y="974.17" type="line" smooth="yes"/>
      <point x="346.71" y="1047.5166666666667"/>
      <point x="380.5866666666667" y="1113.73"/>
      <point x="380.5866666666667" y="1192.2466666666667" type="curve" smooth="yes"/>
      <point x="380.5866666666667" y="1204.0666666666666" type="line" smooth="yes"/>
      <point x="380.5866666666667" y="1318.0333333333333"/>
      <point x="314.44000000000005" y="1395.3933333333334"/>
      <point x="184.32666666666668" y="1395.3933333333334" type="curve" smooth="yes"/>
      <point x="126.05666666666667" y="1395.3933333333334"/>
      <point x="84.05666666666667" y="1382.7866666666666"/>
      <point x="42.60666666666667" y="1362.3933333333332" type="curve"/>
      <point x="29.42666666666667" y="1211.5933333333332" type="line"/>
      <point x="51.63999999999999" y="1223.11"/>
      <point x="85.03333333333333" y="1238.7166666666667"/>
      <point x="127.73" y="1238.7166666666667" type="curve" smooth="yes"/>
      <point x="181.94333333333336" y="1238.7166666666667"/>
      <point x="198.45999999999998" y="1211.9866666666667"/>
      <point x="198.45999999999998" y="1171.9199999999998" type="curve" smooth="yes"/>
      <point x="198.45999999999998" y="1166.1899999999998" type="line" smooth="yes"/>
      <point x="198.45999999999998" y="1125.2133333333334"/>
      <point x="174.76333333333335" y="1081.6633333333332"/>
      <point x="136.18" y="1025.4066666666668" type="curve" smooth="yes"/>
      <point x="21.516666666666666" y="862.4633333333334" type="line"/>
    </contour>
  </outline>
</glyph>
<glyph name="threesuperior" format="2">
  <advance width="412.3166666666667"/>
  <unicode hex="00B3"/>
  <outline>
    <contour>
      <point x="169.63" y="688.0" type="curve" smooth="yes"/>
      <point x="323.34999999999997" y="688.0"/>
      <point x="387.1600000000001" y="762.8199999999999"/>
      <point x="387.1600000000001" y="877.1466666666666" type="curve" smooth="yes"/>
      <point x="387.1600000000001" y="898.9433333333333" type="line" smooth="yes"/>
      <point x="387.1600000000001" y="995.6066666666667"/>
      <point x="349.67666666666673" y="1041.5166666666667"/>
      <point x="256.6533333333333" y="1053.3033333333333" type="curve"/>
      <point x="267.83333333333337" y="1031.55" type="line"/>
      <point x="267.83333333333337" y="1057.3033333333333" type="line"/>
      <point x="350.2833333333333" y="1074.0900000000001"/>
      <point x="383.8566666666667" y="1125.7866666666666"/>
      <point x="383.8566666666667" y="1206.9666666666667" type="curve" smooth="yes"/>
      <point x="383.8566666666667" y="1224.6399999999999" type="line" smooth="yes"/>
      <point x="383.8566666666667" y="1334.0"/>
      <point x="323.0133333333333" y="1396.0900000000001"/>
      <point x="192.29333333333332" y="1396.0900000000001" type="curve" smooth="yes"/>
      <point x="129.63" y="1396.0900000000001"/>
      <point x="75.96666666666667" y="1381.7866666666666"/>
      <point x="38.39333333333333" y="1363.4833333333333" type="curve"/>
      <point x="24.910000000000004" y="1215.2" type="line"/>
      <point x="53.910000000000004" y="1227.7166666666667"/>
      <point x="92.00000000000001" y="1241.6266666666666"/>
      <point x="136.09" y="1241.6266666666666" type="curve" smooth="yes"/>
      <point x="182.73000000000002" y="1241.6266666666666"/>
      <point x="201.64000000000001" y="1221.38"/>
      <point x="201.64000000000001" y="1186.3133333333333" type="curve" smooth="yes"/>
      <point x="201.64000000000001" y="1175.1233333333334" type="line" smooth="yes"/>
      <point x="201.64000000000001" y="1133.0233333333333"/>
      <point x="170.12333333333333" y="1121.81"/>
      <point x="125.21333333333332" y="1119.1133333333335" type="curve" smooth="yes"/>
      <point x="77.48333333333333" y="1116.4166666666667" type="line"/>
      <point x="77.48333333333333" y="978.6166666666667" type="line"/>
      <point x="130.81999999999996" y="975.6166666666666" type="line" smooth="yes"/>
      <point x="183.64000000000001" y="972.6166666666666"/>
      <point x="201.24666666666667" y="951.6733333333333"/>
      <point x="201.24666666666667" y="917.91" type="curve" smooth="yes"/>
      <point x="201.24666666666667" y="904.5966666666666" type="line" smooth="yes"/>
      <point x="201.24666666666667" y="869.1366666666667"/>
      <point x="183.55000000000004" y="844.3733333333333"/>
      <point x="131.30333333333334" y="844.3733333333333" type="curve" smooth="yes"/>
      <point x="87.60666666666667" y="844.3733333333333"/>
      <point x="54.69666666666667" y="855.89"/>
      <point x="19.91" y="870.1033333333332" type="curve"/>
      <point x="33.39333333333333" y="715.91" type="line"/>
      <point x="63.17999999999999" y="699.91"/>
      <point x="118.63000000000001" y="688.0"/>
    </contour>
  </outline>
</glyph>
